<svg width="152" height="311" viewBox="0 0 152 311" fill="none" xmlns="http://www.w3.org/2000/svg">
<ellipse cx="76.0001" cy="4.53142" rx="4.49015" ry="4.53157" transform="rotate(-180 76.0001 4.53142)" fill="#00394C"/>
<path d="M79.2873 75.7901C79.2873 75.7901 79.2873 75.7852 79.2873 75.7803L80.65 61.3005C80.7668 59.7681 79.5647 58.437 78.0073 58.4468C76.6251 58.4567 75.5204 59.6306 75.4133 61.0206L74.2939 75.4315C74.2939 75.4315 74.2939 75.4364 74.2939 75.4414L75.3257 78.8943C75.608 79.8324 76.8588 79.9798 77.3454 79.135L79.2776 75.7852L79.2873 75.7901Z" fill="#00394C"/>
<path d="M86.7966 81.6789C86.7966 81.6789 86.8015 81.6789 86.8064 81.674L97.9417 72.4547C99.1 71.4527 99.1827 69.6551 98.0731 68.5548C97.0851 67.5774 95.4839 67.6167 94.4327 68.5254L83.5407 77.9215C83.5407 77.9215 83.5407 77.9215 83.5359 77.9313L81.8033 81.2369C81.3409 82.1161 82.1634 83.123 83.1076 82.8332L86.7966 81.6888L86.7966 81.6789Z" fill="#00394C"/>
<path d="M69.5292 77.1309C69.5292 77.1309 69.5292 77.126 69.5292 77.1211L60.618 65.7505C59.6252 64.5815 57.8439 64.498 56.7537 65.6178C55.7853 66.6149 55.8242 68.2309 56.7245 69.2918L66.0348 80.2842C66.0348 80.2842 66.0348 80.2842 66.0445 80.2891L68.8819 81.8854C69.7433 82.3717 70.7556 81.5662 70.4928 80.6084L69.5389 77.1309L69.5292 77.1309Z" fill="#00394C"/>
<path d="M63.9128 84.5971C63.9128 84.5971 63.9079 84.5971 63.9031 84.5971L49.5605 83.2021C48.1151 83.0892 46.8546 84.1747 46.7426 85.6334C46.6307 87.0873 47.7063 88.3644 49.1517 88.4773L63.5624 89.5628L63.5721 89.5628L66.9059 88.3054C67.8014 87.9665 67.8841 86.7189 67.0373 86.2671L63.9177 84.602L63.9128 84.5971Z" fill="#00394C"/>
<path d="M88.028 91.1687C88.028 91.1687 88.0328 91.1687 88.0377 91.1687L102.351 92.6766C103.869 92.7944 105.188 91.5813 105.179 90.0095C105.169 88.6146 104.006 87.4996 102.628 87.3916L88.3492 86.2619C88.3492 86.2619 88.3443 86.2619 88.3395 86.2619L84.7721 87.3916C83.8182 87.6961 83.716 89.0173 84.6163 89.4643L88.0377 91.1638L88.028 91.1687Z" fill="#00394C"/>
<path d="M76.4986 114.853L77.618 100.438C77.618 100.438 77.618 100.433 77.618 100.428L76.5132 97.0141C76.2066 96.0612 74.9071 95.9679 74.4643 96.8618L72.8339 100.172C72.8339 100.172 72.8339 100.177 72.8339 100.182L71.2668 114.573C71.15 116.106 72.3521 117.437 73.9094 117.427C75.2916 117.417 76.3964 116.243 76.5035 114.853L76.4986 114.853Z" fill="#00394C"/>
<path d="M82.1442 98.8901C82.1442 98.8901 82.1442 98.895 82.1442 98.8999L91.2987 110.128C92.2915 111.297 94.0727 111.381 95.1629 110.261C96.1314 109.264 96.0925 107.648 95.1921 106.587L85.8819 95.5992C85.8819 95.5992 85.877 95.5943 85.8721 95.5943L82.4459 93.89C81.5602 93.4479 80.5868 94.3124 80.9031 95.2554L82.1296 98.895L82.1442 98.8901Z" fill="#00394C"/>
<path d="M65.1684 94.2922C65.1684 94.2922 65.1635 94.2922 65.1586 94.2922L53.9698 103.418C52.8699 104.366 52.7385 106.036 53.6827 107.146C54.622 108.256 56.2767 108.389 57.3766 107.436L68.3707 97.9514C68.3707 97.9514 68.3707 97.9465 68.3756 97.9416L69.9865 94.8128C70.4391 93.9336 69.6215 92.9414 68.6871 93.2263L65.1732 94.2823L65.1684 94.2922Z" fill="#00394C"/>
<path d="M88.3344 86.2623C88.3344 86.2623 88.3393 86.2623 88.3441 86.2623L102.093 81.9154C103.465 81.4537 104.205 79.9556 103.748 78.5705C103.29 77.1854 101.806 76.4389 100.433 76.9006L86.8062 81.6797C86.8062 81.6797 86.8014 81.6797 86.7965 81.6797L83.964 84.0225C83.1853 84.666 83.5893 85.9381 84.5918 86.0069L88.3344 86.2623Z" fill="#00394C"/>
<path d="M85.8816 95.56C85.8816 95.56 85.8816 95.56 85.8913 95.5649L98.5597 102.255C99.7861 102.874 101.324 102.52 102.049 101.346C102.881 100 102.37 98.2614 101.003 97.5738L88.0425 91.1443C88.0425 91.1443 88.0376 91.1443 88.0327 91.1443L84.3145 90.8103C83.3168 90.7219 82.723 91.9007 83.38 92.6621L85.8865 95.56L85.8816 95.56Z" fill="#00394C"/>
<path d="M77.6179 100.432C77.6179 100.432 77.6179 100.437 77.6179 100.441L81.9251 114.317C82.3825 115.702 83.8669 116.449 85.2394 115.987C86.6118 115.525 87.3516 114.027 86.8941 112.642L82.1441 98.8992C82.1441 98.8992 82.1441 98.8943 82.1441 98.8894L79.8031 96.0946C79.1558 95.3235 77.9099 95.741 77.8467 96.7479L77.6179 100.432Z" fill="#00394C"/>
<path d="M63.5722 89.5578C63.5722 89.5578 63.5673 89.5578 63.5625 89.5578L49.8186 93.9587C48.4461 94.4204 47.7064 95.9185 48.1639 97.3036C48.6213 98.6887 50.1057 99.4353 51.4782 98.9736L65.1588 94.2927C65.1588 94.2927 65.1685 94.2927 65.1685 94.2878L67.7577 91.606C68.4293 90.9135 67.967 89.7445 67.0082 89.7052L63.5673 89.5578L63.5722 89.5578Z" fill="#00394C"/>
<path d="M68.3808 97.956C68.3808 97.956 68.3759 97.9609 68.3759 97.9658L61.6986 110.854C61.0173 112.229 61.6353 113.919 63.0857 114.499C64.3705 115.009 65.8305 114.341 66.4486 113.094L72.8339 100.186C72.8339 100.186 72.8339 100.181 72.8339 100.176L73.0237 96.4776C73.0724 95.5002 71.9433 94.9304 71.1986 95.564L68.3808 97.9609L68.3808 97.956Z" fill="#00394C"/>
<path d="M83.5359 77.9219C83.5359 77.9219 83.5408 77.917 83.5408 77.912L90.2181 65.0286C90.8653 63.7221 90.3397 62.1356 89.0452 61.4824C87.7506 60.8291 86.1786 61.3596 85.5313 62.6661L79.292 75.7804C79.292 75.7804 79.292 75.7853 79.292 75.7902L78.854 79.2628C78.7275 80.2648 79.8761 80.9082 80.6548 80.2746L83.5408 77.9219L83.5359 77.9219Z" fill="#00394C"/>
<path d="M74.2985 75.447L74.2985 75.4371L69.9914 61.5615C69.5339 60.1764 68.0495 59.4299 66.6771 59.8916C65.3047 60.3533 64.5649 61.8513 65.0224 63.2364L69.5291 77.1219C69.5291 77.1219 69.5291 77.1268 69.5291 77.1317L71.7581 79.8675C72.3664 80.6141 73.5685 80.285 73.7145 79.3223L74.2985 75.447Z" fill="#00394C"/>
<path d="M66.0349 80.2894C66.0349 80.2894 66.03 80.2845 66.0251 80.2796L53.2546 73.5407C51.96 72.8875 50.388 73.4179 49.7407 74.7244C49.0935 76.031 49.6191 77.6174 50.9136 78.2707L63.9032 84.5872C63.9032 84.5872 63.9081 84.5872 63.9129 84.5872L67.2078 84.9359C68.1763 85.039 68.7943 83.9192 68.2006 83.1382L66.03 80.2845L66.0349 80.2894Z" fill="#00394C"/>
<path d="M86.0819 32.503C86.8447 32.2968 87.2974 31.5054 87.093 30.7356C86.8886 29.9657 86.1045 29.5088 85.3417 29.7151L78.9642 31.4397L82.2653 25.6692C82.6602 24.979 82.4258 24.0964 81.7419 23.6979C81.058 23.2993 80.1834 23.5358 79.7885 24.2261L76.4877 29.996L74.7789 23.5597C74.5745 22.7899 73.7904 22.333 73.0276 22.5393C72.2647 22.7456 71.812 23.5369 72.0164 24.3068L73.7254 30.7437L68.0073 27.4118C67.3233 27.0133 66.4488 27.2498 66.0539 27.9401C65.659 28.6303 65.8934 29.5129 66.5773 29.9114L72.2952 33.2431L65.9178 34.9677C65.155 35.174 64.7023 35.9653 64.9067 36.7352C65.1111 37.5051 65.8952 37.9619 66.6581 37.7557L73.0352 36.0311L69.734 41.8016C69.3391 42.4919 69.5735 43.3745 70.2574 43.773C70.9414 44.1715 71.8159 43.9351 72.2108 43.2448L75.5123 37.4738L77.221 43.9098C77.4254 44.6796 78.2095 45.1365 78.9724 44.9302C79.7352 44.7239 80.1879 43.9326 79.9835 43.1627L78.2749 36.7273L83.9922 40.0587C84.6762 40.4572 85.5507 40.2207 85.9456 39.5305C86.3405 38.8402 86.1061 37.9576 85.4222 37.5591L79.7046 34.2276L86.0819 32.503Z" fill="#00394C"/>
<path d="M68.429 155.909L63.6397 138.939C62.6167 135.314 58.8736 133.214 55.2874 134.246C51.6954 135.279 49.6146 139.056 50.6376 142.676L55.4269 159.64L68.5278 183.708C68.7661 184.142 69.4171 183.96 69.3997 183.467L68.4348 155.909L68.429 155.909Z" fill="#00394C"/>
<path d="M83.5701 259.325L88.3594 276.284C89.394 279.95 93.2069 282.056 96.8337 280.941C100.461 279.827 102.321 275.943 101.298 272.33L96.5722 255.583L83.3725 231.362C83.1342 230.928 82.4832 231.11 82.5006 231.609L83.5701 259.331L83.5701 259.325Z" fill="#00394C"/>
<path d="M24.7612 215.255L7.95788 220.088C4.36588 221.121 2.28508 224.898 3.30805 228.517C4.33101 232.143 8.07413 234.243 11.6603 233.21L28.4753 228.377L52.4277 214.944C52.8579 214.703 52.6719 214.046 52.1836 214.064L24.7554 215.26L24.7612 215.255Z" fill="#00394C"/>
<path d="M34.4153 176.452L19.3382 167.982C16.0833 166.158 11.8811 167.155 10.0095 170.405C8.13795 173.654 9.26553 177.942 12.5669 179.796L27.8358 188.372L54.2236 195.933C54.6944 196.068 55.0257 195.47 54.6653 195.135L34.4153 176.452Z" fill="#00394C"/>
<path d="M117.584 238.778L132.853 247.353C136.113 249.184 140.234 247.999 142.048 244.708C143.861 241.417 142.693 237.258 139.426 235.428L124.152 226.852L97.7465 219.332C97.2757 219.197 96.9444 219.795 97.3048 220.13L117.584 238.778Z" fill="#00394C"/>
<path d="M127.232 199.975L143.826 195.2C147.406 194.173 149.679 190.46 148.726 186.829C147.755 183.128 143.971 180.969 140.339 182.013L123.541 186.847L99.5712 200.297C99.1411 200.538 99.3271 201.201 99.8153 201.177L127.232 199.975Z" fill="#00394C"/>
<path d="M106.877 165.647L115.264 150.431C117.072 147.146 116.084 142.905 112.864 141.016C109.644 139.127 105.395 140.265 103.558 143.597L95.0551 159.013L87.6793 185.462C87.5456 185.937 88.1384 186.271 88.4697 185.908L106.871 165.641L106.877 165.647Z" fill="#00394C"/>
<path d="M45.1217 249.576L36.6242 264.991C34.7875 268.323 36.008 272.535 39.3559 274.33C42.7038 276.125 46.7375 274.711 48.551 271.426L56.9381 256.216L64.4999 229.62C64.6336 229.145 64.0407 228.81 63.7094 229.174L45.1217 249.576Z" fill="#00394C"/>
<path d="M124.151 226.852L141.106 231.151C144.768 232.078 148.482 229.802 149.336 226.072C150.179 222.411 147.79 218.774 144.181 217.859L127.447 213.618L100.013 213.249C99.5248 213.243 99.3562 213.906 99.7921 214.134L124.151 226.852Z" fill="#00394C"/>
<path d="M96.5722 255.583L105.546 270.717C107.464 273.949 111.614 274.999 114.817 273.069C118.02 271.133 119.066 266.945 117.148 263.713L108.174 248.585L89.0917 228.699C88.7488 228.341 88.1676 228.699 88.3129 229.169L96.5664 255.589L96.5722 255.583Z" fill="#00394C"/>
<path d="M95.0608 159.019L99.3212 141.908C100.24 138.212 97.9844 134.464 94.2878 133.602C90.6609 132.751 87.0573 135.162 86.1564 138.805L81.9599 155.681L81.5996 183.169C81.5937 183.661 82.2505 183.831 82.4772 183.392L95.0666 159.025L95.0608 159.019Z" fill="#00394C"/>
<path d="M27.8416 188.371L10.893 184.077C7.27194 183.162 3.59856 185.379 2.69185 189.034C1.78513 192.688 3.98218 196.395 7.60324 197.31L24.5519 201.604L51.9917 201.944C52.48 201.95 52.6485 201.287 52.2126 201.059L27.8416 188.371Z" fill="#00394C"/>
<path d="M55.4269 159.64L46.563 144.699C44.6508 141.479 40.5124 140.218 37.2866 142.089C34.0608 143.96 32.91 148.242 34.8513 151.51L43.8313 166.649L62.9479 186.494C63.2908 186.852 63.872 186.494 63.7267 186.025L55.4326 159.634L55.4269 159.64Z" fill="#00394C"/>
<path d="M28.4753 228.37L13.6656 237.316C10.4688 239.246 9.225 243.422 11.0791 246.678C12.9332 249.933 17.1762 251.095 20.4137 249.135L35.4094 240.078L54.9387 220.932C55.2874 220.586 54.9387 220 54.4737 220.146L28.4695 228.364L28.4753 228.37Z" fill="#00394C"/>
<path d="M56.9322 256.222L52.6776 273.321C51.7593 277.017 54.0202 280.765 57.711 281.627C61.4019 282.489 64.9415 280.067 65.8424 276.424L70.0447 259.524L70.4167 231.849C70.4225 231.356 69.7658 231.186 69.5391 231.626L56.9264 256.216L56.9322 256.222Z" fill="#00394C"/>
<path d="M123.541 186.847L138.531 177.795C141.734 175.86 142.774 171.671 140.862 168.439C138.944 165.207 134.794 164.157 131.591 166.087L116.595 175.15L96.8685 194.343C96.5139 194.689 96.8627 195.276 97.3277 195.129L123.547 186.852L123.541 186.847Z" fill="#00394C"/>
<path d="M116.584 175.143L128.749 162.473C131.376 159.733 131.277 155.352 128.505 152.735C125.732 150.119 121.472 150.442 118.88 153.14L106.871 165.646L92.7998 189.409C92.5499 189.831 93.0381 190.312 93.4508 190.043L116.578 175.143L116.584 175.143Z" fill="#00394C"/>
<path d="M127.447 213.618L144.925 213.342C148.656 213.283 151.638 210.18 151.58 206.414C151.522 202.648 148.447 199.639 144.715 199.698L127.238 199.974L100.647 206.719C100.17 206.843 100.182 207.523 100.658 207.634L127.453 213.618L127.447 213.618Z" fill="#00394C"/>
<path d="M108.179 248.579L120.728 260.851C123.442 263.502 127.784 263.403 130.376 260.605C132.969 257.807 132.649 253.507 129.975 250.891L117.583 238.778L93.9855 224.623C93.5612 224.371 93.0904 224.864 93.3578 225.28L108.179 248.579Z" fill="#00394C"/>
<path d="M24.5462 201.61L7.29528 201.886C3.57541 201.945 0.425149 204.936 0.419337 208.691C0.413524 212.445 3.51148 215.595 7.28366 215.53L24.7554 215.254L51.3525 208.491C51.8291 208.368 51.8174 207.682 51.3408 207.576L24.5462 201.61Z" fill="#00394C"/>
<path d="M35.4093 240.085L23.25 252.749C20.6519 255.453 20.7217 259.777 23.4011 262.399C26.0806 265.021 30.3643 264.95 32.9624 262.246L45.1217 249.576L59.2107 225.831C59.4606 225.408 58.9782 224.927 58.5597 225.191L35.4093 240.079L35.4093 240.085Z" fill="#00394C"/>
<path d="M81.9483 155.674L81.6751 138.047C81.617 134.281 78.5423 131.272 74.8108 131.331C71.0793 131.39 68.0976 134.493 68.1557 138.259L68.4289 155.897L75.1189 182.728C75.2409 183.209 75.9152 183.197 76.0256 182.716L81.9483 155.663L81.9483 155.674Z" fill="#00394C"/>
<path d="M43.8255 166.655L31.4336 154.537C28.76 151.92 24.4415 151.791 21.8027 154.443C19.1116 157.141 19.1523 161.529 21.8666 164.18L34.4212 176.457L57.961 190.659C58.3794 190.911 58.856 190.418 58.5887 190.002L43.8313 166.655L43.8255 166.655Z" fill="#00394C"/>
<path d="M77.3219 283.886C81.0417 283.757 83.9014 280.489 83.8433 276.735L83.5701 259.331L76.9615 232.477C76.8453 231.996 76.1652 232.002 76.0548 232.489L70.0507 259.531L70.3297 277.181C70.3878 280.994 73.5323 284.021 77.3219 283.892L77.3219 283.886Z" fill="#00394C"/>
<path d="M77.3101 229.826L78.4784 225.139L80.937 229.286C81.5182 230.266 83.0062 229.838 82.9887 228.694L82.9132 223.866L86.3483 227.227C87.162 228.019 88.4872 227.216 88.1791 226.119L86.8656 221.473L91.0504 223.825C92.0385 224.382 93.1138 223.256 92.5325 222.277L90.0739 218.129L94.718 219.308C95.8165 219.584 96.5663 218.223 95.7525 217.426L92.3117 214.064L97.0952 213.988C98.2228 213.97 98.6006 212.457 97.6125 211.9L93.4276 209.548L98.031 208.222C99.1179 207.911 99.0946 206.345 97.9961 206.069L93.3579 204.896L97.4672 202.415C98.4378 201.828 98.0135 200.326 96.8801 200.344L92.0908 200.42L95.4212 196.948C96.2059 196.126 95.4096 194.789 94.3227 195.1L89.7194 196.426L92.0443 192.208C92.5965 191.211 91.4805 190.126 90.5099 190.712L86.4006 193.193L87.5688 188.507C87.842 187.398 86.4936 186.641 85.7031 187.462L82.3726 190.929L82.2971 186.096C82.2797 184.958 80.7801 184.576 80.2279 185.574L77.8972 189.797L76.5836 185.145C76.2756 184.049 74.7237 184.072 74.4505 185.181L73.2822 189.867L70.8236 185.726C70.2424 184.747 68.7544 185.175 68.7719 186.319L68.8474 191.152L65.4066 187.791C64.5928 186.999 63.2676 187.803 63.5757 188.9L64.8893 193.545L60.7044 191.193C59.7163 190.636 58.6411 191.762 59.2223 192.742L61.6809 196.889L57.0369 195.71C55.9383 195.434 55.1885 196.795 56.0023 197.593L59.4432 200.954L54.6538 201.03C53.5262 201.048 53.1484 202.561 54.1365 203.119L58.3214 205.471L53.718 206.796C52.6311 207.107 52.6544 208.674 53.7529 208.949L58.4027 210.128L54.2935 212.61C53.3228 213.196 53.7471 214.698 54.8805 214.68L59.664 214.604L56.3336 218.071C55.5489 218.892 56.3452 220.229 57.4321 219.919L62.0354 218.593L59.7047 222.816C59.1525 223.813 60.2685 224.899 61.2392 224.312L65.3426 221.831L64.1744 226.518C63.9012 227.626 65.2496 228.383 66.0401 227.562L69.3764 224.089L69.4519 228.923C69.4694 230.061 70.9689 230.442 71.5211 229.445L73.846 225.227L75.1596 229.873C75.4676 230.97 77.0195 230.946 77.2927 229.838L77.3101 229.826ZM75.4095 222.505L74.7731 220.247C74.6841 219.931 74.2611 219.881 74.1028 220.168L72.9684 222.224C72.6022 222.893 71.5908 222.634 71.5792 221.872L71.5412 219.516C71.5359 219.188 71.1403 219.03 70.9139 219.266L69.2892 220.957C68.7603 221.508 67.8535 220.998 68.0395 220.253L68.6085 217.973C68.688 217.654 68.346 217.398 68.0667 217.567L66.0692 218.775C65.4182 219.168 64.6742 218.44 65.0404 217.772L66.175 215.716C66.3333 215.429 66.069 215.092 65.7561 215.182L63.5176 215.824C62.791 216.035 62.2563 215.132 62.7852 214.586L64.4045 212.897C64.6306 212.661 64.4613 212.267 64.136 212.272L61.8088 212.31C61.0532 212.322 60.7684 211.313 61.4193 210.92L63.4193 209.711C63.6982 209.542 63.6361 209.117 63.3208 209.037L61.059 208.462C60.3208 208.275 60.3092 207.225 61.0357 207.019L63.2738 206.377C63.5868 206.287 63.6359 205.86 63.3516 205.701L61.3147 204.556C60.6521 204.186 60.9079 203.166 61.6635 203.154L63.9973 203.115C64.3224 203.11 64.479 202.711 64.2456 202.482L62.5702 200.843C62.0238 200.309 62.5295 199.394 63.2676 199.581L65.5267 200.156C65.8424 200.236 66.0965 199.891 65.9292 199.609L64.7323 197.593C64.3429 196.936 65.0636 196.185 65.7262 196.555L67.7635 197.7C68.0478 197.86 68.3815 197.593 68.2925 197.277L67.6559 195.018C67.4467 194.284 68.3418 193.745 68.8823 194.279L70.5561 195.917C70.7897 196.145 71.1807 195.975 71.1754 195.646L71.1375 193.293C71.1259 192.531 72.1256 192.243 72.515 192.9L73.7133 194.919C73.8804 195.2 74.3013 195.137 74.3807 194.819L74.9504 192.536C75.1363 191.792 76.1767 191.78 76.3802 192.513L77.0218 194.779C77.1111 195.095 77.5338 195.144 77.692 194.857L78.8272 192.8C79.1933 192.132 80.2047 192.39 80.2163 193.152L80.2542 195.506C80.2595 195.834 80.6556 195.992 80.8819 195.756L82.5005 194.067C83.0294 193.516 83.9362 194.026 83.7502 194.771L83.1812 197.051C83.1017 197.37 83.4437 197.626 83.723 197.457L85.7205 196.25C86.3715 195.857 87.1155 196.584 86.7493 197.253L85.6144 199.309C85.4561 199.596 85.7203 199.933 86.0331 199.843L88.2779 199.2C89.0045 198.989 89.5392 199.892 89.0103 200.438L87.3871 202.127C87.1605 202.363 87.3298 202.757 87.6552 202.752L89.9868 202.714C90.7423 202.702 91.0272 203.711 90.3762 204.104L88.3781 205.312C88.0989 205.481 88.1615 205.906 88.4772 205.986L90.7365 206.556C91.4747 206.744 91.4863 207.794 90.7598 207.999L88.5166 208.642C88.2035 208.731 88.1543 209.158 88.4386 209.318L90.475 210.463C91.1376 210.832 90.8818 211.853 90.1262 211.865L87.7982 211.903C87.4731 211.908 87.3165 212.308 87.5499 212.536L89.2253 214.176C89.7717 214.71 89.266 215.625 88.5279 215.437L86.2688 214.863C85.9531 214.782 85.699 215.128 85.8663 215.41L87.0632 217.426C87.4526 218.082 86.7319 218.833 86.0693 218.464L84.0314 217.318C83.7473 217.159 83.4136 217.425 83.5024 217.741L84.1396 220.007C84.3488 220.74 83.4537 221.279 82.9132 220.746L81.2391 219.111C81.0053 218.883 80.6148 219.054 80.6201 219.382L80.658 221.737C80.6696 222.5 79.6699 222.787 79.2805 222.13L78.0821 220.107C77.9152 219.825 77.494 219.888 77.4145 220.206L76.8452 222.488C76.6592 223.233 75.6188 223.245 75.4153 222.511L75.4095 222.505Z" fill="#00394C"/>
</svg>
