<svg width="229" height="465" viewBox="0 0 229 465" fill="none" xmlns="http://www.w3.org/2000/svg">
<ellipse cx="114.445" cy="6.80487" rx="6.76154" ry="6.76154" transform="rotate(-180 114.445 6.80487)" fill="#E681FF"/>
<path fill-rule="evenodd" clip-rule="evenodd" d="M137.932 164.864C137.566 167.721 135.653 170.144 132.958 171.162L126.689 173.532C123.994 174.551 120.957 174 118.792 172.099L112.103 166.227C110.449 164.776 109.625 162.596 109.905 160.414C110.185 158.231 109.361 156.052 107.708 154.6C106.054 153.148 105.23 150.969 105.509 148.786L106.641 139.958C107.007 137.1 108.92 134.677 111.615 133.658L117.884 131.289C120.579 130.27 123.616 130.821 125.781 132.722L132.471 138.595C134.125 140.047 134.948 142.226 134.668 144.408C134.389 146.591 135.212 148.77 136.866 150.222C138.52 151.673 139.344 153.853 139.064 156.036L137.932 164.864ZM109.507 172.544C107.227 174.306 104.162 174.666 101.536 173.481L95.4269 170.723C92.801 169.538 91.0432 167.001 90.8562 164.126L90.2784 155.244C90.1356 153.048 91.0944 150.924 92.8359 149.579C94.5767 148.234 95.5353 146.111 95.3926 143.915C95.25 141.72 96.2079 139.598 97.9485 138.253L104.992 132.809C107.272 131.047 110.338 130.687 112.964 131.872L119.072 134.629C121.698 135.815 123.456 138.352 123.643 141.227L124.22 150.111C124.363 152.306 123.404 154.43 121.663 155.775C119.922 157.12 118.964 159.243 119.107 161.438C119.25 163.634 118.292 165.756 116.551 167.101L109.507 172.544Z" fill="#E681FF"/>
<path fill-rule="evenodd" clip-rule="evenodd" d="M122.249 122.582C121.883 125.439 119.97 127.862 117.275 128.881L111.005 131.25C108.311 132.269 105.273 131.718 103.108 129.817L96.4193 123.945C94.7655 122.494 93.9418 120.315 94.2217 118.132C94.5016 115.949 93.6778 113.77 92.0242 112.318C90.3704 110.866 89.5463 108.687 89.8261 106.504L90.9574 97.6757C91.3236 94.8178 93.2367 92.3952 95.9318 91.3764L102.201 89.0068C104.896 87.988 107.933 88.5393 110.098 90.4401L116.788 96.3135C118.441 97.7652 119.265 99.9439 118.985 102.126C118.705 104.309 119.529 106.488 121.183 107.94C122.837 109.392 123.661 111.571 123.381 113.754L122.249 122.582ZM123.896 129.725C121.616 131.487 118.551 131.847 115.925 130.662L109.816 127.904C107.19 126.719 105.432 124.182 105.245 121.307L104.668 112.425C104.525 110.229 105.483 108.106 107.225 106.76C108.966 105.415 109.924 103.292 109.781 101.097C109.639 98.9014 110.597 96.7788 112.337 95.4336L119.381 89.9902C121.661 88.2284 124.727 87.8681 127.353 89.0534L133.461 91.8105C136.087 92.9958 137.845 95.5332 138.032 98.4082L138.609 107.292C138.752 109.488 137.793 111.611 136.052 112.956C134.311 114.301 133.353 116.424 133.496 118.619C133.639 120.815 132.681 122.937 130.94 124.282L123.896 129.725Z" fill="#E681FF"/>
<path fill-rule="evenodd" clip-rule="evenodd" d="M99.9584 169.614C97.3922 170.923 94.3129 170.71 91.9514 169.06L86.4579 165.22C84.0965 163.57 82.8383 160.751 83.1862 157.891L84.2611 149.056C84.5268 146.871 85.8615 144.962 87.8217 143.961C89.7819 142.961 91.1165 141.052 91.3824 138.867C91.6483 136.683 92.9829 134.773 94.943 133.772L102.871 129.726C105.437 128.416 108.516 128.629 110.878 130.28L116.371 134.119C118.733 135.77 119.991 138.588 119.643 141.448L118.567 150.285C118.301 152.47 116.967 154.379 115.007 155.379C113.047 156.379 111.712 158.289 111.447 160.473C111.181 162.658 109.846 164.568 107.886 165.568L99.9584 169.614ZM77.5775 150.48C74.8369 149.592 72.8102 147.264 72.3074 144.427L71.1379 137.828C70.6352 134.991 71.7384 132.108 74.0067 130.332L81.0136 124.845C82.7468 123.488 85.0421 123.081 87.1362 123.76C89.2291 124.439 91.5232 124.033 93.2555 122.676C94.9877 121.32 97.2808 120.914 99.3736 121.592L107.842 124.337C110.582 125.225 112.609 127.554 113.112 130.391L114.282 136.99C114.784 139.826 113.681 142.709 111.412 144.485L104.404 149.973C102.671 151.33 100.376 151.736 98.2821 151.057C96.1893 150.379 93.8953 150.785 92.1631 152.141C90.431 153.498 88.1378 153.904 86.045 153.226L77.5775 150.48Z" fill="#E681FF"/>
<path fill-rule="evenodd" clip-rule="evenodd" d="M126.021 132.816C123.455 134.125 120.375 133.912 118.014 132.262L112.52 128.422C110.159 126.772 108.901 123.954 109.249 121.094L110.324 112.258C110.589 110.074 111.924 108.164 113.884 107.164C115.844 106.163 117.179 104.254 117.445 102.069C117.711 99.8849 119.045 97.9752 121.005 96.9748L128.933 92.9285C131.499 91.6186 134.579 91.8316 136.941 93.4821L142.434 97.3213C144.795 98.9718 146.053 101.791 145.705 104.651L144.63 113.488C144.364 115.672 143.029 117.581 141.069 118.581C139.109 119.582 137.775 121.491 137.509 123.676C137.243 125.86 135.909 127.77 133.948 128.77L126.021 132.816ZM121.047 138.208C118.307 137.32 116.28 134.991 115.777 132.155L114.608 125.555C114.105 122.718 115.208 119.836 117.477 118.059L124.485 112.572C126.217 111.215 128.511 110.808 130.604 111.487C132.697 112.166 134.991 111.759 136.723 110.403C138.456 109.046 140.751 108.639 142.845 109.317L151.311 112.062C154.052 112.95 156.079 115.278 156.582 118.115L157.751 124.714C158.254 127.551 157.15 130.434 154.882 132.21L147.872 137.699C146.14 139.055 143.847 139.462 141.754 138.783C139.661 138.104 137.367 138.511 135.635 139.868C133.902 141.225 131.607 141.632 129.513 140.953L121.047 138.208Z" fill="#E681FF"/>
<path fill-rule="evenodd" clip-rule="evenodd" d="M73.7551 136.218C71.4048 134.551 70.1654 131.724 70.5326 128.867L71.3867 122.219C71.7538 119.362 73.6674 116.94 76.3625 115.922L84.6889 112.777C86.7476 111.999 89.0583 112.296 90.8536 113.569C92.6488 114.842 94.9596 115.138 97.0183 114.361C99.0772 113.583 101.388 113.88 103.184 115.153L110.445 120.3C112.795 121.966 114.035 124.793 113.668 127.651L112.814 134.298C112.447 137.156 110.533 139.578 107.838 140.595L99.5095 143.741C97.451 144.518 95.1407 144.221 93.3456 142.949C91.5504 141.676 89.2397 141.379 87.1811 142.157C85.1222 142.935 82.8111 142.638 81.0157 141.365L73.7551 136.218ZM80.3273 107.522C79.8436 104.681 80.9662 101.806 83.2464 100.045L88.551 95.9484C90.8311 94.1875 93.8968 93.8281 96.5223 95.014L104.634 98.6779C106.64 99.5836 108.064 101.427 108.433 103.596C108.802 105.765 110.226 107.609 112.231 108.515C114.237 109.421 115.661 111.265 116.031 113.434L117.526 122.208C118.01 125.049 116.887 127.924 114.607 129.685L109.303 133.782C107.023 135.543 103.957 135.902 101.331 134.716L93.2177 131.051C91.2127 130.145 89.7892 128.302 89.4198 126.133C89.0504 123.964 87.6264 122.12 85.6212 121.215C83.6155 120.309 82.1912 118.465 81.8217 116.296L80.3273 107.522Z" fill="#E681FF"/>
<path fill-rule="evenodd" clip-rule="evenodd" d="M118.445 142.242C116.095 140.576 114.856 137.749 115.223 134.892L116.077 128.244C116.444 125.386 118.358 122.965 121.053 121.947L129.379 118.801C131.438 118.024 133.749 118.321 135.544 119.593C137.339 120.866 139.65 121.163 141.709 120.385C143.768 119.608 146.079 119.905 147.874 121.177L155.135 126.324C157.486 127.991 158.725 130.818 158.358 133.675L157.504 140.323C157.137 143.18 155.223 145.602 152.528 146.62L144.2 149.765C142.141 150.543 139.831 150.246 138.036 148.973C136.241 147.701 133.93 147.404 131.871 148.182C129.813 148.959 127.502 148.662 125.706 147.39L118.445 142.242ZM111.36 140.338C110.877 137.498 111.999 134.623 114.279 132.862L119.584 128.765C121.864 127.004 124.93 126.645 127.555 127.831L135.667 131.495C137.673 132.4 139.096 134.244 139.466 136.413C139.835 138.582 141.259 140.426 143.264 141.332C145.27 142.238 146.695 144.082 147.064 146.251L148.559 155.025C149.043 157.865 147.92 160.741 145.64 162.502L140.336 166.598C138.056 168.359 134.99 168.719 132.364 167.533L124.251 163.868C122.246 162.962 120.823 161.119 120.453 158.95C120.084 156.781 118.66 154.937 116.654 154.032C114.649 153.126 113.224 151.282 112.855 149.112L111.36 140.338Z" fill="#E681FF"/>
<path d="M108.279 64.3251C108.278 64.3309 108.28 64.3367 108.285 64.3403L110.87 66.3092C111.919 67.1079 113.323 67.2628 114.521 66.712L117.636 65.2795C117.642 65.2765 117.65 65.2792 117.653 65.2857C117.656 65.2902 117.66 65.293 117.665 65.2932L120.916 65.3664C122.234 65.3961 123.46 64.6965 124.105 63.5474L125.782 60.5598C125.786 60.5526 125.795 60.5499 125.802 60.5537C125.807 60.5563 125.813 60.5559 125.818 60.5527L128.49 58.7018C129.574 57.9512 130.155 56.6641 130.001 55.355L129.601 51.9521C129.6 51.9435 129.606 51.9357 129.615 51.9343C129.621 51.9334 129.626 51.9294 129.628 51.9238L130.701 48.8562C131.137 47.6121 130.85 46.2292 129.956 45.2605L127.632 42.7412C127.627 42.7355 127.627 42.7266 127.632 42.7212C127.636 42.7175 127.637 42.7119 127.636 42.7069L126.701 39.5932C126.322 38.3309 125.278 37.3806 123.985 37.1222L120.625 36.4505C120.617 36.4489 120.612 36.4413 120.613 36.4333C120.614 36.4278 120.612 36.4223 120.607 36.4189L118.021 34.4497C116.973 33.651 115.569 33.4961 114.371 34.0469L111.257 35.4791C111.249 35.4825 111.241 35.4794 111.237 35.4723C111.235 35.4673 111.23 35.4642 111.224 35.464L107.974 35.3909C106.656 35.3612 105.43 36.061 104.785 37.2104L103.107 40.1994C103.104 40.2062 103.095 40.2088 103.088 40.2052C103.083 40.2027 103.077 40.2031 103.073 40.2062L100.4 42.0577C99.317 42.808 98.7362 44.0946 98.8899 45.4032L99.2894 48.8053C99.2903 48.8135 99.2846 48.8211 99.2764 48.8223C99.2708 48.8232 99.2661 48.8271 99.2642 48.8324L98.1906 51.9C97.7551 53.1444 98.0416 54.5274 98.9357 55.4963L101.26 58.0155C101.266 58.0214 101.265 58.0305 101.26 58.0362C101.256 58.04 101.254 58.0457 101.256 58.051L102.191 61.1645C102.57 62.427 103.614 63.3773 104.907 63.6356L108.266 64.3069C108.275 64.3086 108.28 64.3166 108.279 64.3251Z" fill="#E681FF"/>
<path fill-rule="evenodd" clip-rule="evenodd" d="M113.487 409.739C113.464 409.722 113.453 409.694 113.458 409.666C113.464 409.626 113.438 409.588 113.398 409.58L96.2613 406.155C89.6704 404.838 84.3439 399.992 82.4115 393.555L77.6465 377.682C77.6382 377.654 77.6459 377.624 77.6664 377.604C77.6962 377.574 77.6973 377.526 77.6688 377.495L65.8194 364.654C61.2618 359.715 59.8011 352.664 62.0212 346.321L67.4964 330.677C67.5059 330.65 67.5295 330.63 67.5579 330.626C67.5992 330.62 67.6281 330.582 67.6232 330.54L65.5853 313.186C64.8015 306.511 67.7641 299.948 73.2888 296.121L86.9111 286.684C86.9352 286.668 86.9665 286.666 86.9925 286.679C87.0304 286.699 87.077 286.685 87.0979 286.647L95.6473 271.412C98.9359 265.552 105.19 261.984 111.908 262.135L128.48 262.509C128.508 262.509 128.534 262.525 128.546 262.55C128.565 262.587 128.608 262.602 128.645 262.585L144.523 255.283C150.63 252.475 157.787 253.265 163.134 257.337L176.319 267.378C176.342 267.395 176.353 267.424 176.349 267.452C176.342 267.493 176.369 267.533 176.41 267.541L193.544 270.966C200.134 272.283 205.46 277.129 207.392 283.565L212.158 299.44C212.166 299.466 212.159 299.496 212.139 299.515C212.11 299.544 212.109 299.591 212.136 299.621L223.987 312.464C228.544 317.404 230.005 324.455 227.785 330.799L222.31 346.442C222.3 346.469 222.277 346.489 222.248 346.493C222.207 346.5 222.178 346.538 222.183 346.579L224.221 363.933C225.004 370.608 222.042 377.171 216.517 380.997L202.892 390.435C202.868 390.451 202.838 390.453 202.812 390.44C202.775 390.421 202.729 390.435 202.708 390.471L194.157 405.707C190.868 411.567 184.614 415.135 177.895 414.984L161.325 414.61C161.297 414.61 161.271 414.594 161.259 414.569C161.24 414.532 161.196 414.517 161.159 414.534L145.283 421.835C139.177 424.643 132.02 423.853 126.673 419.781L113.487 409.739ZM105.339 378.354C105.328 378.337 105.328 378.315 105.338 378.298C105.353 378.272 105.345 378.239 105.32 378.224L94.6698 371.485C90.5738 368.894 88.2418 364.254 88.6062 359.42L89.505 347.5C89.5065 347.48 89.5192 347.462 89.538 347.454C89.5653 347.442 89.5783 347.41 89.5672 347.383L84.912 335.671C83.1215 331.167 83.9622 326.043 87.0979 322.347L94.8309 313.232C94.8443 313.216 94.8654 313.209 94.8856 313.213C94.9151 313.219 94.9444 313.201 94.9519 313.172L98.0695 300.963C99.2686 296.266 102.961 292.615 107.67 291.468L119.283 288.639C119.303 288.634 119.324 288.64 119.338 288.656C119.358 288.679 119.393 288.681 119.416 288.662L129.115 280.616C132.845 277.521 137.979 276.737 142.463 278.577L153.524 283.116C153.542 283.123 153.554 283.14 153.556 283.159C153.559 283.187 153.583 283.208 153.611 283.206L166.191 282.398C171.028 282.087 175.642 284.47 178.188 288.595L184.466 298.765C184.478 298.783 184.478 298.806 184.467 298.824C184.452 298.851 184.46 298.885 184.486 298.902L195.136 305.641C199.232 308.233 201.564 312.874 201.2 317.708L200.301 329.625C200.3 329.646 200.287 329.664 200.268 329.672C200.241 329.684 200.228 329.716 200.239 329.744L204.893 341.455C206.684 345.959 205.843 351.083 202.707 354.78L194.974 363.895C194.961 363.91 194.94 363.918 194.92 363.913C194.89 363.907 194.861 363.925 194.854 363.954L191.736 376.162C190.538 380.858 186.846 384.509 182.137 385.656L170.522 388.485C170.502 388.49 170.481 388.483 170.467 388.468C170.447 388.445 170.413 388.443 170.39 388.462L160.69 396.507C156.959 399.602 151.825 400.386 147.341 398.546L136.283 394.008C136.264 394 136.251 393.983 136.249 393.963C136.247 393.934 136.221 393.913 136.193 393.915L123.615 394.723C118.778 395.034 114.164 392.65 111.618 388.526L105.339 378.354ZM52.5709 409.739C52.5485 409.722 52.5374 409.694 52.5419 409.667C52.5485 409.626 52.5219 409.588 52.4817 409.58L35.3455 406.155C28.7545 404.838 23.4279 399.992 21.4954 393.555L16.7306 377.682C16.7222 377.654 16.7299 377.624 16.7504 377.604C16.7803 377.574 16.7814 377.526 16.7528 377.495L4.90389 364.654C0.346276 359.715 -1.11449 352.664 1.10565 346.321L6.58074 330.677C6.59022 330.65 6.61387 330.63 6.64222 330.626C6.68353 330.62 6.71241 330.582 6.70753 330.54L4.66969 313.186C3.88587 306.511 6.84848 299.948 12.3731 296.121L25.9954 286.684C26.0195 286.668 26.0509 286.666 26.0769 286.679C26.1149 286.699 26.1616 286.685 26.1825 286.647L34.732 271.412C38.0206 265.552 44.2741 261.984 50.9923 262.135L67.5652 262.509C67.593 262.509 67.6183 262.525 67.6308 262.55C67.649 262.586 67.6927 262.602 67.7295 262.585L83.6075 255.283C89.7133 252.475 96.8701 253.265 102.217 257.336L115.403 267.378C115.425 267.396 115.437 267.424 115.432 267.452C115.425 267.493 115.453 267.532 115.493 267.541L132.628 270.966C139.219 272.283 144.544 277.129 146.477 283.566L151.242 299.44C151.25 299.466 151.243 299.496 151.223 299.515C151.194 299.544 151.193 299.591 151.221 299.621L163.071 312.464C167.629 317.404 169.089 324.455 166.869 330.799L161.394 346.442C161.385 346.469 161.361 346.489 161.333 346.493C161.291 346.5 161.262 346.538 161.267 346.579L163.305 363.933C164.089 370.608 161.126 377.171 155.601 380.998L141.976 390.435C141.953 390.452 141.922 390.454 141.897 390.44C141.86 390.421 141.814 390.435 141.794 390.471L133.242 405.707C129.953 411.567 123.699 415.135 116.981 414.984L100.41 414.61C100.382 414.61 100.357 414.594 100.344 414.569C100.326 414.532 100.281 414.516 100.244 414.534L84.3676 421.835C78.2613 424.643 71.1039 423.853 65.7568 419.781L52.5709 409.739ZM44.4233 378.354C44.4127 378.337 44.4124 378.315 44.4226 378.297C44.4375 378.272 44.4295 378.239 44.4047 378.224L33.7543 371.485C29.658 368.894 27.3259 364.253 27.6903 359.42L28.589 347.501C28.5906 347.48 28.6037 347.462 28.623 347.453C28.6511 347.441 28.6644 347.409 28.653 347.38L23.9977 335.669C22.207 331.164 23.0478 326.039 26.1839 322.342L33.9161 313.228C33.9296 313.212 33.9508 313.205 33.9711 313.209C34.0008 313.216 34.0302 313.197 34.0377 313.168L37.1549 300.96C38.3538 296.265 42.0454 292.614 46.7539 291.467L58.3678 288.637C58.3881 288.633 58.4093 288.639 58.4232 288.655C58.4433 288.677 58.4778 288.68 58.5011 288.661L68.1998 280.614C71.9301 277.52 77.0633 276.736 81.5472 278.576L92.6074 283.114C92.6259 283.122 92.6387 283.139 92.6407 283.159C92.6436 283.188 92.6689 283.21 92.698 283.208L105.277 282.4C110.114 282.089 114.728 284.473 117.274 288.597L123.553 298.768C123.564 298.786 123.564 298.808 123.554 298.825C123.539 298.851 123.547 298.884 123.572 298.9L134.222 305.639C138.317 308.231 140.649 312.87 140.285 317.704L139.386 329.622C139.385 329.643 139.372 329.661 139.353 329.669C139.326 329.681 139.312 329.713 139.324 329.741L143.979 341.454C145.769 345.959 144.928 351.084 141.792 354.781L134.06 363.895C134.047 363.911 134.025 363.918 134.005 363.913C133.975 363.907 133.946 363.925 133.938 363.954L130.821 376.162C129.622 380.858 125.931 384.509 121.222 385.656L109.607 388.485C109.587 388.489 109.566 388.483 109.552 388.467C109.532 388.445 109.498 388.442 109.474 388.462L99.7746 396.507C96.0438 399.602 90.9101 400.386 86.4258 398.545L75.3673 394.007C75.3489 394 75.3361 393.983 75.3342 393.963C75.3313 393.934 75.3061 393.913 75.2773 393.915L62.6999 394.723C57.8627 395.033 53.2488 392.65 50.7026 388.526L44.4233 378.354ZM52.572 352.267C52.549 352.249 52.5375 352.22 52.5422 352.192C52.549 352.15 52.5215 352.11 52.4801 352.102L35.3463 348.678C28.7555 347.361 23.429 342.516 21.4966 336.078L16.7314 320.204C16.7233 320.177 16.7308 320.147 16.751 320.127C16.7804 320.098 16.7815 320.051 16.7534 320.02L4.90376 307.179C0.34637 302.24 -1.11431 295.189 1.10569 288.846L6.58108 273.202C6.59051 273.175 6.61404 273.155 6.64225 273.151C6.68336 273.145 6.71209 273.107 6.70726 273.066L4.66955 255.713C3.88582 249.038 6.8481 242.476 12.3722 238.65L25.9957 229.212C26.0196 229.196 26.0507 229.194 26.0766 229.207C26.1143 229.226 26.1606 229.212 26.1813 229.175L34.7317 213.939C38.0205 208.078 44.2744 204.51 50.9931 204.662L67.5651 205.035C67.593 205.035 67.6183 205.051 67.6308 205.076C67.6491 205.113 67.6928 205.128 67.7298 205.111L83.6073 197.809C89.7132 195.001 96.8702 195.791 102.217 199.863L115.403 209.905C115.426 209.922 115.437 209.95 115.432 209.978C115.426 210.019 115.452 210.058 115.493 210.066L132.628 213.491C139.219 214.809 144.544 219.655 146.477 226.092L151.242 241.965C151.25 241.992 151.243 242.021 151.223 242.041C151.194 242.07 151.193 242.116 151.221 242.146L163.07 254.989C167.628 259.929 169.089 266.98 166.868 273.323L161.393 288.967C161.384 288.994 161.36 289.013 161.332 289.018C161.291 289.024 161.263 289.062 161.267 289.103L163.305 306.456C164.089 313.131 161.126 319.693 155.602 323.52L141.976 332.958C141.953 332.974 141.923 332.976 141.898 332.963C141.862 332.945 141.817 332.958 141.797 332.994L133.243 348.234C129.953 354.095 123.698 357.663 116.979 357.512L100.411 357.138C100.382 357.138 100.357 357.122 100.344 357.096C100.325 357.059 100.281 357.043 100.243 357.061L84.3673 364.361C78.2612 367.169 71.104 366.38 65.7571 362.308L52.572 352.267ZM44.4232 320.874C44.4126 320.857 44.4124 320.835 44.4225 320.818C44.4373 320.793 44.4294 320.76 44.4046 320.745L33.7542 314.006C29.658 311.415 27.3258 306.774 27.6903 301.941L28.589 290.022C28.5906 290.001 28.6036 289.983 28.623 289.974C28.6512 289.962 28.6645 289.929 28.6531 289.901L23.9977 278.189C22.207 273.684 23.0478 268.559 26.1839 264.862L33.916 255.748C33.9295 255.732 33.9508 255.725 33.9713 255.73C34.0011 255.736 34.0308 255.718 34.0383 255.688L37.1556 243.48C38.3547 238.784 42.0467 235.133 46.7557 233.985L58.3687 231.157C58.389 231.152 58.4103 231.158 58.4242 231.174C58.4445 231.197 58.479 231.199 58.5025 231.18L68.1999 223.135C71.9299 220.04 77.0629 219.256 81.5465 221.096L92.6077 225.635C92.6259 225.643 92.6384 225.66 92.6404 225.679C92.6432 225.707 92.668 225.729 92.6965 225.727L105.277 224.919C110.114 224.608 114.728 226.991 117.274 231.116L123.552 241.286C123.564 241.304 123.564 241.327 123.553 241.345C123.538 241.372 123.546 241.406 123.572 241.423L134.221 248.162C138.317 250.754 140.649 255.394 140.285 260.228L139.387 272.146C139.385 272.166 139.372 272.184 139.354 272.192C139.327 272.204 139.314 272.236 139.325 272.263L143.979 283.974C145.769 288.478 144.929 293.603 141.793 297.299L134.06 306.414C134.046 306.43 134.025 306.437 134.005 306.432C133.976 306.426 133.946 306.444 133.939 306.473L130.821 318.683C129.622 323.379 125.93 327.03 121.222 328.177L109.607 331.006C109.587 331.01 109.566 331.004 109.552 330.988C109.532 330.966 109.498 330.963 109.474 330.983L99.7756 339.027C96.0452 342.121 90.9121 342.905 86.4283 341.065L75.3686 336.527C75.3504 336.519 75.3378 336.502 75.3359 336.483C75.333 336.454 75.3081 336.433 75.2796 336.435L62.7003 337.243C57.8629 337.554 53.2487 335.17 50.7023 331.046L44.4232 320.874ZM113.408 352.267C113.385 352.249 113.373 352.22 113.378 352.192C113.385 352.15 113.358 352.11 113.316 352.102L96.1824 348.678C89.5915 347.361 84.265 342.515 82.3326 336.078L77.5674 320.204C77.5593 320.177 77.5668 320.147 77.5869 320.127C77.6163 320.098 77.6174 320.051 77.5894 320.021L65.7398 307.179C61.1822 302.24 59.7215 295.189 61.9416 288.846L67.4168 273.202C67.4263 273.175 67.4498 273.155 67.4781 273.151C67.5193 273.145 67.5481 273.107 67.5433 273.065L65.5056 255.713C64.7218 249.038 67.6841 242.476 73.2081 238.65L86.8318 229.212C86.8557 229.196 86.8867 229.194 86.9126 229.207C86.9502 229.226 86.9964 229.212 87.0171 229.176L95.5675 213.939C98.8563 208.078 105.11 204.51 111.829 204.662L128.4 205.035C128.429 205.035 128.454 205.051 128.467 205.077C128.485 205.113 128.529 205.129 128.567 205.112L144.444 197.81C150.55 195.002 157.707 195.792 163.054 199.864L176.24 209.906C176.263 209.923 176.274 209.951 176.269 209.979C176.263 210.019 176.289 210.058 176.33 210.066L193.465 213.492C200.055 214.809 205.381 219.654 207.313 226.091L212.078 241.965C212.087 241.992 212.079 242.021 212.059 242.041C212.03 242.07 212.029 242.116 212.057 242.146L223.907 254.989C228.464 259.929 229.925 266.98 227.704 273.323L222.229 288.967C222.22 288.994 222.196 289.013 222.168 289.018C222.127 289.024 222.098 289.062 222.103 289.103L224.141 306.457C224.925 313.131 221.962 319.693 216.438 323.52L202.812 332.958C202.789 332.974 202.759 332.976 202.733 332.963C202.697 332.944 202.652 332.958 202.632 332.994L194.078 348.233C190.788 354.095 184.533 357.663 177.813 357.512L161.246 357.138C161.217 357.138 161.192 357.122 161.179 357.096C161.16 357.059 161.116 357.044 161.078 357.061L145.203 364.361C139.097 367.169 131.94 366.38 126.593 362.308L113.408 352.267ZM105.259 320.875C105.249 320.857 105.248 320.836 105.259 320.818C105.273 320.793 105.265 320.76 105.241 320.745L94.5905 314.006C90.4945 311.415 88.1625 306.775 88.527 301.942L89.4257 290.022C89.4273 290.001 89.4401 289.983 89.4591 289.975C89.4868 289.963 89.4998 289.931 89.4887 289.903L84.8328 278.19C83.042 273.685 83.8828 268.559 87.0192 264.862L94.7506 255.749C94.7643 255.733 94.7859 255.726 94.8066 255.73C94.8368 255.737 94.8668 255.718 94.8744 255.688L97.9916 243.48C99.1907 238.784 102.883 235.133 107.592 233.986L119.204 231.157C119.225 231.152 119.246 231.159 119.261 231.175C119.281 231.198 119.316 231.2 119.34 231.181L129.037 223.136C132.768 220.041 137.901 219.257 142.384 221.097L153.445 225.636C153.464 225.644 153.476 225.66 153.478 225.68C153.481 225.708 153.506 225.729 153.534 225.727L166.113 224.92C170.95 224.609 175.564 226.992 178.11 231.116L184.389 241.287C184.4 241.305 184.4 241.328 184.389 241.346C184.374 241.373 184.382 241.407 184.408 241.423L195.057 248.162C199.153 250.754 201.485 255.394 201.121 260.228L200.222 272.147C200.221 272.167 200.208 272.184 200.19 272.193C200.163 272.204 200.15 272.236 200.161 272.263L204.815 283.974C206.605 288.478 205.765 293.603 202.629 297.298L194.896 306.414C194.882 306.43 194.862 306.437 194.841 306.432C194.812 306.426 194.783 306.444 194.775 306.473L191.658 318.683C190.458 323.38 186.766 327.031 182.057 328.178L170.443 331.007C170.423 331.012 170.401 331.005 170.388 330.989C170.367 330.967 170.333 330.964 170.309 330.984L160.611 339.028C156.88 342.122 151.747 342.906 147.263 341.066L136.204 336.528C136.186 336.52 136.173 336.503 136.171 336.484C136.168 336.455 136.143 336.434 136.114 336.436L123.536 337.243C118.699 337.554 114.085 335.171 111.538 331.046L105.259 320.875Z" fill="#E681FF"/>
</svg>
