<svg width="679" height="1373" viewBox="0 0 679 1373" fill="none" xmlns="http://www.w3.org/2000/svg">
<ellipse cx="339.409" cy="20.4584" rx="19.9936" ry="19.9936" transform="rotate(-180 339.409 20.4584)" fill="#FFFBF3"/>
<path fill-rule="evenodd" clip-rule="evenodd" d="M449.239 339.631C467.024 335.31 475.536 360.577 458.757 367.894L437.885 380.601C464.6 394.718 482.503 414.244 440.49 437.427C432.085 442.065 430.12 453.281 436.486 460.471C448.625 474.168 430.275 493.512 415.959 482.105L395.482 469.911C396.595 500.067 388.612 525.261 347.568 500.492C339.349 495.532 328.652 499.438 325.609 508.547C319.816 525.908 293.89 519.688 296.61 501.587L296.932 477.76C271.372 493.803 245.561 499.488 246.489 451.557C246.675 441.959 237.944 434.649 228.534 436.568C210.603 440.232 203.026 414.669 220.062 407.974L240.938 396.295C215.294 383.24 199.318 364.842 239.03 340.982C247.259 336.038 248.81 324.756 242.184 317.806C229.549 304.564 247.175 284.559 261.901 295.432L283.421 307.197C281.883 278.42 289.804 255.316 330.364 277.801C338.76 282.455 349.306 278.158 352.012 268.944C357.162 251.382 383.3 256.644 381.247 274.833L381.818 299.354C405.97 283.635 429.937 278.944 430.745 325.312C430.912 334.91 439.907 341.894 449.239 339.631ZM376.16 372.066C382.138 370.614 384.999 379.107 379.36 381.566L372.344 385.837C381.324 390.582 387.341 397.145 373.22 404.937C370.394 406.496 369.734 410.266 371.874 412.683C375.954 417.287 369.786 423.788 364.974 419.954L358.092 415.855C358.466 425.991 355.783 434.46 341.987 426.134C339.224 424.467 335.629 425.78 334.606 428.842C332.659 434.677 323.945 432.586 324.859 426.502L324.967 418.494C316.376 423.886 307.701 425.797 308.013 409.687C308.075 406.461 305.14 404.004 301.978 404.648C295.951 405.88 293.404 397.288 299.13 395.038L306.147 391.112C297.527 386.724 292.157 380.54 305.506 372.52C308.271 370.858 308.793 367.067 306.565 364.731C302.319 360.28 308.243 353.556 313.193 357.21L320.426 361.165C319.909 351.492 322.571 343.727 336.204 351.284C339.027 352.849 342.571 351.404 343.481 348.307C345.212 342.404 353.997 344.173 353.307 350.286L353.499 358.528C361.617 353.245 369.673 351.668 369.944 367.253C370 370.479 373.024 372.827 376.16 372.066Z" fill="#FFFBF3"/>
<path fill-rule="evenodd" clip-rule="evenodd" d="M309.206 171.508C301.43 177.172 292.23 166.599 298.917 159.682L310.114 148.065C320.532 131.94 352.561 82.6849 363.09 119.376C364.482 124.227 366.82 129.726 371.25 127.307C379.691 122.691 387.452 134.36 379.93 140.359L363.852 157.765C363.659 158.042 363.465 158.321 363.269 158.601C349.098 178.932 330.108 206.175 317.884 177.939C315.879 173.308 313.288 168.538 309.206 171.508Z" fill="#FFFBF3"/>
<path fill-rule="evenodd" clip-rule="evenodd" d="M361.612 179.507C367.276 187.284 356.703 196.484 349.786 189.797L338.174 178.605C322.054 168.19 272.786 136.156 309.481 125.626C314.331 124.234 319.831 121.896 317.411 117.466C312.796 109.026 324.465 101.264 330.464 108.786L347.862 124.857C348.142 125.052 348.422 125.248 348.705 125.444C369.036 139.616 396.279 158.606 368.043 170.83C363.412 172.835 358.642 175.426 361.612 179.507Z" fill="#FFFBF3"/>
<path fill-rule="evenodd" clip-rule="evenodd" d="M614.852 1078.98L575.96 1060.16C610.029 1124.26 617.613 1184.07 527.383 1184.15C505.725 1184.18 489.637 1204.21 494.397 1225.34C503.483 1265.62 446.17 1283.88 430.289 1245.76L396.462 1164.59C374.231 1233.51 336.922 1281.75 275.354 1217.07C260.837 1201.82 235.937 1203.89 224.237 1221.39C201.933 1254.77 150.704 1226.6 166.928 1189.89L194.142 1128.33C137.639 1154.52 87.5693 1155.82 89.5248 1076.4C90.0172 1056.39 71.9403 1041.05 52.3512 1044.94C15.0194 1052.38 -0.454995 998.989 35.0481 985.217L99.417 960.24C22.1853 936.154 -39.4955 895.736 33.0592 831.313C48.8123 817.333 47.5999 792.376 30.5133 780.077C-2.06711 756.63 27.8549 706.408 63.9814 723.894L101.689 742.149C80.1324 690.063 84.841 646.537 160.719 646.464C181.769 646.443 197.405 626.976 192.779 606.433C183.948 567.285 239.653 549.534 255.088 586.585L283.209 654.068C305.268 582.891 342.837 531.26 405.68 597.278C420.197 612.537 445.098 610.461 456.797 592.958C479.102 559.585 530.33 587.748 514.107 624.459L496.621 664.016C544.899 643.842 584.942 649.812 587.779 722.298C588.602 743.332 608.652 758.215 629.003 752.809C667.768 742.492 687.629 797.46 651.213 814.297L585.614 844.618C659.87 868.917 716.377 908.876 645.774 971.565C630.021 985.545 631.233 1010.5 648.32 1022.8C680.9 1046.25 650.978 1096.47 614.852 1078.98ZM593.694 944.181L545.042 944.173C585.601 978.168 606.618 1016.43 545.554 1041.63C530.746 1047.73 525.382 1065.96 534.583 1079.07C552.129 1104.05 518.089 1132.65 496.507 1111.06L462.118 1076.66C466.763 1129.38 454.572 1171.3 393.568 1145.93C378.785 1139.79 362.112 1148.88 359.347 1164.65C354.089 1194.72 309.791 1190.87 309.799 1160.35L309.807 1111.71C275.811 1152.27 237.552 1173.29 212.35 1112.22C206.243 1097.42 188.013 1092.05 174.91 1101.25C149.928 1118.8 121.327 1084.76 142.913 1063.18L177.318 1028.78C124.586 1033.43 82.6529 1021.25 108.022 960.234C114.168 945.451 105.079 928.778 89.3047 926.013C59.2395 920.755 63.0821 876.458 93.6073 876.466L142.264 876.473C101.703 842.477 80.6842 804.219 141.749 779.018C156.558 772.911 161.921 754.681 152.72 741.578C135.175 716.595 169.214 687.995 190.797 709.581L225.195 743.991C220.545 691.259 232.731 649.328 293.744 674.697C308.526 680.843 325.2 671.753 327.964 655.98C333.223 625.914 377.52 629.757 377.512 660.282L377.505 695.472C368.082 695.622 359.145 701.384 350.859 710.574L349.809 697.004C347.885 672.119 311.53 671.788 309.145 696.63C307.889 709.664 294.871 718.128 282.431 714.053C229.654 696.761 223.434 734.177 231.562 778.472L196.81 749.126C177.74 733.024 151.974 758.67 167.99 777.817C176.389 787.859 173.273 803.082 161.629 809.077C107.441 836.993 139.565 871.259 183.06 897.785L131.715 905.323C107.02 908.947 109.179 945.239 134.126 945.918C147.216 946.279 156.551 958.686 153.337 971.376C138.866 1028.5 182.253 1029.12 229.133 1015.52L201.081 1057.29C187.167 1078.01 215.483 1100.81 232.759 1082.79C241.82 1073.34 257.293 1074.77 264.528 1085.68C286.653 1119.05 307.419 1115.11 325.187 1095.4L326.237 1108.95C328.161 1133.84 364.516 1134.17 366.901 1109.33C368.157 1096.29 381.175 1087.83 393.614 1091.91C451.431 1110.85 453.375 1064.14 441.791 1014.65L485.547 1047.2C505.573 1062.1 529.71 1034.92 512.545 1016.79C503.544 1007.29 505.715 991.9 516.969 985.199C557.975 960.767 545.914 935.708 517.12 914.559L541.227 912.526C566.087 910.428 566.165 874.083 541.318 871.872C528.275 870.705 519.722 857.746 523.712 845.278C542.863 785.44 492.409 785.664 441.277 798.845L474.966 748.686C488.879 727.965 460.563 705.166 443.288 723.184C434.227 732.633 418.754 731.206 411.519 720.288C403.367 707.996 395.401 700.768 387.7 697.526C418.939 665.017 452.246 653.399 474.953 708.42C481.059 723.228 499.29 728.592 512.393 719.391C537.375 701.845 565.975 735.885 544.39 757.468L509.966 791.879C562.704 787.226 604.645 799.408 579.274 860.426C573.128 875.209 582.218 891.882 597.991 894.647C628.044 899.9 624.206 944.184 593.694 944.181ZM402.218 928.792L389.628 925.929C398.124 937.111 401.311 948.247 384.027 951.178C379.835 951.888 377.374 956.291 378.985 960.224C382.057 967.721 371.565 973.122 367.248 966.266L360.369 955.337C358.471 969.257 352.851 979.392 338.552 969.238C335.087 966.778 330.237 968.15 328.594 972.07C325.465 979.542 314.225 975.943 316.023 968.043L318.885 955.453C307.701 963.952 296.563 967.141 293.632 949.854C292.922 945.663 288.519 943.202 284.587 944.813C277.089 947.885 271.688 937.393 278.544 933.076L289.47 926.199C275.551 924.301 265.419 918.68 275.572 904.383C278.032 900.918 276.66 896.068 272.74 894.425C265.268 891.296 268.867 880.056 276.768 881.854L289.357 884.716C280.858 873.532 277.668 862.393 294.955 859.462C299.147 858.752 301.607 854.349 299.996 850.417C296.924 842.919 307.416 837.518 311.733 844.374L318.612 855.303C320.51 841.382 326.13 831.246 340.43 841.4C343.894 843.86 348.744 842.488 350.387 838.568C353.517 831.095 364.756 834.695 362.959 842.595L360.095 855.19C371.279 846.691 382.417 843.5 385.349 860.788C386.059 864.98 390.462 867.44 394.394 865.829C401.892 862.757 407.293 873.249 400.436 877.566L389.504 884.448C403.427 886.345 413.567 891.965 403.412 906.266C400.952 909.73 402.323 914.58 406.244 916.224C413.713 919.351 410.115 930.587 402.218 928.792Z" fill="#FFFBF3"/>
</svg>
