<svg width="688" height="486" viewBox="0 0 688 486" fill="none" xmlns="http://www.w3.org/2000/svg">
<path d="M288.561 266.767L235.857 281.752C224.599 284.953 218.077 296.665 221.283 307.886C224.49 319.125 236.222 325.635 247.462 322.435L300.147 307.449L374.894 266.458C376.242 265.712 375.678 263.675 374.147 263.73L288.561 266.749V266.767Z" fill="#FBFF3E"/>
<path d="M609.738 219.392L662.405 204.407C673.791 201.169 680.331 189.239 676.87 177.891C673.409 166.543 661.349 160.724 650.127 163.924L598.115 178.71L522.895 220.01C521.547 220.756 522.111 222.793 523.66 222.738L609.756 219.392H609.738Z" fill="#FBFF3E"/>
<path d="M472.869 403.399L487.881 455.975C491.087 467.214 502.819 473.725 514.059 470.524C525.318 467.323 531.84 455.611 528.633 444.391L513.622 391.778L471.904 316.833C471.157 315.488 469.116 316.069 469.171 317.597L472.887 403.417L472.869 403.399Z" fill="#FBFF3E"/>
<path d="M352.362 373.192L326.055 420.367C320.39 430.551 323.487 443.7 333.579 449.556C343.672 455.412 356.989 451.884 362.746 441.554L389.38 393.779L412.862 311.214C413.281 309.741 411.423 308.705 410.385 309.832L352.362 373.192Z" fill="#FBFF3E"/>
<path d="M545.924 112.966L572.558 65.1912C578.242 54.9888 574.562 42.0949 564.342 36.4208C554.122 30.7468 541.205 34.4022 535.521 44.6228L508.887 92.4158L485.532 175.035C485.113 176.508 486.972 177.545 488.01 176.417L545.924 112.966Z" fill="#FBFF3E"/>
<path d="M425.414 82.7783L410.585 30.857C407.397 19.6544 395.865 12.5436 384.589 15.5261C373.093 18.5632 366.389 30.4023 369.632 41.7687L384.643 94.3265L426.416 169.326C427.163 170.672 429.222 170.09 429.149 168.562L425.414 82.7783Z" fill="#FBFF3E"/>
<path d="M318.804 146.466L271.547 120.223C261.345 114.568 248.174 117.659 242.308 127.734C236.442 137.809 239.976 151.103 250.324 156.85L298.199 183.457L380.343 206.535C381.818 206.953 382.857 205.098 381.727 204.061L318.785 146.484L318.804 146.466Z" fill="#FBFF3E"/>
<path d="M579.46 339.693L627.336 366.281C637.683 372.028 650.763 368.209 656.338 357.734C661.913 347.259 657.522 334.637 647.32 328.963L600.082 302.721L517.483 279.061C516.008 278.642 514.969 280.497 516.099 281.534L579.46 339.693Z" fill="#FBFF3E"/>
<path d="M508.886 92.4168L522.24 39.368C525.118 27.9107 518.049 16.2898 506.463 13.6164C495.095 10.9795 483.8 18.4539 480.958 29.7475L467.787 82.1053L466.639 167.944C466.621 169.471 468.68 169.999 469.39 168.635L508.886 92.4168Z" fill="#FBFF3E"/>
<path d="M598.115 178.71L645.117 150.63C655.155 144.629 658.416 131.644 652.422 121.623C646.41 111.603 633.403 108.329 623.365 114.331L576.382 142.41L514.624 202.115C513.513 203.188 514.624 205.007 516.081 204.552L598.134 178.728L598.115 178.71Z" fill="#FBFF3E"/>
<path d="M298.218 183.439L245.078 170.108C233.601 167.235 221.96 174.291 219.282 185.857C216.64 197.205 224.127 208.481 235.441 211.3L287.853 224.43L373.22 225.558C374.751 225.576 375.279 223.521 373.913 222.811L298.237 183.42L298.218 183.439Z" fill="#FBFF3E"/>
<path d="M389.377 393.761L376.041 446.791C373.199 458.121 380.086 469.615 391.435 472.452C402.785 475.289 414.298 468.415 417.14 457.085L430.475 404.054L431.532 318.198C431.55 316.67 429.492 316.143 428.781 317.507L389.377 393.761Z" fill="#FBFF3E"/>
<path d="M300.147 307.449L253.747 335.183C243.745 341.167 239.829 354.115 245.64 364.208C251.451 374.302 264.75 377.903 274.897 371.828L321.917 343.731L383.547 283.917C384.659 282.844 383.547 281.025 382.09 281.48L300.129 307.431L300.147 307.449Z" fill="#FBFF3E"/>
<path d="M513.602 391.778L541.384 438.116C547.377 448.119 560.348 452.01 570.459 446.209C580.57 440.408 584.177 427.132 578.092 417.002L549.964 370.082L490.502 308.977C489.427 307.886 487.605 308.977 488.061 310.432L513.584 391.796L513.602 391.778Z" fill="#FBFF3E"/>
<path d="M600.1 302.739L653.205 316.052C664.682 318.925 676.323 311.851 679.001 300.302C681.679 288.754 674.155 277.679 662.842 274.86L610.357 261.711L524.406 260.548C522.876 260.529 522.348 262.584 523.714 263.294L600.082 302.757L600.1 302.739Z" fill="#FBFF3E"/>
<path d="M384.643 94.3265L356.533 47.4246C350.521 37.404 337.513 34.1487 327.476 40.132C317.438 46.1334 314.177 59.1182 320.17 69.1388L348.316 116.059L407.924 177.783C408.999 178.892 410.821 177.801 410.366 176.346L384.661 94.3083L384.643 94.3265Z" fill="#FBFF3E"/>
<path d="M348.296 116.096L308.946 78.0321C300.438 69.812 286.83 70.1211 278.705 78.7959C270.579 87.4707 271.581 100.801 279.961 108.912L318.801 146.485L392.601 190.513C393.913 191.295 395.406 189.767 394.568 188.476L348.296 116.114V116.096Z" fill="#FBFF3E"/>
<path d="M467.785 82.1051L466.929 27.4194C466.747 15.744 457.11 6.4145 445.414 6.59636C433.718 6.77823 424.373 16.3987 424.555 28.0742L425.411 82.7598L446.361 165.961C446.744 167.452 448.857 167.416 449.203 165.925L467.785 82.0869V82.1051Z" fill="#FBFF3E"/>
<path d="M576.365 142.393L614.477 103.129C622.711 94.636 622.401 81.0509 613.712 72.9399C605.022 64.8289 591.668 65.8292 583.543 74.1948L545.924 112.968L501.965 186.803C501.181 188.131 502.712 189.604 504.005 188.767L576.365 142.393Z" fill="#FBFF3E"/>
<path d="M430.495 404.072L431.351 458.048C431.533 469.687 440.824 479.544 452.483 479.563C464.142 479.581 473.925 469.888 473.725 458.085L472.869 403.417L451.864 320.198C451.481 318.706 449.35 318.743 449.022 320.234L430.495 404.072Z" fill="#FBFF3E"/>
<path d="M549.984 370.082L589.316 408.128C597.714 416.257 611.14 416.039 619.284 407.655C627.427 399.271 627.208 385.868 618.81 377.739L579.46 339.693L505.715 295.61C504.403 294.828 502.909 296.338 503.729 297.647L549.965 370.082H549.984Z" fill="#FBFF3E"/>
<path d="M287.832 224.466L233.088 225.321C221.393 225.503 212.047 235.123 212.229 246.799C212.411 258.474 222.048 267.804 233.744 267.622L288.525 266.767L371.852 245.835C373.346 245.453 373.309 243.343 371.816 242.998L287.796 224.466H287.832Z" fill="#FBFF3E"/>
<path d="M321.936 343.749L284.298 382.522C276.173 390.887 275.772 404.4 284.007 412.656C292.387 421.076 306.014 420.949 314.248 412.456L352.378 373.174L396.482 299.52C397.266 298.211 395.735 296.72 394.442 297.556L321.936 343.731V343.749Z" fill="#FBFF3E"/>
<path d="M686.015 238.942C685.614 227.303 675.467 218.355 663.808 218.537L609.756 219.392L526.356 240.069C524.862 240.433 524.88 242.561 526.393 242.907L610.376 261.693L665.193 260.82C677.034 260.638 686.434 250.799 686.033 238.942H686.015Z" fill="#FBFF3E"/>
<path d="M518.123 238.979L503.567 235.323L516.447 227.631C519.49 225.812 518.16 221.156 514.607 221.211L499.614 221.447L510.053 210.699C512.512 208.153 510.016 204.007 506.61 204.971L492.181 209.081L499.487 195.987C501.217 192.895 497.72 189.531 494.677 191.349L481.797 199.042L485.459 184.511C486.315 181.074 482.089 178.728 479.611 181.274L469.173 192.04L468.936 177.073C468.881 173.545 464.181 172.363 462.45 175.455L455.145 188.549L451.028 174.145C450.062 170.744 445.198 170.817 444.342 174.254L440.698 188.767L432.992 175.909C431.171 172.872 426.507 174.2 426.562 177.746L426.798 192.731L416.014 182.311C413.463 179.856 409.309 182.347 410.275 185.748L414.392 200.151L401.294 192.877C398.197 191.149 394.826 194.641 396.648 197.678L404.354 210.536L389.798 206.88C386.355 206.025 384.005 210.245 386.556 212.718L397.322 223.139L382.311 223.375C378.777 223.43 377.593 228.122 380.69 229.849L393.806 237.142L379.36 241.252C375.953 242.216 376.026 247.071 379.469 247.926L394.025 251.582L381.163 259.274C378.121 261.093 379.451 265.749 383.003 265.694L398.015 265.458L387.576 276.224C385.117 278.77 387.612 282.916 391.019 281.952L405.447 277.842L398.142 290.936C396.411 294.028 399.909 297.392 402.952 295.574L415.831 287.881L412.17 302.412C411.313 305.849 415.54 308.195 418.017 305.649L428.456 294.883L428.693 309.868C428.748 313.396 433.448 314.578 435.179 311.487L442.484 298.393L446.601 312.796C447.566 316.197 452.431 316.124 453.287 312.687L456.948 298.138L464.655 310.996C466.476 314.033 471.14 312.705 471.085 309.159L470.849 294.192L481.615 304.612C484.166 307.067 488.319 304.576 487.354 301.175L483.236 286.772L496.353 294.064C499.45 295.792 502.82 292.3 500.999 289.263L493.293 276.424L507.849 280.079C511.292 280.934 513.642 276.715 511.091 274.242L500.307 263.803L515.318 263.566C518.852 263.512 520.036 258.82 516.939 257.092L503.841 249.818L518.269 245.708C521.676 244.744 521.603 239.888 518.16 239.033L518.123 238.979ZM495.388 244.926L488.373 246.917C487.392 247.195 487.238 248.519 488.129 249.014L494.513 252.564C496.59 253.709 495.789 256.874 493.42 256.91L486.105 257.029C485.086 257.046 484.595 258.283 485.327 258.992L490.578 264.076C492.291 265.73 490.706 268.567 488.392 267.986L481.311 266.205C480.322 265.956 479.526 267.027 480.05 267.901L483.801 274.151C485.022 276.187 482.763 278.515 480.686 277.37L474.301 273.819C473.41 273.324 472.364 274.151 472.643 275.13L474.638 282.134C475.294 284.408 472.488 286.081 470.794 284.426L465.547 279.359C464.814 278.652 463.59 279.182 463.607 280.199L463.726 287.481C463.762 289.845 460.629 290.736 459.408 288.699L455.652 282.442C455.128 281.569 453.809 281.763 453.56 282.75L451.775 289.827C451.192 292.137 447.931 292.173 447.293 289.9L445.298 282.897C445.019 281.918 443.694 281.764 443.197 282.654L439.642 289.027C438.494 291.1 435.324 290.3 435.288 287.936L435.169 280.633C435.152 279.616 433.912 279.126 433.203 279.856L428.11 285.099C426.452 286.808 423.61 285.226 424.193 282.916L425.977 275.848C426.226 274.86 425.154 274.065 424.278 274.589L418.017 278.333C415.977 279.552 413.645 277.297 414.793 275.224L418.349 268.849C418.846 267.96 418.017 266.916 417.036 267.194L410.02 269.186C407.743 269.84 406.067 267.04 407.725 265.349L412.812 260.112C413.522 259.38 412.992 258.157 411.972 258.174L404.664 258.292C402.296 258.329 401.403 255.201 403.443 253.982L409.712 250.233C410.586 249.71 410.391 248.393 409.403 248.145L402.314 246.362C400 245.78 399.964 242.525 402.241 241.888L409.28 239.881C410.26 239.601 410.413 238.279 409.522 237.784L403.134 234.232C401.057 233.086 401.858 229.922 404.227 229.886L411.537 229.767C412.556 229.75 413.047 228.511 412.314 227.803L407.069 222.739C405.356 221.084 406.941 218.247 409.255 218.828L416.335 220.609C417.325 220.858 418.121 219.787 417.597 218.913L413.846 212.663C412.625 210.627 414.884 208.299 416.961 209.444L423.348 212.996C424.239 213.491 425.284 212.664 425.006 211.685L423.009 204.662C422.353 202.388 425.159 200.715 426.853 202.37L432.099 207.449C432.832 208.158 434.057 207.628 434.04 206.61L433.922 199.315C433.885 196.951 437.018 196.059 438.239 198.096L441.991 204.348C442.516 205.222 443.836 205.026 444.084 204.038L445.854 196.969C446.437 194.659 449.698 194.623 450.335 196.896L452.331 203.915C452.61 204.894 453.936 205.048 454.432 204.159L457.987 197.787C459.135 195.714 462.305 196.514 462.341 198.878L462.46 206.163C462.477 207.18 463.717 207.67 464.426 206.939L469.519 201.697C471.177 199.988 474.018 201.57 473.436 203.88L471.652 210.948C471.403 211.936 472.475 212.731 473.35 212.207L479.611 208.462C481.652 207.244 483.983 209.499 482.836 211.572L479.278 217.948C478.782 218.837 479.61 219.881 480.591 219.604L487.627 217.61C489.904 216.955 491.58 219.756 489.922 221.447L484.847 226.685C484.138 227.417 484.669 228.639 485.688 228.622L493.001 228.503C495.37 228.467 496.262 231.595 494.222 232.814L487.939 236.563C487.064 237.086 487.259 238.403 488.247 238.652L495.333 240.434C497.647 241.016 497.683 244.271 495.406 244.907L495.388 244.926Z" fill="#FBFF3E"/>
<path d="M110.373 238.523C110.373 238.523 110.364 238.523 110.355 238.523L82.7599 235.907C79.8394 235.683 77.3027 237.991 77.3214 240.981C77.3401 243.635 79.5773 245.756 82.2263 245.961L109.69 248.111C109.69 248.111 109.699 248.111 109.709 248.111L116.289 246.13C118.077 245.588 118.358 243.186 116.748 242.252L110.364 238.542L110.373 238.523Z" fill="#FBFF3E"/>
<path d="M121.596 224.105C121.596 224.105 121.596 224.096 121.587 224.087L104.017 202.707C102.108 200.483 98.6815 200.324 96.5848 202.454C94.722 204.351 94.7969 207.426 96.5286 209.444L114.435 230.357C114.435 230.357 114.435 230.357 114.454 230.366L120.754 233.693C122.429 234.58 124.348 233.001 123.796 231.188L121.615 224.105H121.596Z" fill="#FBFF3E"/>
<path d="M112.929 257.259C112.929 257.259 112.919 257.259 112.91 257.259L91.2403 274.368C89.0125 276.275 88.8534 279.695 90.9876 281.788C92.8878 283.647 95.9674 283.573 97.9893 281.844L118.938 263.968C118.938 263.968 118.938 263.968 118.947 263.949L121.99 258.502C122.916 256.848 121.381 254.904 119.556 255.409L112.929 257.24V257.259Z" fill="#FBFF3E"/>
<path d="M127.157 268.042C127.157 268.042 127.157 268.052 127.157 268.061L124.499 295.599C124.284 298.374 126.352 300.794 129.132 301.009C131.903 301.224 134.337 299.159 134.552 296.384L136.621 268.715V268.697L134.225 262.296C133.579 260.576 131.201 260.417 130.34 262.043L127.167 268.033L127.157 268.042Z" fill="#FBFF3E"/>
<path d="M139.681 221.741C139.681 221.741 139.681 221.732 139.681 221.722L142.555 194.241C142.78 191.325 140.468 188.793 137.472 188.812C134.814 188.83 132.689 191.064 132.483 193.708L130.33 221.124C130.33 221.124 130.33 221.134 130.33 221.143L132.483 227.992C133.063 229.824 135.581 230.02 136.433 228.291L139.672 221.722L139.681 221.741Z" fill="#FBFF3E"/>
<path d="M184.819 243.878L157.345 241.728C157.345 241.728 157.336 241.728 157.327 241.728L150.821 243.85C149.005 244.438 148.827 246.933 150.531 247.784L156.84 250.914C156.84 250.914 156.849 250.914 156.859 250.914L184.285 253.923C187.206 254.147 189.742 251.839 189.724 248.849C189.705 246.195 187.468 244.074 184.819 243.868V243.878Z" fill="#FBFF3E"/>
<path d="M154.396 233.038C154.396 233.038 154.406 233.038 154.415 233.038L175.813 215.461C178.041 213.555 178.2 210.135 176.066 208.042C174.166 206.182 171.086 206.257 169.064 207.986L148.125 225.862C148.125 225.862 148.115 225.871 148.115 225.88L144.867 232.459C144.025 234.159 145.672 236.028 147.47 235.421L154.406 233.066L154.396 233.038Z" fill="#FBFF3E"/>
<path d="M145.634 265.632C145.634 265.632 145.634 265.641 145.634 265.65L163.026 287.133C164.832 289.245 168.015 289.497 170.13 287.684C172.246 285.881 172.499 282.704 170.683 280.592L152.607 259.483C152.607 259.483 152.598 259.483 152.589 259.474L146.626 256.381C144.951 255.512 143.06 257.082 143.603 258.876L145.615 265.622L145.634 265.632Z" fill="#FBFF3E"/>
<path d="M130.331 221.153C130.331 221.153 130.331 221.143 130.331 221.134L122.047 194.736C121.167 192.101 118.312 190.681 115.672 191.559C113.033 192.438 111.61 195.288 112.49 197.923L121.598 224.087C121.598 224.087 121.598 224.096 121.598 224.106L126.062 229.544C127.289 231.039 129.713 230.263 129.844 228.339L130.331 221.153Z" fill="#FBFF3E"/>
<path d="M148.05 225.862C148.05 225.862 148.05 225.862 148.059 225.843L160.808 201.52C161.988 199.165 161.314 196.213 159.077 194.82C156.512 193.222 153.198 194.204 151.888 196.829L139.635 221.713C139.635 221.713 139.635 221.723 139.635 221.732L138.998 228.871C138.83 230.787 141.076 231.927 142.527 230.665L148.05 225.853V225.862Z" fill="#FBFF3E"/>
<path d="M157.334 241.728C157.334 241.728 157.344 241.728 157.353 241.728L183.796 233.459C186.436 232.58 187.859 229.73 186.979 227.095C186.099 224.46 183.244 223.04 180.604 223.918L154.414 233.038C154.414 233.038 154.404 233.038 154.395 233.038L149.069 237.533C147.599 238.776 148.395 241.168 150.314 241.289L157.334 241.728Z" fill="#FBFF3E"/>
<path d="M136.611 268.696C136.611 268.696 136.611 268.706 136.611 268.715L144.998 295.103C145.878 297.739 148.733 299.159 151.373 298.28C154.013 297.402 155.435 294.552 154.556 291.917L145.635 265.65C145.635 265.65 145.635 265.631 145.626 265.631L140.515 260.66C139.195 259.371 136.967 260.258 136.892 262.099L136.611 268.706V268.696Z" fill="#FBFF3E"/>
<path d="M152.616 259.464C152.616 259.464 152.626 259.473 152.635 259.473L177.197 272.294C179.818 273.602 183.038 272.415 184.143 269.631C185.116 267.164 183.843 264.36 181.465 263.174L156.866 250.914C156.866 250.914 156.857 250.914 156.847 250.914L149.799 250.549C147.936 250.456 146.85 252.624 148.058 254.054L152.626 259.464H152.616Z" fill="#FBFF3E"/>
<path d="M114.436 230.366C114.436 230.366 114.427 230.357 114.417 230.357L89.8647 217.536C87.3748 216.293 84.3513 217.302 83.1064 219.788C81.8614 222.274 82.8724 225.292 85.3623 226.535L110.355 238.514C110.355 238.514 110.364 238.514 110.374 238.514L116.992 239.355C118.901 239.598 120.127 237.393 118.92 235.898L114.436 230.357V230.366Z" fill="#FBFF3E"/>
<path d="M109.719 248.102H109.701L83.2573 256.371C80.6176 257.25 79.1948 260.1 80.0747 262.735C80.9546 265.37 83.8095 266.79 86.4492 265.912L112.911 257.259C112.911 257.259 112.921 257.259 112.93 257.259L118.144 252.979C119.567 251.811 118.94 249.503 117.105 249.223L109.719 248.102Z" fill="#FBFF3E"/>
<path d="M118.948 263.968C118.948 263.968 118.939 263.977 118.929 263.987L106.087 288.506C104.842 290.992 105.853 294.01 108.343 295.253C110.832 296.496 113.856 295.486 115.101 293.001L127.138 268.061C127.138 268.061 127.138 268.052 127.138 268.042L127.803 261.716C128 259.857 125.865 258.67 124.377 259.81L118.939 263.977L118.948 263.968Z" fill="#FBFF3E"/>
<path d="M40.8254 235.13C40.572 234.186 39.5999 233.626 38.6543 233.879C37.7086 234.132 37.1474 235.102 37.4008 236.046L39.5192 243.938L32.431 239.853C31.5831 239.364 30.4989 239.654 30.0094 240.501C29.5199 241.347 29.8104 242.43 30.6583 242.918L37.7458 247.003L29.8397 249.118C28.894 249.371 28.3328 250.341 28.5862 251.285C28.8396 252.229 29.8117 252.79 30.7574 252.537L38.6642 250.422L34.5715 257.498C34.082 258.345 34.3725 259.427 35.2204 259.916C36.0682 260.404 37.1524 260.114 37.6419 259.268L41.7345 252.192L43.8529 260.084C44.1063 261.028 45.0783 261.588 46.024 261.335C46.9697 261.082 47.5309 260.112 47.2775 259.168L45.1592 251.276L52.2475 255.361C53.0953 255.85 54.1795 255.56 54.669 254.714C55.1586 253.867 54.8681 252.785 54.0202 252.296L46.9312 248.21L54.837 246.096C55.7827 245.843 56.3439 244.872 56.0905 243.928C55.8371 242.984 54.865 242.424 53.9194 242.677L46.0144 244.791L50.1065 237.716C50.596 236.87 50.3055 235.787 49.4576 235.299C48.6097 234.81 47.5256 235.1 47.036 235.946L42.9437 243.022L40.8254 235.13Z" fill="#FBFF3E"/>
<ellipse cx="4.04062" cy="246.704" rx="3.38223" ry="3.38809" transform="rotate(90 4.04062 246.704)" fill="#FBFF3E"/>
</svg>
