<svg width="537" height="380" viewBox="0 0 537 380" fill="none" xmlns="http://www.w3.org/2000/svg">
<path d="M311.387 171.417L352.524 159.7C361.312 157.198 366.403 148.04 363.9 139.267C361.397 130.479 352.24 125.388 343.467 127.891L302.343 139.608L244 171.659C242.948 172.242 243.389 173.834 244.583 173.792L311.387 171.431L311.387 171.417Z" fill="#FBFF3E"/>
<path d="M60.6953 208.459L19.5864 220.176C10.6992 222.707 5.59437 232.035 8.29609 240.908C10.9978 249.781 20.4111 254.332 29.1704 251.829L69.7674 240.268L128.48 207.976C129.532 207.393 129.092 205.8 127.883 205.843L60.6811 208.459L60.6953 208.459Z" fill="#FBFF3E"/>
<path d="M167.527 64.5852L155.81 23.4764C153.307 14.6887 144.15 9.59806 135.377 12.1007C126.589 14.6033 121.498 23.7608 124.001 32.5343L135.718 73.6715L168.281 132.27C168.864 133.323 170.456 132.868 170.414 131.673L167.513 64.571L167.527 64.5852Z" fill="#FBFF3E"/>
<path d="M261.588 88.2037L282.121 51.318C286.544 43.3551 284.126 33.0743 276.249 28.4956C268.371 23.9169 257.976 26.6755 253.483 34.7522L232.694 72.1071L214.365 136.664C214.038 137.816 215.488 138.626 216.299 137.745L261.588 88.2037Z" fill="#FBFF3E"/>
<path d="M110.505 291.673L89.716 329.028C85.2795 337.005 88.1519 347.087 96.1291 351.523C104.106 355.96 114.188 353.101 118.624 345.11L139.414 307.741L157.643 243.141C157.97 241.99 156.52 241.179 155.709 242.061L110.505 291.673Z" fill="#FBFF3E"/>
<path d="M204.568 315.277L216.142 355.873C218.631 364.633 227.632 370.193 236.434 367.861C245.406 365.486 250.639 356.229 248.108 347.342L236.391 306.247L203.786 247.605C203.203 246.553 201.596 247.008 201.653 248.203L204.568 315.277Z" fill="#FBFF3E"/>
<path d="M287.782 265.48L324.667 285.998C332.63 290.421 342.911 288.003 347.49 280.126C352.068 272.248 349.31 261.854 341.233 257.36L303.864 236.557L239.748 218.512C238.596 218.185 237.785 219.636 238.667 220.446L287.796 265.465L287.782 265.48Z" fill="#FBFF3E"/>
<path d="M84.329 114.397L46.9598 93.6075C38.8831 89.1141 28.6735 92.1002 24.3223 100.291C19.9711 108.481 23.398 118.35 31.361 122.786L68.2324 143.305L132.704 161.805C133.856 162.132 134.666 160.681 133.785 159.871L84.329 114.397Z" fill="#FBFF3E"/>
<path d="M139.414 307.74L128.991 349.219C126.745 358.177 132.262 367.263 141.306 369.354C150.179 371.416 158.995 365.571 161.213 356.741L171.494 315.803L172.39 248.686C172.404 247.492 170.797 247.079 170.242 248.146L139.414 307.74Z" fill="#FBFF3E"/>
<path d="M69.7674 240.268L33.0808 262.223C25.2458 266.916 22.7004 277.069 27.3787 284.904C32.0711 292.739 42.2239 295.298 50.059 290.606L86.7313 268.651L134.936 221.968C135.803 221.129 134.936 219.707 133.798 220.062L69.7532 240.254L69.7674 240.268Z" fill="#FBFF3E"/>
<path d="M303.849 236.571L345.328 246.994C354.286 249.241 363.372 243.723 365.463 234.68C367.524 225.807 361.68 216.991 352.85 214.787L311.94 204.52L245.307 203.638C244.113 203.624 243.7 205.231 244.767 205.786L303.835 236.585L303.849 236.571Z" fill="#FBFF3E"/>
<path d="M232.697 72.1214L243.105 30.657C245.324 21.7982 239.949 12.8115 231.09 10.5932C222.231 8.37493 213.244 13.75 211.026 22.6088L200.617 64.0731L199.792 131.204C199.778 132.398 201.385 132.811 201.94 131.744L232.697 72.1214Z" fill="#FBFF3E"/>
<path d="M302.343 139.608L338.561 117.923C346.368 113.244 349.425 103.12 344.889 95.2282C340.353 87.3363 329.972 84.5208 322.052 89.2702L285.351 111.239L237.246 158.008C236.379 158.847 237.246 160.269 238.384 159.913L302.358 139.622L302.343 139.608Z" fill="#FBFF3E"/>
<path d="M135.734 73.6716L114.049 37.4401C109.37 29.6193 99.2462 26.5763 91.3543 31.1124C83.4624 35.6484 80.647 46.0287 85.3963 53.949L107.351 90.6356L153.764 138.413C154.603 139.267 156.025 138.413 155.669 137.276L135.748 73.6574L135.734 73.6716Z" fill="#FBFF3E"/>
<path d="M68.218 143.291L26.7679 132.882C17.8095 130.635 8.72323 136.166 6.63295 145.196C4.54268 154.225 10.4154 162.885 19.2457 165.089L60.2124 175.37L127.3 176.28C128.495 176.294 128.907 174.687 127.841 174.133L68.2322 143.276L68.218 143.291Z" fill="#FBFF3E"/>
<path d="M236.391 306.247L258.333 342.919C263.025 350.754 273.178 353.3 281.013 348.621C288.848 343.929 291.393 333.776 286.715 325.941L264.746 289.255L218.219 240.993C217.38 240.126 215.958 240.979 216.314 242.117L236.377 306.261L236.391 306.247Z" fill="#FBFF3E"/>
<path d="M264.762 289.226L295.476 318.988C302.117 325.415 312.739 325.173 319.081 318.39C325.422 311.608 324.64 301.185 318.099 294.843L287.783 265.465L230.18 231.039C229.156 230.428 227.99 231.622 228.644 232.632L264.762 289.212L264.762 289.226Z" fill="#FBFF3E"/>
<path d="M171.495 315.803L172.163 358.561C172.306 367.69 179.828 374.985 188.957 374.843C198.086 374.7 205.38 367.178 205.238 358.049L204.57 315.291L188.217 250.236C187.919 249.07 186.269 249.099 185.999 250.265L171.495 315.817L171.495 315.803Z" fill="#FBFF3E"/>
<path d="M86.744 268.664L56.9966 299.365C50.5694 306.005 50.8111 316.627 57.5938 322.969C64.3766 329.311 74.7996 328.529 81.1416 321.988L110.505 291.672L144.817 233.94C145.428 232.902 144.234 231.75 143.224 232.405L86.744 268.664Z" fill="#FBFF3E"/>
<path d="M200.602 64.0591L199.934 21.8553C199.792 12.7548 192.54 5.04777 183.439 5.03355C174.339 5.01936 166.703 12.5984 166.859 21.8269L167.528 64.571L183.923 129.64C184.221 130.806 185.885 130.777 186.141 129.611L200.602 64.0591Z" fill="#FBFF3E"/>
<path d="M107.336 90.6355L76.6359 60.8881C70.0807 54.532 59.6009 54.7026 53.2447 61.2578C46.8885 67.813 47.0592 78.2929 53.6144 84.649L84.329 114.397L141.89 148.865C142.913 149.476 144.079 148.296 143.44 147.272L107.35 90.6355L107.336 90.6355Z" fill="#FBFF3E"/>
<path d="M311.956 204.492L354.686 203.823C363.815 203.681 371.109 196.159 370.967 187.03C370.825 177.901 363.303 170.606 354.174 170.749L311.416 171.417L246.375 187.784C245.209 188.082 245.238 189.732 246.404 190.002L311.984 204.492L311.956 204.492Z" fill="#FBFF3E"/>
<path d="M285.337 111.225L314.714 80.9091C321.056 74.3681 321.369 63.8029 314.942 57.3473C308.401 50.7636 297.765 50.8631 291.337 57.5037L261.576 88.2179L227.15 145.807C226.539 146.831 227.733 147.997 228.743 147.343L285.337 111.239L285.337 111.225Z" fill="#FBFF3E"/>
<path d="M1.15785 193.173C1.47069 202.274 9.39094 209.27 18.4915 209.128L60.6811 208.459L125.778 192.292C126.944 192.007 126.93 190.343 125.75 190.073L60.1975 175.384L17.4108 176.067C8.16811 176.209 0.830827 183.902 1.14366 193.173L1.15785 193.173Z" fill="#FBFF3E"/>
<path d="M132.204 193.144L143.566 196.003L133.513 202.017C131.138 203.439 132.176 207.08 134.949 207.037L146.651 206.852L138.504 215.256C136.584 217.247 138.532 220.489 141.191 219.735L152.453 216.521L146.751 226.76C145.4 229.177 148.13 231.808 150.505 230.386L160.558 224.371L157.7 235.732C157.032 238.42 160.331 240.254 162.265 238.263L170.412 229.845L170.597 241.548C170.64 244.307 174.309 245.231 175.659 242.814L181.362 232.575L184.575 243.837C185.329 246.496 189.125 246.44 189.794 243.752L192.638 232.405L198.653 242.458C200.074 244.833 203.715 243.795 203.672 241.022L203.487 229.305L211.905 237.453C213.896 239.372 217.138 237.424 216.384 234.765L213.171 223.503L223.395 229.191C225.812 230.542 228.443 227.812 227.021 225.437L221.006 215.384L232.367 218.242C235.055 218.91 236.889 215.611 234.898 213.678L226.495 205.53L238.211 205.345C240.97 205.302 241.894 201.634 239.477 200.283L229.239 194.581L240.515 191.367C243.174 190.613 243.117 186.817 240.43 186.148L229.068 183.29L239.107 177.275C241.482 175.853 240.444 172.213 237.671 172.256L225.954 172.441L234.102 164.023C236.022 162.032 234.074 158.79 231.415 159.544L220.153 162.757L225.855 152.519C227.205 150.102 224.475 147.471 222.101 148.893L212.047 154.908L214.906 143.547C215.574 140.859 212.275 139.025 210.341 141.015L202.193 149.433L202.008 137.717C201.966 134.958 198.297 134.034 196.946 136.451L191.244 146.689L188.031 135.427C187.277 132.768 183.48 132.825 182.812 135.512L179.954 146.888L173.939 136.835C172.517 134.46 168.877 135.498 168.919 138.271L169.104 149.974L160.7 141.826C158.71 139.906 155.468 141.854 156.221 144.513L159.435 155.775L149.197 150.073C146.779 148.722 144.149 151.453 145.571 153.827L151.586 163.866L140.224 161.008C137.537 160.34 135.702 163.639 137.693 165.573L146.111 173.735L134.394 173.92C131.636 173.962 130.711 177.631 133.129 178.982L143.353 184.67L132.091 187.883C129.432 188.637 129.488 192.433 132.176 193.102L132.204 193.144ZM149.95 188.495L155.426 186.938C156.191 186.72 156.312 185.685 155.616 185.298L150.633 182.522C149.012 181.627 149.638 179.152 151.486 179.124L157.196 179.031C157.991 179.018 158.374 178.05 157.803 177.496L153.704 173.521C152.368 172.227 153.605 170.009 155.411 170.464L160.938 171.856C161.71 172.051 162.331 171.214 161.922 170.531L158.994 165.644C158.041 164.051 159.805 162.231 161.426 163.127L166.41 165.903C167.105 166.29 167.922 165.643 167.704 164.878L166.147 159.401C165.635 157.624 167.824 156.316 169.147 157.61L173.243 161.571C173.815 162.124 174.77 161.71 174.757 160.914L174.664 155.221C174.636 153.372 177.081 152.676 178.034 154.268L180.966 159.161C181.375 159.843 182.404 159.691 182.598 158.92L183.992 153.386C184.447 151.581 186.992 151.552 187.49 153.33L189.047 158.805C189.265 159.571 190.3 159.691 190.687 158.995L193.462 154.012C194.358 152.391 196.832 153.017 196.861 154.865L196.954 160.575C196.967 161.37 197.935 161.754 198.488 161.182L202.463 157.084C203.757 155.747 205.976 156.984 205.521 158.79L204.129 164.317C203.934 165.089 204.771 165.711 205.454 165.301L210.341 162.373C211.934 161.421 213.754 163.184 212.858 164.805L210.082 169.789C209.695 170.484 210.341 171.301 211.107 171.083L216.583 169.526C218.361 169.014 219.669 171.204 218.375 172.526L214.404 176.621C213.85 177.193 214.264 178.149 215.06 178.136L220.764 178.043C222.613 178.015 223.309 180.461 221.717 181.413L216.824 184.345C216.142 184.754 216.294 185.783 217.065 185.978L222.598 187.371C224.404 187.826 224.433 190.372 222.655 190.869L217.161 192.439C216.396 192.658 216.277 193.692 216.972 194.079L221.958 196.856C223.579 197.752 222.954 200.226 221.105 200.254L215.4 200.347C214.604 200.36 214.221 201.329 214.793 201.883L218.887 205.843C220.224 207.137 218.987 209.355 217.181 208.9L211.654 207.508C210.882 207.313 210.26 208.15 210.669 208.833L213.597 213.72C214.55 215.313 212.787 217.133 211.166 216.237L206.18 213.46C205.485 213.073 204.669 213.72 204.886 214.485L206.445 219.977C206.957 221.754 204.767 223.063 203.445 221.769L199.35 217.798C198.778 217.243 197.822 217.657 197.835 218.453L197.927 224.157C197.956 226.006 195.51 226.703 194.557 225.11L191.628 220.222C191.219 219.539 190.188 219.692 189.995 220.464L188.613 225.992C188.158 227.798 185.613 227.826 185.116 226.049L183.558 220.561C183.34 219.795 182.305 219.674 181.918 220.37L179.143 225.352C178.247 226.973 175.773 226.347 175.745 224.499L175.652 218.803C175.639 218.008 174.671 217.625 174.117 218.196L170.142 222.295C168.848 223.631 166.63 222.394 167.085 220.588L168.477 215.062C168.672 214.289 167.835 213.668 167.152 214.077L162.265 217.005C160.672 217.958 158.852 216.194 159.748 214.573L162.524 209.588C162.911 208.893 162.265 208.076 161.5 208.294L156.008 209.852C154.231 210.364 152.922 208.175 154.216 206.852L158.178 202.757C158.731 202.185 158.317 201.229 157.521 201.242L151.813 201.335C149.965 201.363 149.268 198.918 150.861 197.965L155.764 195.033C156.447 194.625 156.296 193.594 155.524 193.4L149.993 192.007C148.187 191.552 148.159 189.007 149.936 188.509L149.95 188.495Z" fill="#FBFF3E"/>
<path d="M450.47 193.5C450.47 193.5 450.477 193.5 450.485 193.5L472.024 195.546C474.303 195.721 476.283 193.916 476.268 191.578C476.254 189.503 474.508 187.845 472.44 187.684L451.003 186.004C451.003 186.004 450.996 186.004 450.989 186.004L445.852 187.553C444.457 187.976 444.238 189.854 445.494 190.585L450.477 193.485L450.47 193.5Z" fill="#FBFF3E"/>
<path d="M441.71 204.773C441.71 204.773 441.71 204.781 441.718 204.788L455.431 221.505C456.922 223.243 459.596 223.368 461.233 221.702C462.687 220.219 462.628 217.815 461.276 216.237L447.3 199.885C447.3 199.885 447.3 199.885 447.285 199.878L442.368 197.277C441.06 196.583 439.562 197.818 439.993 199.235L441.696 204.773L441.71 204.773Z" fill="#FBFF3E"/>
<path d="M448.476 178.851C448.476 178.851 448.483 178.851 448.49 178.851L465.404 165.473C467.143 163.982 467.267 161.308 465.601 159.672C464.118 158.218 461.715 158.276 460.136 159.628L443.785 173.605C443.785 173.605 443.785 173.605 443.778 173.619L441.403 177.879C440.68 179.172 441.878 180.692 443.303 180.297L448.476 178.865L448.476 178.851Z" fill="#FBFF3E"/>
<path d="M437.369 170.419C437.369 170.419 437.369 170.412 437.369 170.404L439.444 148.873C439.612 146.703 437.998 144.811 435.828 144.642C433.665 144.474 431.766 146.089 431.597 148.259L429.983 169.893L429.983 169.908L431.853 174.912C432.357 176.257 434.213 176.381 434.885 175.11L437.362 170.426L437.369 170.419Z" fill="#FBFF3E"/>
<path d="M427.594 206.622C427.594 206.622 427.594 206.629 427.594 206.636L425.351 228.124C425.176 230.404 426.98 232.384 429.318 232.369C431.393 232.354 433.052 230.608 433.213 228.541L434.893 207.104C434.893 207.104 434.893 207.097 434.893 207.089L433.213 201.734C432.76 200.302 430.794 200.148 430.129 201.5L427.601 206.636L427.594 206.622Z" fill="#FBFF3E"/>
<path d="M392.362 189.313L413.806 190.994C413.806 190.994 413.814 190.994 413.821 190.994L418.899 189.335C420.316 188.875 420.455 186.924 419.125 186.259L414.201 183.812C414.201 183.812 414.194 183.812 414.186 183.812L392.779 181.459C390.499 181.284 388.519 183.088 388.534 185.426C388.549 187.501 390.295 189.16 392.362 189.321L392.362 189.313Z" fill="#FBFF3E"/>
<path d="M416.108 197.789C416.108 197.789 416.101 197.789 416.094 197.789L399.392 211.532C397.653 213.022 397.528 215.696 399.194 217.333C400.677 218.787 403.081 218.729 404.659 217.377L421.003 203.4C421.003 203.4 421.011 203.393 421.011 203.385L423.546 198.242C424.204 196.912 422.918 195.451 421.515 195.926L416.101 197.767L416.108 197.789Z" fill="#FBFF3E"/>
<path d="M422.948 172.304C422.948 172.304 422.948 172.297 422.948 172.289L409.373 155.492C407.963 153.841 405.478 153.644 403.827 155.061C402.176 156.471 401.979 158.955 403.396 160.607L417.505 177.111C417.505 177.111 417.512 177.111 417.519 177.119L422.173 179.537C423.481 180.217 424.957 178.989 424.533 177.586L422.962 172.311L422.948 172.304Z" fill="#FBFF3E"/>
<path d="M434.892 207.082C434.892 207.082 434.892 207.089 434.892 207.096L441.358 227.737C442.045 229.797 444.274 230.908 446.334 230.221C448.394 229.534 449.505 227.306 448.818 225.245L441.709 204.788C441.709 204.788 441.709 204.78 441.709 204.773L438.224 200.521C437.267 199.352 435.375 199.958 435.272 201.463L434.892 207.082Z" fill="#FBFF3E"/>
<path d="M421.062 203.399C421.062 203.399 421.062 203.399 421.055 203.414L411.103 222.432C410.183 224.274 410.709 226.582 412.455 227.671C414.457 228.92 417.043 228.153 418.066 226.1L427.63 206.643C427.63 206.643 427.63 206.636 427.63 206.629L428.127 201.047C428.259 199.549 426.505 198.658 425.373 199.644L421.062 203.407L421.062 203.399Z" fill="#FBFF3E"/>
<path d="M413.815 190.994C413.815 190.994 413.808 190.994 413.801 190.994L393.16 197.46C391.1 198.147 389.989 200.375 390.676 202.435C391.363 204.496 393.591 205.606 395.652 204.919L416.095 197.789C416.095 197.789 416.102 197.789 416.109 197.789L420.267 194.274C421.414 193.303 420.793 191.432 419.295 191.337L413.815 190.994Z" fill="#FBFF3E"/>
<path d="M429.99 169.908C429.99 169.908 429.99 169.9 429.99 169.893L423.444 149.26C422.757 147.2 420.529 146.089 418.468 146.776C416.408 147.463 415.297 149.691 415.984 151.752L422.947 172.29C422.947 172.29 422.947 172.304 422.954 172.304L426.943 176.191C427.974 177.199 429.713 176.505 429.771 175.066L429.99 169.9L429.99 169.908Z" fill="#FBFF3E"/>
<path d="M417.498 177.127C417.498 177.127 417.49 177.119 417.483 177.119L398.311 167.095C396.266 166.072 393.752 167 392.89 169.177C392.13 171.106 393.124 173.298 394.98 174.226L414.181 183.812C414.181 183.812 414.188 183.812 414.195 183.812L419.697 184.097C421.151 184.17 421.998 182.475 421.056 181.357L417.49 177.127L417.498 177.127Z" fill="#FBFF3E"/>
<path d="M447.299 199.878C447.299 199.878 447.306 199.885 447.314 199.885L466.478 209.91C468.421 210.881 470.781 210.092 471.753 208.149C472.725 206.205 471.936 203.845 469.992 202.874L450.484 193.507C450.484 193.507 450.477 193.507 450.47 193.507L445.304 192.849C443.814 192.659 442.857 194.384 443.799 195.553L447.299 199.885L447.299 199.878Z" fill="#FBFF3E"/>
<path d="M450.98 186.011L450.995 186.011L471.635 179.544C473.696 178.858 474.806 176.629 474.119 174.569C473.433 172.509 471.204 171.398 469.144 172.085L448.489 178.85C448.489 178.85 448.482 178.85 448.474 178.85L444.405 182.197C443.294 183.11 443.784 184.915 445.216 185.134L450.98 186.011Z" fill="#FBFF3E"/>
<path d="M443.777 173.605C443.777 173.605 443.784 173.597 443.792 173.59L453.816 154.418C454.788 152.475 453.999 150.115 452.055 149.143C450.112 148.172 447.752 148.961 446.78 150.904L437.384 170.405C437.384 170.405 437.384 170.412 437.384 170.419L436.865 175.366C436.712 176.82 438.378 177.747 439.54 176.856L443.785 173.597L443.777 173.605Z" fill="#FBFF3E"/>
<path d="M504.755 196.154C504.953 196.892 505.712 197.33 506.45 197.132C507.188 196.934 507.626 196.176 507.428 195.438L505.775 189.266L511.307 192.461C511.969 192.843 512.816 192.616 513.198 191.954C513.58 191.292 513.353 190.446 512.691 190.064L507.159 186.87L513.33 185.217C514.068 185.019 514.506 184.26 514.308 183.522C514.111 182.784 513.352 182.346 512.614 182.544L506.442 184.197L509.637 178.664C510.019 178.002 509.792 177.156 509.13 176.774C508.468 176.392 507.622 176.619 507.24 177.281L504.046 182.813L502.392 176.642C502.194 175.904 501.436 175.466 500.698 175.664C499.959 175.862 499.521 176.621 499.719 177.359L501.373 183.529L495.84 180.335C495.178 179.953 494.332 180.18 493.95 180.842C493.568 181.503 493.794 182.35 494.456 182.732L499.989 185.926L493.819 187.58C493.081 187.778 492.642 188.536 492.84 189.274C493.038 190.013 493.797 190.451 494.535 190.253L500.705 188.599L497.511 194.132C497.129 194.794 497.356 195.64 498.018 196.022C498.679 196.404 499.526 196.177 499.908 195.515L503.102 189.983L504.755 196.154Z" fill="#FBFF3E"/>
<ellipse cx="533.467" cy="187.104" rx="2.64454" ry="2.64454" transform="rotate(-90 533.467 187.104)" fill="#FBFF3E"/>
</svg>
