<svg width="234" height="465" viewBox="0 0 234 465" fill="none" xmlns="http://www.w3.org/2000/svg">
<ellipse cx="116.934" cy="6.80487" rx="6.76154" ry="6.76154" transform="rotate(-180 116.934 6.80487)" fill="#E681FF"/>
<path fill-rule="evenodd" clip-rule="evenodd" d="M132.915 116.393L132.915 116.394L132.915 116.394C132.372 117.71 131.823 119.041 131.263 120.366C130.846 121.355 131.559 122.46 132.633 122.489C134.409 122.536 136.19 122.607 137.942 122.676L137.942 122.676L137.942 122.676L137.942 122.676L138.127 122.683C137.87 122.945 137.611 123.209 137.352 123.473L137.35 123.475L137.35 123.475C136.308 124.538 135.253 125.614 134.19 126.679C133.44 127.431 133.672 128.708 134.637 129.152C136.455 129.986 138.269 130.856 140.046 131.709L140.047 131.709L140.145 131.756L139.254 132.13L139.254 132.13L139.254 132.13L139.254 132.13L139.253 132.13L139.253 132.13C137.972 132.668 136.675 133.212 135.373 133.747C134.374 134.157 134.105 135.455 134.858 136.229C136.052 137.458 137.234 138.703 138.395 139.927C138.42 139.953 138.445 139.98 138.47 140.006C138.149 140.017 137.827 140.027 137.504 140.038C135.668 140.098 133.801 140.159 131.944 140.194C130.907 140.214 130.186 141.245 130.522 142.226C131.224 144.273 131.891 146.351 132.543 148.385L132.577 148.489L131.693 148.098L131.693 148.098L131.692 148.098C130.46 147.554 129.213 147.004 127.97 146.444C126.981 145.999 125.851 146.703 125.813 147.786C125.755 149.455 125.678 151.126 125.601 152.768L125.601 152.768L125.596 152.877L124.904 152.202C123.905 151.229 122.893 150.242 121.89 149.248C121.123 148.488 119.823 148.747 119.404 149.741C118.735 151.325 118.046 152.903 117.368 154.454L117.368 154.455L117.325 154.555L116.919 153.677L116.919 153.677L116.919 153.676C116.326 152.392 115.725 151.091 115.134 149.786C114.691 148.804 113.388 148.579 112.639 149.354C111.431 150.605 110.204 151.843 108.999 153.059L108.922 153.137L108.861 152.172C108.743 150.338 108.624 148.473 108.532 146.617C108.481 145.581 107.428 144.893 106.458 145.259C104.431 146.024 102.373 146.755 100.359 147.47L100.358 147.47L100.358 147.47L100.255 147.507L100.618 146.611C101.182 145.221 101.752 143.812 102.336 142.41C102.747 141.423 102.035 140.324 100.966 140.292C99.1422 140.239 97.3141 140.161 95.5191 140.084L95.519 140.084L95.5185 140.084L95.5182 140.084L95.4093 140.079L96.0815 139.385C97.229 138.199 98.3937 136.996 99.5686 135.81C100.314 135.056 100.082 133.783 99.119 133.341C97.4655 132.582 95.816 131.798 94.1947 131.027L94.0277 130.948C94.366 130.809 94.7056 130.669 95.0463 130.528L95.0536 130.525C96.2708 130.024 97.5015 129.516 98.7356 129.018C99.7406 128.612 100.012 127.307 99.2549 126.532C98.0895 125.339 96.9355 124.131 95.7995 122.942C95.7569 122.897 95.7143 122.853 95.6717 122.808C96.0401 122.799 96.4099 122.789 96.7809 122.779C98.5381 122.733 100.321 122.686 102.096 122.661C103.136 122.646 103.861 121.612 103.522 120.628C102.832 118.628 102.173 116.598 101.526 114.609L101.469 114.433C101.805 114.584 102.143 114.736 102.481 114.888L102.482 114.888C103.644 115.41 104.818 115.937 105.989 116.472C106.978 116.925 108.115 116.218 108.15 115.131C108.203 113.508 108.273 111.883 108.341 110.283L108.349 110.099C108.611 110.358 108.875 110.618 109.139 110.878L109.139 110.879C110.078 111.806 111.027 112.743 111.97 113.687C112.735 114.454 114.042 114.196 114.461 113.196C115.107 111.656 115.771 110.12 116.425 108.608L116.425 108.607L116.499 108.438C116.636 108.741 116.775 109.046 116.914 109.352L116.923 109.373L116.926 109.38L116.934 109.397L116.948 109.428L116.95 109.433L116.957 109.448L116.958 109.449L116.958 109.449C117.513 110.67 118.073 111.904 118.625 113.142C119.065 114.13 120.374 114.358 121.124 113.578C122.297 112.358 123.487 111.149 124.658 109.959L124.787 109.827C124.807 110.173 124.827 110.52 124.847 110.868L124.85 110.928L124.851 110.935L124.851 110.935L124.851 110.935C124.952 112.691 125.054 114.473 125.134 116.247C125.18 117.286 126.237 117.979 127.209 117.61C129.188 116.858 131.196 116.137 133.165 115.43L133.165 115.43L133.339 115.368C133.198 115.707 133.058 116.048 132.916 116.39L132.915 116.393L132.915 116.393ZM148.986 100.605C142.455 93.94 138.111 103.823 133.339 115.368C145.226 111.099 155.583 107.335 148.986 100.605ZM132.481 89.7369C123.705 86.5659 124.078 97.3546 124.787 109.827C133.646 100.823 141.345 92.9396 132.481 89.7369ZM116.428 86.9251C107.098 87.1334 111.338 97.0611 116.499 108.438C121.513 96.8449 125.85 86.7147 116.428 86.9251ZM100.598 90.0312C91.9583 93.5587 99.4651 101.316 108.349 110.099C108.891 97.4796 109.323 86.4686 100.598 90.0312ZM87.1941 98.3394C80.332 104.663 90.0764 109.309 101.469 114.433C97.5677 102.42 94.1245 91.9525 87.1941 98.3394ZM75.8296 114.496C79.305 105.736 86.9467 113.675 95.6717 122.808C83.1835 123.131 72.3885 123.17 75.8296 114.496ZM72.526 130.257C72.4038 139.588 82.4753 135.702 94.0277 130.948C82.6197 125.526 72.6495 120.833 72.526 130.257ZM75.7033 147.816C79.2614 156.441 86.8096 148.955 95.4093 140.079C82.9385 139.543 72.1101 139.102 75.7033 147.816ZM84.8859 162.066C91.4175 168.729 95.6095 158.959 100.255 147.507C88.4929 151.684 78.2887 155.334 84.8859 162.066ZM101.39 172.922C110.166 176.092 109.704 165.471 108.922 153.137C100.136 162.003 92.526 169.719 101.39 172.922ZM117.437 175.725C126.765 175.515 122.504 165.776 117.325 154.555C112.329 165.994 108.014 175.935 117.437 175.725ZM133.264 172.61C141.902 169.082 134.442 161.508 125.596 152.877C125.017 165.346 124.538 176.173 133.264 172.61ZM146.657 164.298C153.517 157.974 143.881 153.484 132.577 148.489C136.391 160.374 139.726 170.686 146.657 164.298ZM158.013 148.147C154.537 156.907 147.06 149.062 138.47 140.006C150.822 139.606 161.452 139.473 158.013 148.147ZM161.306 132.393C161.427 123.064 151.542 126.978 140.145 131.756C151.4 137.154 161.182 141.818 161.306 132.393ZM138.127 122.683C150.748 123.181 161.761 123.574 158.168 114.861C154.61 106.234 146.879 113.768 138.127 122.683Z" fill="#E681FF"/>
<path d="M124.113 50.1061C122.663 48.8034 121.868 46.8825 122.034 44.9404C122.034 44.9392 122.034 44.9379 122.035 44.9367C122.23 44.9215 122.426 44.9067 122.62 44.8919C127.816 44.4969 132.351 44.1522 127.653 39.5985C122.89 34.9817 122.486 39.6788 122.035 44.9367C121.853 44.9507 121.67 44.9651 121.488 44.9798C119.783 45.1178 118.091 44.416 117.028 43.0756L117.24 42.8291C120.663 38.8558 123.705 35.3243 117.189 35.1687C110.633 35.0122 113.644 38.8094 116.996 43.0348L117.028 43.0756C115.714 44.6025 113.716 45.4204 111.711 45.2258L111.681 44.9019C111.197 39.6801 110.766 35.0389 106.131 39.6213C101.467 44.2315 106.291 44.6997 111.659 45.2207L111.711 45.2258C111.888 47.132 111.081 49.0297 109.569 50.2035L109.324 49.9888C105.387 46.5246 101.888 43.4456 101.664 49.9599C101.438 56.5138 105.267 53.5422 109.527 50.2354L109.569 50.2035C111.094 51.5444 111.905 53.5624 111.703 55.5832C111.595 55.593 111.487 55.6027 111.379 55.6124C106.156 56.0832 101.514 56.5016 106.085 61.1487C110.683 65.8241 111.164 61.0015 111.698 55.6349C111.7 55.6177 111.702 55.6004 111.703 55.5832C113.68 55.4042 115.646 56.226 116.901 57.7643C116.94 57.8122 116.979 57.86 117.018 57.9077L117.02 57.9107C116.89 58.0578 116.76 58.2044 116.631 58.3502C113.175 62.2506 110.159 65.6543 116.701 65.6543C123.334 65.6543 120.356 62.0002 117.02 57.9107C117.105 57.8146 117.19 57.7183 117.275 57.6217C118.552 56.1705 120.453 55.3692 122.379 55.5296L122.383 55.53C122.399 55.7256 122.414 55.9208 122.43 56.1151C122.838 61.3105 123.194 65.8442 127.736 61.1351C132.34 56.3605 127.642 55.968 122.383 55.53C122.374 55.4123 122.364 55.2944 122.355 55.1764C122.204 53.3415 122.961 51.5184 124.4 50.3698L124.403 50.3673C124.549 50.4988 124.694 50.6302 124.838 50.761C128.702 54.258 132.074 57.3096 132.143 50.7675C132.212 44.1346 128.527 47.0749 124.403 50.3673C124.306 50.2803 124.21 50.1932 124.113 50.1061Z" fill="#E681FF"/>
<path fill-rule="evenodd" clip-rule="evenodd" d="M218.262 367.79C226.093 354.649 211.024 347.884 190.573 342.489C212.141 344.759 231.023 342.622 233.617 325.846C235.674 312.539 223.133 310.459 205.79 311.965C223.106 306.303 235.733 297.77 232.579 283.197C228.973 266.532 209.965 275.061 188.563 287.174C188.224 285.398 187.59 283.674 186.821 282.04C205.918 266.122 221.14 248.531 209.143 233.827C199.006 221.403 182.962 239.967 173.861 250.498C172.292 252.313 170.93 253.889 169.84 255.027C180.332 232.635 186.556 210.428 169.548 202.21C158.992 197.11 150.988 217.622 148.303 225.688C148.092 226.32 147.712 226.854 147.2 227.28C147.034 227.418 146.767 227.31 146.764 227.095C146.482 207.575 142.068 191.606 126.423 190.569C122.457 190.307 119.577 191.226 117.564 193.093C111.919 197.642 106.576 209.027 110.323 225.334C100.989 204.534 90.3753 191.666 74.3945 198.708C67.7383 201.642 63.0643 207.439 71.798 222.154C72.7891 223.919 73.9098 225.894 74.9036 227.601C63.5218 217.788 52.0492 213.251 41.9936 221.53C32.7307 229.156 38.0515 237.85 49.1854 247.028C34.8114 241.417 22.1438 240.853 15.4041 252.279C7.63052 265.458 22.736 272.156 43.2171 277.46C21.6352 275.285 2.75671 277.504 0.237193 294.293C-1.76114 307.61 10.79 309.634 28.1276 308.051C10.8361 313.79 -1.75451 322.379 1.4642 336.938C4.77691 351.924 20.5473 346.364 39.3121 337.361C39.4717 338.973 39.7248 339.593 40.4171 341.288L40.44 341.345C40.6971 341.974 40.9729 342.556 41.2669 343.092C25.2649 357.647 14.3513 373.123 25.1196 386.202C31.2638 393.665 38.1004 391.661 45.3255 384.779C50.7369 380.187 58.4065 371.523 61.9065 367.362L61.9125 367.373C62.1323 367.779 62.3726 368.179 62.634 368.572C53.3249 389.698 48.7602 409.952 64.8549 417.641C74.1346 422.074 79.5966 416.465 83.2432 405.975C84.8073 402.462 86.4347 397.711 87.5644 394.148C88.1337 412.981 92.7826 428.149 108.032 429.091C117.233 429.659 119.377 421.433 120.773 414.729C122.169 408.025 122.537 394.99 115.929 378.871C116.066 377.747 116.15 376.558 116.189 375.311C126.5 402.024 139.928 429.029 160.023 420.72C171.377 416.025 168.986 406.87 160.57 394.444L161.283 394.832C172.003 400.674 182.059 406.153 191.537 398.42C200.833 390.836 195.552 382.12 184.461 372.893C198.809 378.567 211.472 379.186 218.262 367.79ZM114.6 384.393C112.811 388.777 109.366 391.07 103.448 390.26C97.4358 389.438 93.4314 386.301 90.8877 381.606C91.4437 394.884 95.2141 405.186 106.362 406.25C114.203 406.998 117.476 399.323 117.055 393.641C116.633 387.959 115.679 386.909 114.6 384.393ZM66.2577 372.488C63.5419 382.771 64.488 391.466 73.0104 395.893C84.5905 401.908 87.8 387.757 89.6769 379.481L89.7485 379.165C87.9275 374.618 87.1591 368.968 87.0752 362.724C81.337 373.52 74.8733 379.174 66.5916 372.752C66.4787 372.665 66.3674 372.576 66.2577 372.488ZM60.844 364.883C58.6348 358.118 61.1405 349.829 65.9803 341.079C57.1942 347.061 49.5702 350.181 44.5074 346.801C38.5192 354.524 36.3197 362.304 41.8441 369.49C42.9313 370.904 44.061 371.92 45.2289 372.581C48.2247 374.277 51.8917 372.798 54.6988 370.805C56.7886 369.322 59.0688 367.319 60.7823 364.885L60.844 364.883ZM79.3089 230.972C80.0535 232.161 80.9336 233.258 81.9088 234.267C82.887 235.278 83.8622 236.318 84.8334 237.38C85.1462 237.237 85.4666 237.098 85.7948 236.964C92.2552 234.327 96.1975 235.166 99.323 237.82C101.072 239.335 102.401 240.846 103.848 242.49C104.597 243.341 105.377 244.227 106.263 245.169C106.826 244.138 107.425 243.163 108.062 242.248C101.46 228.182 93.0063 218.112 81.2613 222.455C81.1135 222.51 80.9687 222.566 80.8266 222.623C77.5436 223.943 77.4308 227.973 79.3089 230.972ZM113.023 237.044C113.569 236.644 114.033 236.334 114.722 235.946C116.018 235.216 116.807 234.896 118.232 234.467C121.356 233.525 123.46 233.556 126.573 233.982C140.862 235.936 136.708 245.91 128.703 258.931C128.825 259.021 128.943 259.113 129.057 259.208C132.217 255.826 135.438 252.819 138.699 250.435C139.474 233.312 136.809 218.637 123.398 217.297C119.478 216.905 116.832 217.997 115.146 220.211C112.555 223.611 112.227 229.658 113.023 237.044ZM146.532 229.675C143.054 233.78 140.745 241.392 138.852 250.324C147.343 244.171 156.102 242.263 164.758 248.973C164.839 249.036 164.919 249.099 164.998 249.161C167.077 239.817 165.742 231.994 157.829 227.838C154.395 226.035 149.899 227.657 148.11 228.445C147.487 228.795 146.949 229.248 146.532 229.675ZM184.825 278.634C191.794 270.426 194.746 262.083 188.878 254.379C181.816 245.108 175.038 253.235 169.515 259.858L169.514 259.858C164.937 265.346 159.537 268.754 153.233 272.126L153.18 272.155C153.774 272.471 154.36 272.823 154.938 273.214C155.031 273.19 155.216 273.142 155.216 273.142L157.994 272.478C166.994 270.626 178.054 269.302 184.825 278.634ZM119.239 373.24C126.382 391.157 135.736 406.134 149.601 400.936C154.83 398.976 156.257 396.457 155.516 391.94C153.379 390.814 151.028 388.94 148.779 387.146L148.778 387.145C147.84 386.397 146.919 385.663 146.039 385.003C145.269 385.426 144.446 385.818 143.567 386.177C139.265 387.874 134.533 386.645 130.742 384.789C126.307 382.52 122.908 378.347 119.239 373.24ZM150.632 384.402C150.153 383.892 149.675 383.375 149.198 382.852C155.621 377.447 155.691 361.635 153.465 353.318C153.747 352.992 154.016 352.663 154.272 352.331C161.04 364.373 167.337 371.321 175.646 360.605C179.897 355.121 180.689 349.595 179.134 344.122C190.955 348.527 198.105 354.007 192.616 362.557C186.838 371.555 176.651 370.714 165.244 365.755C173.932 373.489 177.953 380.654 170.259 386.515C163.548 391.626 156.353 389.73 150.632 384.402ZM168.924 328.358C173.285 332.894 176.712 337.537 178.502 342.227C192.542 343.207 203.95 340.632 206.116 329.175C207.647 321.076 202.222 317.966 193.386 317.264C193.739 319.254 193.774 321.425 193.45 323.799C191.557 337.632 182.149 334.18 169.737 326.683C169.491 327.299 169.22 327.856 168.924 328.358ZM169.999 298.813C180.876 301.739 189.569 306.329 192.556 314.236C202.063 310.094 208.115 304.071 206.429 294.784C204.869 286.201 198.115 286.213 188.84 289.287C189.323 296.75 181.462 297.653 170.492 297.613L169.729 298.049C169.822 298.3 169.912 298.554 169.999 298.813ZM78.7378 241.635C74.9138 245.682 73.5657 251.157 73.82 257.451C69.9207 256.164 66.215 255.601 62.815 256.015C55.6431 249.082 52.8753 242.657 59.8757 237.276C65.0369 233.308 70.4201 233.178 75.9523 235.72C78.3954 237.198 80.3861 238.783 80.9189 239.884C80.6152 240.141 80.3867 240.302 80.1565 240.464L80.156 240.464C79.7904 240.721 79.4202 240.982 78.7378 241.635ZM60.7961 256.386C51.0955 253.056 42.6513 253.426 37.6247 261.331C31.0036 271.745 43.0075 277.548 59.3771 282.375C42.0383 280.036 26.7561 281.311 24.2727 294.776C22.7454 303.057 28.4555 306.099 37.6342 306.669C37.0216 305.035 36.8452 303.055 37.1709 300.674C38.8458 288.43 50.1178 284.513 64.6155 284.303C52.094 278.219 44.9255 271.391 51.867 262.439C54.4145 259.153 57.4316 257.227 60.7961 256.386ZM39.0998 309.14C28.9255 313.338 22.3133 319.5 24.1134 329.165C25.552 336.889 31.2382 338.097 39.1197 335.985C38.4095 327.007 45.618 319.639 56.0977 313.399C48.282 313.673 42.1399 312.638 39.0998 309.14ZM93.3028 325.715C85.31 327.54 79.5855 329.477 84.1266 335.457C87.0509 339.308 90.8946 339.886 95.1321 338.645C95.0135 342.584 95.4549 346.996 99.4176 348.661C103.981 350.578 107.665 349.042 110.759 345.687C112.795 349.728 115.752 352.175 120.173 351.615C125.727 350.913 125.607 346.02 123.356 339.517C128.496 344.511 133.804 347.082 138.668 343.389C142.792 340.257 140.92 336.449 136.501 332.329C143.465 334.095 149.365 333.676 151.735 328.036C153.918 322.84 149.55 320.501 142.717 319.204C149.53 317.244 154.333 313.937 153.572 307.923C152.922 302.788 148.691 302.503 142.916 304.269C147.925 299.122 150.51 293.805 146.811 288.933C143.426 284.475 139.25 287.023 134.745 292.221C136.007 287.225 137.066 278.732 131.367 276.338C124.097 273.284 119.061 278.991 115.08 286.858C117.491 279.037 118.665 273.126 111.223 274.067C103.081 275.098 101.781 283.139 102.449 292.407C100.416 283.172 98.7381 275.697 92.1435 280.704C85.8619 285.475 88.2904 292.693 93.1159 300.076C87.5438 294.073 83.0084 290.093 80.1016 297.012C76.8382 304.781 83.581 309.999 92.2715 314.104L91.4241 313.835C82.3583 310.962 74.9802 308.624 76.0239 316.873C77.0154 324.703 84.4892 326.206 93.3028 325.715Z" fill="#E681FF"/>
</svg>
