<svg width="229" height="465" viewBox="0 0 229 465" fill="none" xmlns="http://www.w3.org/2000/svg">
<ellipse cx="114.445" cy="6.80389" rx="6.76154" ry="6.76154" transform="rotate(-180 114.445 6.80389)" fill="#00394C"/>
<path fill-rule="evenodd" clip-rule="evenodd" d="M137.931 164.863C137.565 167.72 135.652 170.143 132.957 171.162L126.688 173.531C123.993 174.55 120.956 173.999 118.791 172.098L112.102 166.226C110.448 164.775 109.624 162.595 109.904 160.413C110.184 158.23 109.36 156.051 107.707 154.599C106.053 153.147 105.229 150.968 105.508 148.785L106.64 139.957C107.006 137.099 108.919 134.676 111.614 133.657L117.883 131.288C120.578 130.269 123.615 130.82 125.78 132.721L132.47 138.594C134.124 140.046 134.947 142.225 134.667 144.407C134.388 146.59 135.211 148.769 136.865 150.221C138.519 151.672 139.343 153.852 139.063 156.035L137.931 164.863ZM109.506 172.543C107.226 174.305 104.161 174.665 101.535 173.48L95.4259 170.722C92.8 169.537 91.0422 167 90.8552 164.125L90.2775 155.243C90.1346 153.047 91.0934 150.923 92.8349 149.578C94.5757 148.233 95.5343 146.11 95.3916 143.914C95.249 141.719 96.207 139.597 97.9476 138.252L104.991 132.808C107.271 131.046 110.337 130.686 112.963 131.871L119.071 134.628C121.697 135.814 123.455 138.351 123.642 141.226L124.219 150.11C124.362 152.305 123.403 154.429 121.662 155.774C119.921 157.119 118.963 159.242 119.106 161.437C119.249 163.633 118.291 165.755 116.55 167.1L109.506 172.543Z" fill="#00394C"/>
<path fill-rule="evenodd" clip-rule="evenodd" d="M122.248 122.581C121.882 125.439 119.969 127.861 117.274 128.88L111.004 131.25C108.31 132.268 105.273 131.717 103.107 129.816L96.4184 123.944C94.7646 122.493 93.9409 120.314 94.2208 118.131C94.5006 115.948 93.6768 113.769 92.0232 112.317C90.3694 110.865 89.5453 108.686 89.8251 106.503L90.9564 97.6747C91.3226 94.8169 93.2357 92.3942 95.9308 91.3755L102.2 89.0058C104.895 87.987 107.932 88.5383 110.097 90.4391L116.787 96.3125C118.44 97.7642 119.264 99.9429 118.984 102.125C118.704 104.308 119.528 106.487 121.182 107.939C122.836 109.391 123.66 111.57 123.38 113.753L122.248 122.581ZM123.895 129.724C121.615 131.486 118.55 131.846 115.924 130.661L109.815 127.903C107.189 126.718 105.431 124.181 105.244 121.306L104.667 112.424C104.524 110.228 105.482 108.105 107.224 106.759C108.965 105.414 109.923 103.291 109.78 101.096C109.638 98.9004 110.596 96.7779 112.336 95.4327L119.38 89.9892C121.66 88.2274 124.726 87.8671 127.352 89.0524L133.46 91.8095C136.086 92.9948 137.844 95.5322 138.031 98.4073L138.608 107.291C138.751 109.487 137.792 111.61 136.051 112.955C134.31 114.3 133.352 116.423 133.495 118.618C133.638 120.814 132.68 122.936 130.939 124.281L123.895 129.724Z" fill="#00394C"/>
<path fill-rule="evenodd" clip-rule="evenodd" d="M99.9574 169.613C97.3912 170.922 94.3119 170.709 91.9505 169.059L86.4569 165.219C84.0955 163.569 82.8373 160.75 83.1852 157.89L84.2601 149.055C84.5259 146.87 85.8605 144.961 87.8208 143.96C89.7809 142.96 91.1155 141.051 91.3814 138.866C91.6473 136.682 92.9819 134.772 94.942 133.771L102.87 129.725C105.436 128.415 108.516 128.628 110.877 130.279L116.37 134.118C118.732 135.769 119.99 138.587 119.642 141.447L118.566 150.284C118.3 152.469 116.966 154.378 115.006 155.378C113.046 156.378 111.711 158.288 111.446 160.472C111.18 162.657 109.845 164.567 107.885 165.567L99.9574 169.613ZM77.5766 150.479C74.836 149.591 72.8092 147.263 72.3064 144.426L71.1369 137.827C70.6342 134.99 71.7375 132.107 74.0057 130.331L81.0126 124.844C82.7458 123.487 85.0412 123.08 87.1352 123.759C89.2281 124.438 91.5222 124.032 93.2546 122.675C94.9867 121.319 97.2798 120.913 99.3726 121.591L107.841 124.336C110.581 125.225 112.608 127.553 113.111 130.39L114.281 136.989C114.783 139.825 113.68 142.708 111.411 144.485L104.403 149.972C102.67 151.329 100.375 151.735 98.2811 151.056C96.1883 150.378 93.8943 150.784 92.1622 152.14C90.43 153.497 88.1368 153.903 86.044 153.225L77.5766 150.479Z" fill="#00394C"/>
<path fill-rule="evenodd" clip-rule="evenodd" d="M126.02 132.815C123.454 134.125 120.374 133.911 118.013 132.261L112.519 128.421C110.158 126.771 108.9 123.953 109.248 121.093L110.323 112.257C110.588 110.073 111.923 108.163 113.883 107.163C115.843 106.162 117.178 104.253 117.444 102.068C117.71 99.8839 119.044 97.9742 121.004 96.9738L128.932 92.9275C131.498 91.6177 134.578 91.8306 136.94 93.4812L142.433 97.3204C144.794 98.9709 146.052 101.79 145.704 104.65L144.629 113.487C144.363 115.671 143.028 117.58 141.068 118.58C139.108 119.581 137.774 121.49 137.508 123.675C137.242 125.859 135.908 127.769 133.948 128.769L126.02 132.815ZM121.046 138.207C118.306 137.319 116.279 134.991 115.776 132.154L114.607 125.554C114.104 122.717 115.207 119.835 117.476 118.058L124.484 112.571C126.216 111.214 128.51 110.808 130.603 111.486C132.696 112.165 134.99 111.758 136.722 110.402C138.455 109.045 140.75 108.638 142.844 109.316L151.31 112.061C154.051 112.949 156.078 115.278 156.581 118.115L157.75 124.713C158.253 127.55 157.149 130.433 154.881 132.209L147.871 137.698C146.139 139.054 143.846 139.461 141.753 138.782C139.66 138.103 137.366 138.51 135.634 139.867C133.901 141.224 131.606 141.631 129.512 140.952L121.046 138.207Z" fill="#00394C"/>
<path fill-rule="evenodd" clip-rule="evenodd" d="M73.7541 136.217C71.4038 134.55 70.1645 131.723 70.5316 128.866L71.3857 122.218C71.7528 119.361 73.6664 116.939 76.3615 115.921L84.6879 112.776C86.7467 111.998 89.0573 112.295 90.8527 113.568C92.6478 114.841 94.9587 115.137 97.0173 114.36C99.0762 113.582 101.387 113.879 103.183 115.152L110.444 120.299C112.794 121.965 114.034 124.792 113.667 127.65L112.813 134.297C112.446 137.155 110.532 139.577 107.837 140.594L99.5085 143.74C97.45 144.517 95.1397 144.22 93.3447 142.948C91.5495 141.675 89.2387 141.378 87.1801 142.156C85.1212 142.934 82.8102 142.637 81.0147 141.364L73.7541 136.217ZM80.3263 107.521C79.8426 104.68 80.9653 101.805 83.2455 100.044L88.55 95.9475C90.8301 94.1865 93.8958 93.8271 96.5214 95.013L104.633 98.6769C106.639 99.5826 108.063 101.426 108.432 103.595C108.801 105.764 110.225 107.608 112.23 108.514C114.236 109.42 115.66 111.264 116.03 113.433L117.525 122.207C118.009 125.048 116.886 127.923 114.606 129.684L109.302 133.781C107.022 135.542 103.956 135.901 101.33 134.715L93.2168 131.05C91.2117 130.144 89.7882 128.301 89.4188 126.132C89.0494 123.963 87.6254 122.119 85.6202 121.214C83.6145 120.308 82.1902 118.464 81.8207 116.295L80.3263 107.521Z" fill="#00394C"/>
<path fill-rule="evenodd" clip-rule="evenodd" d="M118.445 142.241C116.094 140.575 114.855 137.748 115.222 134.891L116.076 128.243C116.443 125.385 118.357 122.964 121.052 121.946L129.378 118.8C131.437 118.023 133.748 118.32 135.543 119.592C137.338 120.865 139.649 121.162 141.708 120.385C143.767 119.607 146.078 119.904 147.873 121.176L155.134 126.323C157.485 127.99 158.724 130.817 158.357 133.675L157.503 140.322C157.136 143.179 155.222 145.601 152.527 146.619L144.199 149.764C142.14 150.542 139.83 150.245 138.035 148.972C136.24 147.7 133.929 147.403 131.871 148.181C129.812 148.958 127.501 148.662 125.705 147.389L118.445 142.241ZM111.359 140.337C110.876 137.497 111.998 134.622 114.278 132.861L119.583 128.764C121.863 127.003 124.929 126.644 127.554 127.83L135.666 131.494C137.672 132.399 139.095 134.243 139.465 136.412C139.834 138.581 141.258 140.425 143.263 141.331C145.269 142.237 146.694 144.081 147.063 146.25L148.558 155.024C149.042 157.864 147.919 160.74 145.639 162.501L140.335 166.597C138.055 168.358 134.989 168.718 132.363 167.532L124.25 163.867C122.245 162.961 120.822 161.118 120.452 158.949C120.083 156.78 118.659 154.936 116.653 154.031C114.648 153.125 113.223 151.281 112.854 149.111L111.359 140.337Z" fill="#00394C"/>
<path d="M108.277 64.3231C108.276 64.3289 108.279 64.3348 108.283 64.3383L110.869 66.3073C111.918 67.1059 113.321 67.2609 114.519 66.7101L117.634 65.2776C117.641 65.2745 117.649 65.2773 117.652 65.2838C117.654 65.2882 117.659 65.2911 117.664 65.2912L120.915 65.3644C122.232 65.3941 123.458 64.6945 124.103 63.5454L125.78 60.5579C125.784 60.5507 125.793 60.5479 125.801 60.5517C125.806 60.5543 125.812 60.5539 125.816 60.5507L128.489 58.6998C129.572 57.9493 130.153 56.6622 129.999 55.3531L129.6 51.9501C129.599 51.9415 129.605 51.9337 129.613 51.9324C129.619 51.9315 129.624 51.9274 129.626 51.9218L130.7 48.8543C131.135 47.6101 130.849 46.2273 129.955 45.2585L127.63 42.7392C127.625 42.7335 127.625 42.7247 127.631 42.7192C127.635 42.7155 127.636 42.71 127.634 42.7049L126.7 39.5913C126.321 38.3289 125.276 37.3787 123.984 37.1203L120.623 36.4485C120.615 36.4469 120.61 36.4393 120.612 36.4314C120.612 36.4259 120.61 36.4203 120.606 36.417L118.02 34.4478C116.971 33.6491 115.567 33.4941 114.37 34.0449L111.255 35.4771C111.248 35.4805 111.239 35.4775 111.236 35.4703C111.233 35.4654 111.228 35.4622 111.223 35.4621L107.973 35.3889C106.655 35.3592 105.428 36.059 104.783 37.2085L103.106 40.1974C103.102 40.2043 103.093 40.2069 103.086 40.2033C103.082 40.2008 103.076 40.2011 103.071 40.2042L100.399 42.0558C99.3155 42.806 98.7347 44.0926 98.8884 45.4012L99.2879 48.8034C99.2889 48.8116 99.2831 48.8191 99.2749 48.8204C99.2693 48.8212 99.2646 48.8251 99.2628 48.8305L98.1891 51.8981C97.7536 53.1424 98.0402 54.5255 98.9342 55.4944L101.259 58.0136C101.264 58.0194 101.264 58.0286 101.258 58.0342C101.254 58.0381 101.253 58.0438 101.255 58.049L102.189 61.1626C102.568 62.425 103.613 63.3753 104.905 63.6336L108.265 64.3049C108.273 64.3066 108.279 64.3147 108.277 64.3231Z" fill="#00394C"/>
<path fill-rule="evenodd" clip-rule="evenodd" d="M113.486 409.737C113.463 409.72 113.452 409.692 113.457 409.665C113.463 409.624 113.437 409.586 113.397 409.578L96.2603 406.153C89.6694 404.836 84.3429 399.99 82.4105 393.553L77.6456 377.68C77.6373 377.652 77.6449 377.622 77.6654 377.602C77.6952 377.572 77.6963 377.524 77.6678 377.493L65.8184 364.652C61.2609 359.713 59.8001 352.662 62.0202 346.319L67.4954 330.675C67.5049 330.648 67.5285 330.628 67.5569 330.624C67.5982 330.618 67.6271 330.58 67.6222 330.538L65.5844 313.184C64.8006 306.509 67.7632 299.946 73.2879 296.119L86.9101 286.682C86.9342 286.666 86.9655 286.664 86.9915 286.677C87.0294 286.697 87.076 286.683 87.0969 286.645L95.6464 271.41C98.935 265.55 105.189 261.982 111.907 262.133L128.479 262.507C128.507 262.507 128.533 262.523 128.545 262.548C128.564 262.585 128.607 262.6 128.644 262.583L144.523 255.281C150.629 252.473 157.786 253.263 163.133 257.335L176.318 267.376C176.341 267.394 176.352 267.422 176.348 267.45C176.341 267.491 176.368 267.531 176.409 267.539L193.543 270.964C200.133 272.281 205.459 277.127 207.391 283.563L212.157 299.438C212.165 299.465 212.158 299.494 212.138 299.513C212.109 299.542 212.108 299.589 212.135 299.619L223.986 312.462C228.543 317.402 230.004 324.453 227.784 330.797L222.309 346.44C222.299 346.467 222.276 346.487 222.247 346.491C222.206 346.498 222.177 346.536 222.182 346.577L224.22 363.932C225.003 370.606 222.041 377.169 216.516 380.995L202.891 390.433C202.868 390.45 202.837 390.452 202.811 390.438C202.774 390.419 202.728 390.433 202.708 390.469L194.156 405.705C190.867 411.565 184.613 415.133 177.894 414.982L161.324 414.608C161.296 414.608 161.27 414.592 161.258 414.567C161.239 414.53 161.196 414.515 161.158 414.532L145.282 421.833C139.176 424.641 132.019 423.851 126.672 419.779L113.486 409.737ZM105.338 378.352C105.327 378.335 105.327 378.313 105.337 378.296C105.352 378.27 105.344 378.237 105.319 378.222L94.6688 371.483C90.5728 368.892 88.2408 364.252 88.6052 359.418L89.504 347.498C89.5056 347.478 89.5183 347.46 89.537 347.452C89.5644 347.44 89.5773 347.408 89.5662 347.381L84.911 335.67C83.1206 331.165 83.9613 326.041 87.0969 322.345L94.8299 313.23C94.8433 313.214 94.8644 313.207 94.8847 313.211C94.9142 313.218 94.9435 313.199 94.9509 313.17L98.0685 300.961C99.2677 296.264 102.96 292.613 107.669 291.466L119.282 288.637C119.302 288.632 119.323 288.638 119.337 288.654C119.357 288.677 119.392 288.679 119.415 288.66L129.114 280.614C132.844 277.519 137.978 276.735 142.462 278.575L153.523 283.114C153.541 283.121 153.553 283.138 153.555 283.157C153.558 283.185 153.582 283.206 153.61 283.204L166.19 282.396C171.027 282.085 175.641 284.468 178.187 288.593L184.465 298.763C184.477 298.781 184.477 298.804 184.466 298.823C184.451 298.849 184.459 298.883 184.485 298.9L195.135 305.639C199.231 308.231 201.563 312.872 201.199 317.706L200.301 329.623C200.299 329.644 200.286 329.662 200.267 329.67C200.24 329.682 200.227 329.714 200.238 329.742L204.892 341.453C206.683 345.957 205.842 351.082 202.706 354.778L194.973 363.893C194.96 363.909 194.939 363.916 194.919 363.911C194.889 363.905 194.86 363.923 194.853 363.952L191.735 376.161C190.537 380.856 186.845 384.507 182.136 385.654L170.521 388.483C170.501 388.488 170.48 388.481 170.466 388.466C170.446 388.443 170.412 388.441 170.389 388.46L160.689 396.505C156.958 399.6 151.824 400.384 147.34 398.544L136.282 394.006C136.263 393.998 136.25 393.981 136.248 393.961C136.246 393.933 136.22 393.911 136.192 393.913L123.614 394.721C118.777 395.032 114.163 392.648 111.617 388.524L105.338 378.352ZM52.57 409.737C52.5476 409.72 52.5364 409.692 52.541 409.665C52.5476 409.624 52.5209 409.586 52.4808 409.578L35.3445 406.153C28.7535 404.836 23.4269 399.99 21.4944 393.553L16.7296 377.68C16.7213 377.652 16.7289 377.622 16.7494 377.602C16.7793 377.572 16.7804 377.524 16.7519 377.493L4.90292 364.652C0.345299 359.713 -1.11547 352.662 1.10467 346.319L6.57977 330.675C6.58924 330.648 6.61289 330.628 6.64124 330.624C6.68255 330.618 6.71144 330.58 6.70655 330.538L4.66871 313.184C3.8849 306.509 6.8475 299.946 12.3721 296.119L25.9944 286.682C26.0185 286.666 26.0499 286.664 26.076 286.677C26.1139 286.697 26.1606 286.683 26.1815 286.645L34.731 271.41C38.0196 265.55 44.2732 261.982 50.9914 262.133L67.5642 262.507C67.5921 262.507 67.6173 262.523 67.6298 262.548C67.6481 262.584 67.6917 262.6 67.7286 262.583L83.6065 255.281C89.7123 252.473 96.8691 253.263 102.216 257.335L115.402 267.376C115.424 267.394 115.436 267.422 115.431 267.45C115.425 267.491 115.452 267.53 115.492 267.539L132.627 270.964C139.218 272.281 144.543 277.127 146.476 283.564L151.241 299.438C151.249 299.465 151.242 299.494 151.222 299.513C151.193 299.542 151.192 299.589 151.22 299.619L163.07 312.462C167.628 317.402 169.088 324.453 166.868 330.797L161.393 346.44C161.384 346.467 161.36 346.487 161.332 346.491C161.29 346.498 161.261 346.536 161.266 346.577L163.304 363.931C164.088 370.606 161.125 377.169 155.6 380.996L141.975 390.433C141.952 390.45 141.921 390.452 141.896 390.439C141.859 390.419 141.813 390.433 141.793 390.469L133.241 405.705C129.952 411.566 123.698 415.133 116.98 414.982L100.409 414.608C100.381 414.608 100.356 414.592 100.343 414.567C100.325 414.53 100.28 414.514 100.243 414.532L84.3666 421.833C78.2603 424.641 71.1029 423.851 65.7558 419.779L52.57 409.737ZM44.4223 378.352C44.4117 378.335 44.4115 378.313 44.4217 378.296C44.4365 378.27 44.4286 378.238 44.4037 378.222L33.7533 371.483C29.657 368.892 27.3249 364.251 27.6894 359.418L28.588 347.499C28.5896 347.478 28.6027 347.46 28.622 347.451C28.6501 347.439 28.6634 347.407 28.6521 347.378L23.9967 335.667C22.206 331.162 23.0468 326.037 26.1829 322.34L33.9152 313.226C33.9286 313.21 33.9498 313.203 33.9701 313.207C33.9998 313.214 34.0292 313.196 34.0368 313.166L37.1539 300.958C38.3528 296.263 42.0445 292.612 46.753 291.465L58.3669 288.636C58.3871 288.631 58.4084 288.637 58.4222 288.653C58.4424 288.675 58.4768 288.678 58.5001 288.659L68.1989 280.613C71.9291 277.518 77.0623 276.734 81.5463 278.574L92.6064 283.113C92.6249 283.12 92.6377 283.137 92.6397 283.157C92.6426 283.186 92.6679 283.208 92.697 283.206L105.276 282.398C110.113 282.087 114.727 284.471 117.273 288.595L123.552 298.767C123.563 298.784 123.563 298.806 123.553 298.823C123.538 298.849 123.546 298.882 123.571 298.898L134.221 305.637C138.316 308.229 140.648 312.869 140.284 317.702L139.385 329.62C139.384 329.641 139.371 329.659 139.352 329.667C139.325 329.68 139.311 329.711 139.323 329.739L143.978 341.452C145.768 345.957 144.927 351.082 141.791 354.779L134.059 363.893C134.046 363.909 134.024 363.916 134.004 363.911C133.974 363.905 133.945 363.923 133.937 363.953L130.82 376.16C129.621 380.856 125.93 384.507 121.221 385.654L109.606 388.483C109.586 388.487 109.565 388.481 109.551 388.465C109.531 388.443 109.497 388.44 109.473 388.46L99.7736 396.505C96.0428 399.6 90.9091 400.384 86.4248 398.543L75.3663 394.005C75.3479 393.998 75.3352 393.981 75.3332 393.961C75.3303 393.932 75.3052 393.911 75.2763 393.913L62.6989 394.721C57.8618 395.031 53.2478 392.648 50.7017 388.524L44.4223 378.352ZM52.571 352.265C52.548 352.247 52.5365 352.218 52.5412 352.19C52.548 352.148 52.5206 352.109 52.4792 352.1L35.3454 348.677C28.7545 347.36 23.428 342.514 21.4956 336.076L16.7304 320.202C16.7223 320.175 16.7298 320.145 16.75 320.125C16.7794 320.096 16.7805 320.049 16.7524 320.019L4.90278 307.177C0.345393 302.238 -1.11528 295.187 1.10472 288.844L6.58011 273.2C6.58954 273.173 6.61306 273.153 6.64128 273.149C6.68238 273.143 6.71112 273.105 6.70628 273.064L4.66858 255.711C3.88484 249.036 6.84712 242.474 12.3712 238.648L25.9947 229.21C26.0187 229.194 26.0498 229.192 26.0756 229.205C26.1133 229.224 26.1596 229.211 26.1804 229.174L34.7307 213.937C38.0195 208.076 44.2735 204.508 50.9921 204.66L67.5641 205.033C67.592 205.033 67.6173 205.049 67.6299 205.074C67.6481 205.111 67.6919 205.126 67.7288 205.109L83.6063 197.807C89.7122 195 96.8692 195.789 102.216 199.861L115.402 209.903C115.425 209.92 115.436 209.948 115.431 209.976C115.425 210.017 115.451 210.056 115.492 210.064L132.627 213.489C139.218 214.807 144.543 219.653 146.476 226.09L151.241 241.963C151.249 241.99 151.242 242.019 151.222 242.039C151.193 242.068 151.192 242.114 151.22 242.144L163.069 254.987C167.627 259.927 169.088 266.978 166.867 273.321L161.392 288.965C161.383 288.992 161.359 289.012 161.331 289.016C161.29 289.022 161.262 289.06 161.266 289.101L163.304 306.455C164.088 313.129 161.125 319.691 155.601 323.518L141.975 332.956C141.952 332.972 141.922 332.974 141.897 332.961C141.861 332.943 141.816 332.956 141.796 332.992L133.242 348.232C129.952 354.093 123.697 357.661 116.978 357.51L100.41 357.137C100.382 357.136 100.356 357.12 100.343 357.094C100.324 357.057 100.28 357.041 100.242 357.059L84.3663 364.359C78.2602 367.167 71.103 366.378 65.7561 362.306L52.571 352.265ZM44.4222 320.872C44.4117 320.855 44.4114 320.834 44.4215 320.816C44.4363 320.791 44.4284 320.758 44.4037 320.743L33.7532 314.004C29.657 311.413 27.3249 306.772 27.6893 301.939L28.588 290.02C28.5896 289.999 28.6027 289.981 28.622 289.972C28.6502 289.96 28.6635 289.927 28.6521 289.899L23.9967 278.187C22.206 273.682 23.0468 268.557 26.1829 264.86L33.915 255.747C33.9286 255.731 33.9498 255.723 33.9703 255.728C34.0002 255.734 34.0298 255.716 34.0374 255.686L37.1546 243.478C38.3537 238.782 42.0457 235.131 46.7547 233.983L58.3677 231.155C58.388 231.15 58.4093 231.156 58.4232 231.172C58.4435 231.195 58.4781 231.197 58.5015 231.178L68.199 223.133C71.929 220.038 77.0619 219.254 81.5455 221.094L92.6067 225.633C92.6249 225.641 92.6374 225.658 92.6394 225.677C92.6422 225.706 92.6671 225.727 92.6956 225.725L105.276 224.917C110.113 224.606 114.727 226.989 117.273 231.114L123.551 241.284C123.563 241.302 123.563 241.325 123.552 241.343C123.537 241.37 123.545 241.404 123.571 241.421L134.22 248.16C138.316 250.752 140.648 255.392 140.284 260.226L139.386 272.144C139.384 272.164 139.371 272.182 139.353 272.19C139.326 272.202 139.313 272.234 139.324 272.261L143.978 283.972C145.768 288.476 144.928 293.601 141.792 297.297L134.059 306.412C134.046 306.428 134.024 306.435 134.004 306.43C133.975 306.424 133.945 306.442 133.938 306.471L130.82 318.681C129.621 323.377 125.929 327.028 121.221 328.175L109.606 331.004C109.586 331.008 109.565 331.002 109.551 330.986C109.531 330.964 109.497 330.961 109.473 330.981L99.7746 339.025C96.0442 342.12 90.9111 342.903 86.4273 341.063L75.3676 336.525C75.3495 336.517 75.3369 336.5 75.3349 336.481C75.3321 336.452 75.3072 336.431 75.2786 336.433L62.6994 337.241C57.8619 337.552 53.2477 335.168 50.7013 331.044L44.4222 320.872ZM113.407 352.265C113.384 352.247 113.373 352.218 113.377 352.19C113.384 352.148 113.357 352.109 113.315 352.1L96.1814 348.677C89.5905 347.36 84.264 342.514 82.3316 336.076L77.5665 320.202C77.5583 320.175 77.5658 320.145 77.586 320.125C77.6154 320.096 77.6164 320.049 77.5884 320.019L65.7388 307.177C61.1813 302.238 59.7205 295.187 61.9406 288.844L67.4158 273.2C67.4253 273.173 67.4489 273.153 67.4772 273.149C67.5183 273.143 67.5471 273.105 67.5423 273.064L65.5046 255.711C64.7209 249.036 67.6831 242.474 73.2071 238.648L86.8308 229.21C86.8547 229.194 86.8858 229.192 86.9116 229.205C86.9492 229.224 86.9954 229.21 87.0161 229.174L95.5665 213.937C98.8553 208.076 105.109 204.508 111.828 204.66L128.399 205.033C128.428 205.033 128.453 205.05 128.466 205.075C128.484 205.111 128.528 205.127 128.566 205.11L144.443 197.808C150.549 195 157.706 195.79 163.053 199.862L176.239 209.904C176.262 209.921 176.273 209.949 176.268 209.977C176.262 210.017 176.288 210.056 176.329 210.064L193.464 213.49C200.054 214.807 205.38 219.653 207.312 226.089L212.078 241.963C212.086 241.99 212.078 242.019 212.058 242.039C212.029 242.068 212.028 242.114 212.056 242.144L223.906 254.987C228.463 259.927 229.924 266.978 227.704 273.321L222.228 288.965C222.219 288.992 222.195 289.012 222.167 289.016C222.126 289.022 222.098 289.06 222.102 289.101L224.14 306.455C224.924 313.129 221.961 319.691 216.437 323.518L202.811 332.956C202.788 332.972 202.758 332.974 202.732 332.961C202.696 332.942 202.651 332.956 202.631 332.992L194.077 348.232C190.787 354.093 184.532 357.661 177.813 357.51L161.245 357.137C161.216 357.136 161.191 357.12 161.178 357.094C161.159 357.057 161.115 357.042 161.077 357.059L145.202 364.359C139.096 367.167 131.939 366.378 126.592 362.306L113.407 352.265ZM105.258 320.873C105.248 320.855 105.247 320.834 105.258 320.816C105.272 320.791 105.264 320.758 105.24 320.743L94.5895 314.004C90.4935 311.413 88.1615 306.773 88.526 301.94L89.4248 290.02C89.4263 289.999 89.4392 289.981 89.4581 289.973C89.4858 289.961 89.4988 289.929 89.4877 289.901L84.8318 278.188C83.041 273.683 83.8819 268.557 87.0182 264.86L94.7496 255.747C94.7633 255.731 94.7849 255.724 94.8056 255.728C94.8358 255.735 94.8658 255.716 94.8735 255.686L97.9906 243.478C99.1897 238.782 102.882 235.131 107.591 233.984L119.203 231.155C119.224 231.15 119.245 231.157 119.26 231.173C119.28 231.196 119.315 231.198 119.339 231.179L129.036 223.134C132.767 220.039 137.9 219.255 142.383 221.095L153.444 225.634C153.463 225.642 153.475 225.658 153.477 225.678C153.48 225.706 153.505 225.727 153.533 225.725L166.112 224.918C170.949 224.607 175.563 226.99 178.109 231.115L184.388 241.285C184.399 241.303 184.399 241.326 184.388 241.344C184.373 241.371 184.381 241.405 184.407 241.421L195.056 248.16C199.152 250.752 201.484 255.392 201.12 260.226L200.221 272.145C200.22 272.165 200.207 272.183 200.189 272.191C200.162 272.203 200.149 272.234 200.16 272.261L204.814 283.972C206.605 288.476 205.764 293.601 202.628 297.297L194.895 306.412C194.882 306.428 194.861 306.435 194.84 306.43C194.811 306.424 194.782 306.442 194.774 306.471L191.657 318.681C190.457 323.378 186.765 327.029 182.056 328.176L170.442 331.005C170.422 331.01 170.4 331.003 170.387 330.988C170.366 330.965 170.332 330.962 170.308 330.982L160.61 339.026C156.879 342.12 151.746 342.904 147.262 341.064L136.203 336.526C136.185 336.518 136.172 336.501 136.17 336.482C136.167 336.453 136.142 336.432 136.114 336.434L123.535 337.241C118.698 337.552 114.084 335.169 111.537 331.044L105.258 320.873Z" fill="#00394C"/>
</svg>
