<svg width="557" height="1132" viewBox="0 0 557 1132" fill="none" xmlns="http://www.w3.org/2000/svg">
<ellipse cx="278.5" cy="17.4377" rx="16.454" ry="16.4798" transform="rotate(-180 278.5 17.4377)" fill="#FBFF3E"/>
<path fill-rule="evenodd" clip-rule="evenodd" d="M373.212 305.941C379.858 294.816 382.069 285.303 375.811 281.123C369.023 276.588 362.698 272.922 356.768 269.996C358.728 254.329 356.863 242.212 348.37 241.213C341.131 240.361 334.535 239.958 328.497 239.945C323.704 225.864 317.114 216.541 309.308 219.127C303.606 221.015 298.428 222.995 293.717 225.057C284.645 215.136 275.851 210.035 269.976 215.024C264.088 220.026 259.059 224.842 254.771 229.5C240.744 223.341 229.021 221.796 225.649 229.49C223.252 234.959 221.268 240.104 219.652 244.959C208.856 244.865 201.255 247.487 200.502 254.163C199.922 259.304 199.566 264.12 199.413 268.643C187.512 272.293 179.876 277.685 181.596 284.829C183.003 290.677 184.545 296.01 186.207 300.882C175.586 309.116 169.782 317.472 174.261 323.748C177.509 328.299 180.697 332.393 183.833 336.076C177.235 347.231 175.066 356.755 181.343 360.908C188.151 365.412 194.492 369.05 200.435 371.95C198.545 387.624 200.464 399.731 208.961 400.692C216.203 401.512 222.801 401.886 228.838 401.871C233.694 415.931 240.325 425.225 248.12 422.605C253.813 420.691 258.982 418.688 263.683 416.606C272.8 426.488 281.617 431.551 287.47 426.535C293.339 421.505 298.348 416.665 302.616 411.987C316.668 418.08 328.394 419.571 331.732 411.864C334.018 406.584 335.922 401.608 337.484 396.903C348.016 396.959 355.407 394.349 356.177 387.78C356.781 382.639 357.158 377.823 357.332 373.3C369.248 369.702 376.907 364.344 375.22 357.193C373.838 351.34 372.321 346.002 370.681 341.123C381.339 332.936 387.179 324.607 382.728 318.31C379.501 313.745 376.331 309.637 373.212 305.941ZM309.806 307.901C311.785 309.223 311.086 312.231 308.985 315.749C309.971 316.917 310.973 318.217 311.994 319.66C313.401 321.651 311.554 324.285 308.184 326.873C308.535 327.915 308.868 329.024 309.181 330.204C309.332 330.771 309.478 331.354 309.62 331.954C310.153 334.215 307.732 335.91 303.963 337.047C303.909 338.477 303.789 340 303.599 341.626C303.355 343.703 301.018 344.528 297.688 344.51C297.194 345.998 296.592 347.571 295.869 349.241C294.814 351.678 291.106 351.206 286.663 349.279C285.314 350.759 283.73 352.289 281.874 353.88C280.023 355.466 277.235 353.865 274.352 350.74C272.866 351.398 271.232 352.032 269.432 352.637C266.967 353.465 264.87 350.527 263.335 346.081C261.426 346.086 259.34 345.967 257.05 345.708C254.363 345.404 253.757 341.576 254.354 336.62C252.475 335.703 250.47 334.553 248.317 333.129C246.333 331.816 247.018 328.804 249.104 325.277C248.113 324.113 247.105 322.818 246.078 321.379C244.662 319.395 246.497 316.753 249.855 314.149C249.33 312.609 248.842 310.923 248.397 309.073C247.853 306.814 250.268 305.109 254.031 303.955C254.079 302.525 254.192 301.003 254.375 299.377C254.613 297.266 257.017 296.437 260.43 296.467C260.941 294.931 261.569 293.305 262.326 291.576C263.393 289.143 267.099 289.631 271.534 291.579C272.89 290.106 274.48 288.583 276.342 287.002C278.2 285.424 280.981 287.037 283.849 290.174C285.339 289.522 286.976 288.896 288.779 288.299C291.247 287.481 293.331 290.429 294.846 294.882C296.755 294.886 298.841 295.013 301.13 295.282C303.815 295.598 304.405 299.429 303.785 304.383C305.66 305.308 307.66 306.468 309.806 307.901Z" fill="#FBFF3E"/>
<path fill-rule="evenodd" clip-rule="evenodd" d="M294.844 93.5839C293.3 90.0366 291.346 87.9158 289.101 88.6597C288.67 88.8023 288.248 88.9464 287.835 89.092C286.729 87.6001 284.047 86.688 279.121 86.5702C271.254 86.3822 269.049 88.5368 269.811 92.0041C265.218 90.0753 261.432 89.6747 260.314 92.2256C260.217 92.4471 260.122 92.6669 260.029 92.8852C258.193 92.6736 255.688 93.9804 252.212 97.4223C247.585 102.003 246.796 104.906 248.369 106.824C246.023 107.981 244.721 109.462 245.155 111.267C245.326 111.976 245.502 112.663 245.684 113.328C243.183 113.442 241.569 115.997 241.341 122.62C241.136 128.594 242.311 131.321 244.404 131.972C243.465 134.434 243.515 136.418 245.068 137.446C246.4 138.327 247.68 139.112 248.912 139.808C246.614 141.674 247.002 144.7 252.1 149.891C257.13 155.014 260.136 155.458 262.038 153.206C263.635 157.087 265.685 159.469 268.046 158.675C268.35 158.573 268.649 158.471 268.944 158.367C269.903 159.949 272.625 160.872 277.935 160.872C285.91 160.872 288.175 158.698 287.447 155.296C291.991 157.158 295.72 157.512 296.816 154.979C296.866 154.866 296.914 154.753 296.962 154.64C298.751 154.899 301.246 153.534 304.787 149.857C309.169 145.307 310.089 142.389 308.819 140.46C310.998 139.334 312.19 137.904 311.78 136.168C311.6 135.405 311.414 134.668 311.221 133.956C313.814 134.083 315.437 131.59 315.511 124.589C315.57 118.964 314.523 116.164 312.709 115.242C313.57 112.889 313.485 110.995 311.984 109.992C310.532 109.022 309.142 108.168 307.807 107.418C310.385 105.672 310.086 102.706 304.586 97.3669C299.754 92.6758 296.766 91.93 294.844 93.5839Z" fill="#FBFF3E"/>
<path fill-rule="evenodd" clip-rule="evenodd" d="M467.613 713.588C477.892 689.402 479.708 669.68 465.983 663.015C451.097 655.786 437.38 650.172 424.661 645.936C424.274 613.922 417.184 590.1 399.848 590.444C385.071 590.737 371.709 591.753 359.578 593.399C346.063 566.44 330.254 549.537 315.286 556.892C304.353 562.265 294.498 567.676 285.605 573.121C264.643 555.704 245.57 547.891 235.146 559.54C224.698 571.217 215.925 582.285 208.597 592.827C178.721 584.339 154.747 584.482 150.096 600.87C146.79 612.519 144.224 623.402 142.318 633.601C120.607 636.402 106.064 643.773 106.394 657.39C106.648 667.878 107.261 677.652 108.202 686.779C85.3025 697.406 71.4528 710.352 76.8783 724.226C81.3201 735.584 85.8891 745.869 90.5723 755.196C71.509 774.677 62.1573 793.067 72.8865 804.435C80.6662 812.678 88.2009 820.019 95.5154 826.549C85.3418 850.784 83.6121 870.516 97.3672 877.119C112.285 884.282 126.027 889.835 138.764 894.014C139.294 926.024 146.49 949.812 163.823 949.391C178.598 949.032 191.955 947.956 204.078 946.256C217.712 973.155 233.597 989.988 248.532 982.567C259.441 977.146 269.271 971.692 278.138 966.207C299.18 983.534 318.29 991.265 328.663 979.568C339.063 967.841 347.788 956.732 355.07 946.154C384.979 954.507 408.949 954.255 413.526 937.848C416.662 926.609 419.114 916.084 420.953 906.199C442.121 903.396 456.245 896.108 455.98 882.699C455.773 872.206 455.203 862.426 454.302 853.292C477.248 842.767 491.154 829.884 485.79 815.986C481.4 804.611 476.878 794.308 472.238 784.962C491.387 765.566 500.821 747.217 490.142 735.801C482.4 727.524 474.898 720.15 467.613 713.588ZM386.261 692.647C393.099 676.559 394.307 663.441 385.178 659.008C375.277 654.2 366.153 650.465 357.694 647.648C357.436 626.357 352.72 610.514 341.191 610.742C331.362 610.937 322.475 611.613 314.406 612.708C305.417 594.779 294.902 583.537 284.948 588.429C277.676 592.002 271.121 595.601 265.206 599.223C251.264 587.639 238.579 582.443 231.646 590.191C224.697 597.958 218.862 605.319 213.988 612.331C194.117 606.685 178.171 606.78 175.078 617.68C172.88 625.427 171.173 632.664 169.905 639.447C155.465 641.31 145.792 646.212 146.012 655.269C146.181 662.244 146.589 668.745 147.214 674.814C131.984 681.883 122.773 690.493 126.381 699.72C129.336 707.275 132.375 714.115 135.49 720.319C122.809 733.276 116.589 745.509 123.725 753.07C128.899 758.552 133.911 763.435 138.775 767.777C132.01 783.894 130.861 797.016 140.009 801.408C149.931 806.172 159.071 809.866 167.543 812.645C167.895 833.937 172.681 849.761 184.21 849.481C194.037 849.242 202.92 848.527 210.984 847.396C220.052 865.287 230.618 876.483 240.551 871.547C247.807 867.941 254.345 864.313 260.244 860.665C274.237 872.188 286.946 877.328 293.845 869.549C300.762 861.749 306.565 854.361 311.408 847.326C331.301 852.881 347.244 852.714 350.289 841.802C352.374 834.328 354.005 827.329 355.228 820.756C369.307 818.891 378.701 814.044 378.525 805.125C378.387 798.147 378.007 791.642 377.409 785.567C392.67 778.567 401.919 769.998 398.352 760.755C395.432 753.189 392.424 746.336 389.337 740.12C402.074 727.219 408.349 715.015 401.246 707.422C396.096 701.917 391.107 697.012 386.261 692.647ZM446.56 730.423C453.398 714.335 454.606 701.217 445.477 696.784C435.576 691.976 426.452 688.241 417.993 685.424C417.735 664.132 413.019 648.289 401.489 648.518C391.662 648.713 382.775 649.389 374.707 650.483C365.718 632.551 355.202 621.307 345.247 626.199C337.975 629.773 331.42 633.372 325.505 636.994C311.563 625.41 298.878 620.213 291.945 627.962C284.995 635.728 279.161 643.09 274.287 650.102C254.416 644.456 238.47 644.551 235.377 655.451C233.178 663.2 231.471 670.439 230.203 677.223C215.763 679.086 206.09 683.988 206.309 693.045C206.478 700.02 206.886 706.521 207.511 712.59C192.282 719.659 183.071 728.269 186.679 737.496C189.633 745.051 192.672 751.891 195.787 758.095C183.107 771.053 176.887 783.285 184.023 790.846C189.197 796.328 194.208 801.211 199.073 805.553C192.308 821.67 191.158 834.792 200.306 839.184C210.229 843.948 219.369 847.642 227.841 850.421C228.192 871.713 232.978 887.537 244.508 887.257C254.335 887.019 263.218 886.303 271.281 885.172C280.35 903.063 290.915 914.259 300.849 909.323C308.105 905.717 314.643 902.09 320.541 898.441C334.535 909.964 347.244 915.104 354.143 907.325C361.059 899.525 366.862 892.137 371.706 885.102C391.599 890.657 407.542 890.49 410.586 879.578C412.672 872.104 414.302 865.104 415.525 858.531C429.605 856.667 439 851.819 438.824 842.901C438.686 835.922 438.306 829.418 437.708 823.343C452.969 816.343 462.218 807.774 458.651 798.53C455.731 790.964 452.723 784.112 449.636 777.895C462.373 764.994 468.648 752.79 461.545 745.198C456.395 739.692 451.405 734.787 446.56 730.423ZM376.361 764.978C383.199 748.89 384.407 735.772 375.279 731.339C365.377 726.531 356.254 722.796 347.794 719.979C347.536 698.688 342.82 682.844 331.291 683.073C321.463 683.268 312.577 683.944 304.509 685.039C295.519 667.106 285.003 655.862 275.048 660.755C267.776 664.328 261.221 667.927 255.306 671.549C241.365 659.965 228.679 654.769 221.746 662.517C214.797 670.284 208.962 677.645 204.088 684.657C184.217 679.011 168.271 679.106 165.178 690.006C162.98 697.753 161.273 704.99 160.006 711.773C145.565 713.636 135.892 718.538 136.111 727.595C136.28 734.57 136.688 741.071 137.313 747.14C122.083 754.208 112.872 762.818 116.481 772.046C119.435 779.6 122.474 786.441 125.589 792.644C112.908 805.602 106.688 817.835 113.824 825.396C118.998 830.878 124.01 835.76 128.874 840.103C122.109 856.22 120.96 869.342 130.108 873.734C140.03 878.498 149.17 882.192 157.642 884.971C157.994 906.263 162.78 922.087 174.309 921.807C184.136 921.568 193.02 920.853 201.083 919.722C210.151 937.613 220.717 948.809 230.65 943.873C237.906 940.267 244.444 936.639 250.343 932.991C264.336 944.513 277.045 949.654 283.944 941.875C290.861 934.075 296.664 926.687 301.507 919.651C321.4 925.207 337.343 925.04 340.388 914.127C342.472 906.656 344.103 899.658 345.326 893.087C359.406 891.222 368.801 886.375 368.625 877.456C368.487 870.478 368.108 863.973 367.509 857.898C382.77 850.898 392.019 842.329 388.452 833.086C385.532 825.52 382.524 818.667 379.437 812.451C392.174 799.55 398.449 787.346 391.346 779.753C386.196 774.247 381.207 769.342 376.361 764.978ZM522.31 729.892C539.223 701.578 544.851 677.366 528.923 666.726C511.647 655.186 495.549 645.853 480.457 638.406C485.445 598.531 480.699 567.694 459.083 565.15C440.658 562.982 423.869 561.956 408.504 561.924C396.304 526.085 379.532 502.356 359.663 508.937C345.15 513.744 331.971 518.783 319.983 524.031C296.892 498.781 274.51 485.796 259.558 498.496C244.57 511.226 231.771 523.484 220.858 535.338C185.158 519.663 155.321 515.732 146.738 535.313C140.637 549.233 135.586 562.327 131.474 574.684C103.996 574.446 84.6521 581.118 82.7355 598.109C81.2594 611.194 80.3524 623.453 79.9622 634.963C49.6719 644.253 30.2384 657.977 34.6148 676.159C38.1975 691.044 42.122 704.616 46.352 717.017C19.3189 737.975 4.54813 759.241 15.9477 775.215C24.2134 786.798 32.3285 797.218 40.3085 806.591C23.5175 834.983 17.9956 859.223 33.9717 869.792C51.299 881.256 67.4383 890.517 82.5636 897.896C77.7542 937.79 82.6382 968.603 104.264 971.05C122.697 973.136 139.49 974.088 154.855 974.051C167.214 1009.84 184.091 1033.49 203.931 1026.82C218.421 1021.95 231.576 1016.85 243.539 1011.55C266.744 1036.7 289.186 1049.59 304.083 1036.82C319.02 1024.02 331.769 1011.7 342.632 999.796C378.395 1015.31 408.241 1019.1 416.735 999.483C422.553 986.046 427.4 973.38 431.375 961.405C458.181 961.549 476.992 954.906 478.954 938.186C480.488 925.103 481.45 912.843 481.891 901.331C512.221 892.176 531.715 878.539 527.419 860.338C523.904 845.441 520.04 831.855 515.867 819.438C542.993 798.6 557.858 777.401 546.53 761.375C538.316 749.756 530.248 739.3 522.31 729.892Z" fill="#FBFF3E"/>
</svg>
