<svg width="149" height="302" viewBox="0 0 149 302" fill="none" xmlns="http://www.w3.org/2000/svg">
<ellipse cx="74.5" cy="4.40035" rx="4.40154" ry="4.40043" transform="rotate(-180 74.5 4.40035)" fill="#E681FF"/>
<path d="M77.7224 73.5973C77.7224 73.5973 77.7224 73.5925 77.7224 73.5877L79.0582 59.527C79.1727 58.0389 77.9943 56.7464 76.4677 56.7559C75.1128 56.7654 74.0298 57.9054 73.9249 59.2552L72.8276 73.2491C72.8276 73.2491 72.8276 73.2539 72.8276 73.2586L73.839 76.6116C74.1157 77.5226 75.3418 77.6657 75.8188 76.8454L77.7128 73.5925L77.7224 73.5973Z" fill="#E681FF"/>
<path d="M85.0835 79.3157C85.0835 79.3157 85.0883 79.3157 85.0931 79.3109L96.0086 70.3584C97.144 69.3855 97.2251 67.6398 96.1374 66.5714C95.1689 65.6223 93.5993 65.6604 92.5689 66.5428L81.8919 75.667C81.8919 75.667 81.8919 75.667 81.8871 75.6765L80.1887 78.8864C79.7355 79.7402 80.5418 80.7179 81.4673 80.4365L85.0835 79.3252L85.0835 79.3157Z" fill="#E681FF"/>
<path d="M68.1568 74.8993C68.1568 74.8993 68.1568 74.8945 68.1568 74.8897L59.4216 63.8482C58.4483 62.713 56.7022 62.6319 55.6336 63.7194C54.6842 64.6876 54.7224 66.2568 55.605 67.287L64.7314 77.9613C64.7314 77.9613 64.7314 77.9613 64.741 77.9661L67.5223 79.5162C68.3668 79.9884 69.3591 79.2062 69.1015 78.2761L68.1664 74.8993L68.1568 74.8993Z" fill="#E681FF"/>
<path d="M62.6513 82.1494C62.6513 82.1494 62.6466 82.1494 62.6418 82.1494L48.5823 80.7948C47.1654 80.6851 45.9298 81.7392 45.8201 83.1558C45.7103 84.5676 46.7647 85.8077 48.1816 85.9174L62.3078 86.9714L62.3174 86.9714L65.5853 85.7504C66.4632 85.4213 66.5443 84.2099 65.7142 83.7711L62.6561 82.1542L62.6513 82.1494Z" fill="#E681FF"/>
<path d="M86.2906 88.5308C86.2906 88.5308 86.2953 88.5308 86.3001 88.5308L100.331 89.9951C101.819 90.1095 103.112 88.9315 103.103 87.4052C103.093 86.0506 101.953 84.9679 100.603 84.863L86.6054 83.766C86.6054 83.766 86.6007 83.766 86.5959 83.766L83.0989 84.863C82.1638 85.1587 82.0637 86.4417 82.9462 86.8758L86.3001 88.526L86.2906 88.5308Z" fill="#E681FF"/>
<path d="M74.9887 111.53L76.086 97.5315C76.086 97.5315 76.086 97.5267 76.086 97.5219L75.003 94.2071C74.7025 93.2818 73.4287 93.1912 72.9945 94.0592L71.3963 97.2739C71.3963 97.2739 71.3963 97.2787 71.3963 97.2834L69.8602 111.258C69.7457 112.746 70.924 114.039 72.4507 114.029C73.8056 114.02 74.8885 112.88 74.9935 111.53L74.9887 111.53Z" fill="#E681FF"/>
<path d="M80.5229 96.0288C80.5229 96.0288 80.5229 96.0336 80.5229 96.0383L89.4967 106.942C90.4699 108.077 92.216 108.158 93.2847 107.07C94.234 106.102 94.1959 104.533 93.3133 103.503L84.1868 92.8332C84.1868 92.8332 84.182 92.8284 84.1773 92.8284L80.8187 91.1734C79.9504 90.7441 78.9962 91.5835 79.3063 92.4993L80.5086 96.0336L80.5229 96.0288Z" fill="#E681FF"/>
<path d="M63.8821 91.5639C63.8821 91.5639 63.8773 91.5639 63.8726 91.5639L52.9046 100.426C51.8264 101.346 51.6976 102.968 52.6231 104.046C53.5439 105.124 55.1659 105.253 56.2441 104.327L67.0213 95.1173C67.0213 95.1173 67.0213 95.1125 67.026 95.1077L68.6052 92.0695C69.0488 91.2158 68.2474 90.2523 67.3314 90.5289L63.8869 91.5544L63.8821 91.5639Z" fill="#E681FF"/>
<path d="M86.5909 83.7664C86.5909 83.7664 86.5957 83.7664 86.6005 83.7664L100.078 79.5453C101.423 79.097 102.148 77.6423 101.7 76.2973C101.251 74.9522 99.7964 74.2273 98.4511 74.6756L85.0929 79.3164C85.0929 79.3164 85.0881 79.3164 85.0834 79.3164L82.3068 81.5915C81.5435 82.2163 81.9394 83.4516 82.9222 83.5184L86.5909 83.7664Z" fill="#E681FF"/>
<path d="M84.1865 92.795C84.1865 92.795 84.1865 92.795 84.1961 92.7998L96.6144 99.296C97.8166 99.8969 99.3242 99.5535 100.035 98.4136C100.851 97.1067 100.35 95.4183 99.0093 94.7506L86.3048 88.5072C86.3048 88.5072 86.3 88.5072 86.2952 88.5072L82.6503 88.1829C81.6723 88.097 81.0903 89.2417 81.7344 89.981L84.1913 92.795L84.1865 92.795Z" fill="#E681FF"/>
<path d="M76.086 97.5257C76.086 97.5257 76.086 97.5305 76.086 97.5353L80.3081 111.009C80.7565 112.354 82.2116 113.079 83.557 112.631C84.9023 112.183 85.6275 110.728 85.179 109.383L80.5228 96.0376C80.5228 96.0376 80.5228 96.0328 80.5228 96.0281L78.228 93.3142C77.5935 92.5654 76.3722 92.9708 76.3102 93.9485L76.086 97.5257Z" fill="#E681FF"/>
<path d="M62.3175 86.9666C62.3175 86.9666 62.3127 86.9666 62.3079 86.9666L48.8353 91.2401C47.4899 91.6885 46.7648 93.1432 47.2132 94.4882C47.6617 95.8332 49.1168 96.5582 50.4621 96.1099L63.8727 91.5645C63.8727 91.5645 63.8823 91.5645 63.8823 91.5597L66.4203 88.9555C67.0787 88.283 66.6255 87.1479 65.6856 87.1097L62.3127 86.9666L62.3175 86.9666Z" fill="#E681FF"/>
<path d="M67.0311 95.1217C67.0311 95.1217 67.0263 95.1265 67.0263 95.1313L60.4808 107.647C59.8129 108.982 60.4188 110.623 61.8405 111.186C63.1 111.682 64.5312 111.033 65.1371 109.822L71.3964 97.2871C71.3964 97.2871 71.3964 97.2824 71.3964 97.2776L71.5824 93.6861C71.6301 92.737 70.5233 92.1837 69.7934 92.799L67.0311 95.1265L67.0311 95.1217Z" fill="#E681FF"/>
<path d="M81.8872 75.6674C81.8872 75.6674 81.8919 75.6626 81.8919 75.6578L88.4374 63.1472C89.0719 61.8785 88.5567 60.338 87.2877 59.7036C86.0186 59.0693 84.4777 59.5844 83.8432 60.8531L77.727 73.5878C77.727 73.5878 77.727 73.5926 77.727 73.5974L77.2977 76.9695C77.1736 77.9425 78.2995 78.5673 79.0629 77.952L81.8919 75.6674L81.8872 75.6674Z" fill="#E681FF"/>
<path d="M72.8321 73.2641L72.8321 73.2545L68.61 59.7805C68.1615 58.4355 66.7064 57.7105 65.3611 58.1588C64.0157 58.6072 63.2906 60.0619 63.739 61.4069L68.1567 74.8905C68.1567 74.8905 68.1567 74.8953 68.1567 74.9L70.3417 77.5567C70.9381 78.2817 72.1165 77.9621 72.2596 77.0273L72.8321 73.2641Z" fill="#E681FF"/>
<path d="M64.7315 77.9664C64.7315 77.9664 64.7267 77.9616 64.722 77.9569L52.2035 71.413C50.9345 70.7786 49.3935 71.2938 48.759 72.5625C48.1245 73.8312 48.6397 75.3717 49.9087 76.0061L62.6419 82.1398C62.6419 82.1398 62.6467 82.1398 62.6515 82.1398L65.8813 82.4784C66.8306 82.5786 67.4365 81.4911 66.8545 80.7328L64.7267 77.9616L64.7315 77.9664Z" fill="#E681FF"/>
<path d="M84.383 31.5624C85.1308 31.3621 85.5746 30.5936 85.3742 29.8461C85.1738 29.0985 84.4052 28.6548 83.6574 28.8551L77.4058 30.5298L80.6418 24.9264C81.0288 24.2561 80.7991 23.399 80.1287 23.012C79.4582 22.625 78.601 22.8547 78.2139 23.525L74.9782 29.1279L73.3031 22.8779C73.1027 22.1303 72.3341 21.6866 71.5863 21.887C70.8386 22.0873 70.3948 22.8557 70.5952 23.6033L72.2704 29.8539L66.6651 26.6185C65.9947 26.2315 65.1374 26.4612 64.7503 27.1314C64.3632 27.8017 64.593 28.6588 65.2634 29.0458L70.8685 32.2811L64.617 33.9557C63.8692 34.156 63.4254 34.9245 63.6258 35.6721C63.8262 36.4197 64.5948 36.8633 65.3426 36.663L71.5938 34.9884L68.3578 40.5919C67.9707 41.2622 68.2004 42.1193 68.8709 42.5062C69.5413 42.8932 70.3986 42.6636 70.7857 41.9933L74.022 36.3893L75.697 42.639C75.8974 43.3866 76.666 43.8303 77.4138 43.6299C78.1616 43.4296 78.6054 42.6612 78.405 41.9136L76.7301 35.6644L82.3346 38.8994C83.005 39.2864 83.8623 39.0567 84.2494 38.3864C84.6365 37.7162 84.4068 36.8591 83.7363 36.4721L78.1316 33.237L84.383 31.5624Z" fill="#E681FF"/>
<path d="M67.0785 151.398L62.3837 134.919C61.3809 131.399 57.7117 129.36 54.1963 130.362C50.6752 131.365 48.6354 135.033 49.6382 138.547L54.333 155.021L67.1753 178.392C67.4089 178.814 68.0471 178.637 68.03 178.159L67.0842 151.398L67.0785 151.398Z" fill="#E681FF"/>
<path d="M81.9207 251.821L86.6155 268.289C87.6297 271.849 91.3673 273.894 94.9226 272.812C98.4778 271.729 100.301 267.959 99.2983 264.45L94.6662 248.187L81.727 224.668C81.4934 224.246 80.8552 224.423 80.8723 224.907L81.9207 251.827L81.9207 251.821Z" fill="#E681FF"/>
<path d="M24.2725 209.026L7.80085 213.72C4.27975 214.722 2.24002 218.391 3.24279 221.905C4.24556 225.425 7.91481 227.465 11.4302 226.462L27.9133 221.768L51.393 208.724C51.8146 208.491 51.6323 207.853 51.1537 207.87L24.2669 209.032L24.2725 209.026Z" fill="#E681FF"/>
<path d="M33.7361 171.347L18.9566 163.121C15.7659 161.35 11.6466 162.318 9.81198 165.474C7.97735 168.63 9.08269 172.794 12.3189 174.594L27.2865 182.921L53.1534 190.264C53.6149 190.395 53.9397 189.814 53.5865 189.489L33.7361 171.347Z" fill="#E681FF"/>
<path d="M115.263 231.868L130.231 240.196C133.427 241.973 137.467 240.823 139.244 237.627C141.022 234.432 139.877 230.393 136.675 228.616L121.701 220.288L95.8173 212.986C95.3558 212.855 95.0311 213.436 95.3843 213.76L115.263 231.868Z" fill="#E681FF"/>
<path d="M124.721 194.188L140.987 189.552C144.497 188.555 146.725 184.949 145.79 181.423C144.839 177.829 141.13 175.733 137.569 176.747L121.103 181.44L97.606 194.502C97.1844 194.735 97.3667 195.379 97.8453 195.356L124.721 194.188Z" fill="#E681FF"/>
<path d="M104.768 160.854L112.989 146.078C114.761 142.888 113.793 138.77 110.636 136.936C107.48 135.102 103.315 136.207 101.515 139.442L93.179 154.412L85.9488 180.096C85.8177 180.557 86.3989 180.882 86.7237 180.529L104.762 160.848L104.768 160.854Z" fill="#E681FF"/>
<path d="M44.2312 242.354L35.9013 257.324C34.1009 260.559 35.2974 264.649 38.5792 266.392C41.861 268.135 45.8151 266.762 47.5928 263.572L55.8144 248.802L63.2269 222.976C63.358 222.514 62.7768 222.19 62.4521 222.543L44.2312 242.354Z" fill="#E681FF"/>
<path d="M121.701 220.288L138.321 224.463C141.91 225.363 145.551 223.153 146.389 219.53C147.215 215.976 144.873 212.444 141.335 211.555L124.932 207.437L98.0391 207.078C97.5605 207.073 97.3953 207.716 97.8226 207.938L121.701 220.288Z" fill="#E681FF"/>
<path d="M94.6662 248.187L103.463 262.883C105.343 266.022 109.411 267.042 112.551 265.167C115.69 263.288 116.716 259.221 114.836 256.082L106.039 241.392L87.3334 222.082C86.9972 221.734 86.4275 222.082 86.5699 222.537L94.6605 248.193L94.6662 248.187Z" fill="#E681FF"/>
<path d="M93.1847 154.418L97.361 137.802C98.2612 134.213 96.0505 130.574 92.4269 129.736C88.8716 128.91 85.3391 131.251 84.456 134.789L80.3423 151.176L79.9891 177.869C79.9834 178.347 80.6272 178.512 80.8494 178.085L93.1904 154.423L93.1847 154.418Z" fill="#E681FF"/>
<path d="M27.2922 182.92L10.678 178.751C7.12845 177.862 3.52757 180.015 2.63875 183.564C1.74992 187.113 3.90361 190.713 7.4532 191.601L24.0673 195.771L50.9656 196.101C51.4442 196.107 51.6094 195.463 51.1821 195.241L27.2922 182.92Z" fill="#E681FF"/>
<path d="M54.333 155.021L45.6441 140.513C43.7696 137.385 39.7129 136.161 36.5507 137.978C33.3886 139.795 32.2605 143.953 34.1634 147.126L42.9662 161.828L61.7055 181.098C62.0417 181.445 62.6114 181.098 62.469 180.642L54.3386 155.015L54.333 155.021Z" fill="#E681FF"/>
<path d="M27.9133 221.762L13.3959 230.449C10.2622 232.323 9.04296 236.378 10.8605 239.54C12.678 242.701 16.8372 243.829 20.0108 241.926L34.7105 233.132L53.8544 214.539C54.1962 214.203 53.8544 213.634 53.3986 213.776L27.9076 221.756L27.9133 221.762Z" fill="#E681FF"/>
<path d="M55.8086 248.808L51.6379 265.412C50.7377 269.001 52.9541 272.641 56.572 273.478C60.19 274.315 63.6598 271.963 64.543 268.425L68.6623 252.015L69.0269 225.14C69.0326 224.662 68.3888 224.497 68.1666 224.924L55.8029 248.802L55.8086 248.808Z" fill="#E681FF"/>
<path d="M121.103 181.44L135.797 172.651C138.936 170.771 139.956 166.704 138.082 163.565C136.201 160.427 132.133 159.407 128.994 161.281L114.294 170.082L94.9566 188.72C94.6091 189.056 94.9509 189.625 95.4067 189.483L121.109 181.446L121.103 181.44Z" fill="#E681FF"/>
<path d="M114.283 170.075L126.208 157.772C128.783 155.112 128.686 150.857 125.968 148.316C123.251 145.776 119.074 146.089 116.533 148.709L104.762 160.853L90.9682 183.928C90.7232 184.339 91.2018 184.806 91.6064 184.544L114.277 170.075L114.283 170.075Z" fill="#E681FF"/>
<path d="M124.932 207.437L142.064 207.169C145.722 207.112 148.645 204.099 148.588 200.442C148.531 196.785 145.517 193.863 141.859 193.92L124.727 194.187L98.6602 200.738C98.193 200.858 98.2044 201.518 98.6716 201.626L124.937 207.437L124.932 207.437Z" fill="#E681FF"/>
<path d="M106.044 241.387L118.345 253.303C121.006 255.878 125.262 255.781 127.803 253.064C130.344 250.347 130.031 246.171 127.41 243.631L115.263 231.868L92.1306 218.124C91.7146 217.879 91.2531 218.357 91.5152 218.761L106.044 241.387Z" fill="#E681FF"/>
<path d="M24.0617 195.777L7.15133 196.044C3.50488 196.101 0.416791 199.006 0.411099 202.652C0.405392 206.298 3.44221 209.356 7.13993 209.294L24.2668 209.026L50.3389 202.458C50.8061 202.339 50.7948 201.672 50.3276 201.57L24.0617 195.777Z" fill="#E681FF"/>
<path d="M34.7105 233.138L22.7912 245.436C20.2443 248.062 20.3127 252.26 22.9393 254.806C25.5659 257.352 29.765 257.284 32.3118 254.658L44.2312 242.354L58.0421 219.296C58.2871 218.886 57.8142 218.419 57.4039 218.675L34.7105 233.132L34.7105 233.138Z" fill="#E681FF"/>
<path d="M80.3309 151.17L80.0632 134.053C80.0062 130.396 76.9922 127.474 73.3343 127.531C69.6765 127.588 66.7536 130.601 66.8106 134.258L67.0784 151.387L73.6363 177.441C73.7559 177.908 74.4169 177.896 74.5251 177.429L80.3309 151.159L80.3309 151.17Z" fill="#E681FF"/>
<path d="M42.9605 161.833L30.8133 150.065C28.1924 147.525 23.9591 147.399 21.3724 149.974C18.7344 152.594 18.7743 156.855 21.4351 159.43L33.7418 171.352L56.817 185.142C57.2272 185.387 57.6944 184.909 57.4323 184.504L42.9662 161.833L42.9605 161.833Z" fill="#E681FF"/>
<path d="M75.7958 275.671C79.4423 275.546 82.2455 272.373 82.1885 268.728L81.9207 251.827L75.4426 225.75C75.3286 225.283 74.662 225.289 74.5537 225.761L68.6681 252.021L68.9416 269.16C68.9986 272.863 72.081 275.802 75.7958 275.677L75.7958 275.671Z" fill="#E681FF"/>
<path d="M75.7843 223.176L76.9295 218.625L79.3396 222.652C79.9094 223.603 81.3679 223.187 81.3508 222.077L81.2768 217.389L84.644 220.652C85.4417 221.421 86.7407 220.641 86.4388 219.576L85.1511 215.065L89.2534 217.349C90.222 217.89 91.276 216.796 90.7063 215.845L88.2962 211.818L92.8486 212.963C93.9254 213.23 94.6604 211.909 93.8627 211.134L90.4898 207.87L95.1789 207.796C96.2842 207.779 96.6545 206.31 95.6859 205.768L91.5837 203.484L96.0962 202.197C97.1616 201.895 97.1388 200.374 96.062 200.106L91.5153 198.967L95.5435 196.558C96.495 195.988 96.0791 194.53 94.968 194.547L90.2732 194.621L93.538 191.249C94.3071 190.451 93.5266 189.153 92.4611 189.455L87.9486 190.742L90.2277 186.646C90.7689 185.678 89.675 184.624 88.7235 185.194L84.6953 187.603L85.8405 183.052C86.1083 181.976 84.7865 181.241 84.0116 182.038L80.7469 185.405L80.6728 180.711C80.6557 179.606 79.1858 179.236 78.6445 180.204L76.3598 184.305L75.0721 179.788C74.7701 178.723 73.2489 178.746 72.9811 179.822L71.8359 184.374L69.4258 180.352C68.8561 179.401 67.3975 179.817 67.4146 180.928L67.4886 185.621L64.1157 182.357C63.318 181.588 62.019 182.369 62.3209 183.434L63.6086 187.945L59.5063 185.661C58.5377 185.12 57.4837 186.214 58.0535 187.165L60.4635 191.192L55.9112 190.047C54.8343 189.779 54.0993 191.101 54.897 191.875L58.27 195.139L53.5752 195.213C52.4698 195.231 52.0995 196.7 53.0681 197.241L57.1703 199.525L52.6578 200.813C51.5924 201.115 51.6152 202.636 52.692 202.903L57.2501 204.048L53.2219 206.458C52.2704 207.027 52.6863 208.485 53.7974 208.468L58.4865 208.394L55.2218 211.761C54.4526 212.558 55.2332 213.857 56.2986 213.555L60.8111 212.268L58.5263 216.369C57.9851 217.337 59.079 218.391 60.0305 217.821L64.053 215.412L62.9078 219.963C62.64 221.04 63.9618 221.775 64.7367 220.977L68.0071 217.605L68.0812 222.299C68.0983 223.404 69.5682 223.774 70.1095 222.806L72.3885 218.71L73.6762 223.221C73.9782 224.287 75.4994 224.264 75.7672 223.187L75.7843 223.176ZM73.9212 216.067L73.2973 213.874C73.2101 213.567 72.7954 213.519 72.6402 213.797L71.5282 215.794C71.1693 216.443 70.1779 216.192 70.1665 215.452L70.1293 213.165C70.1241 212.846 69.7363 212.693 69.5144 212.921L67.9216 214.563C67.4032 215.099 66.5144 214.603 66.6967 213.88L67.2544 211.666C67.3324 211.356 66.9971 211.107 66.7233 211.271L64.7652 212.444C64.1271 212.826 63.3978 212.12 63.7567 211.47L64.869 209.474C65.0241 209.195 64.765 208.868 64.4583 208.955L62.264 209.579C61.5518 209.784 61.0276 208.907 61.5461 208.377L63.1334 206.737C63.3551 206.507 63.1891 206.125 62.8702 206.13L60.5889 206.167C59.8482 206.179 59.569 205.199 60.2071 204.817L62.1676 203.643C62.441 203.479 62.3801 203.067 62.0711 202.989L59.8539 202.43C59.1303 202.248 59.1189 201.229 59.8311 201.029L62.025 200.405C62.3318 200.318 62.3799 199.904 62.1013 199.749L60.1046 198.637C59.4551 198.278 59.7058 197.287 60.4464 197.275L62.7342 197.238C63.0529 197.233 63.2064 196.845 62.9776 196.623L61.3353 195.031C60.7997 194.513 61.2954 193.624 62.019 193.806L64.2335 194.364C64.5429 194.442 64.792 194.107 64.628 193.833L63.4548 191.875C63.073 191.238 63.7795 190.508 64.429 190.867L66.4261 191.979C66.7047 192.134 67.0319 191.875 66.9446 191.569L66.3206 189.375C66.1155 188.663 66.9929 188.139 67.5228 188.657L69.1635 190.248C69.3926 190.47 69.7759 190.304 69.7707 189.985L69.7335 187.7C69.7221 186.96 70.7021 186.681 71.0838 187.319L72.2584 189.279C72.4223 189.552 72.8348 189.491 72.9127 189.182L73.4711 186.965C73.6534 186.242 74.6733 186.231 74.8727 186.943L75.5017 189.143C75.5892 189.45 76.0035 189.498 76.1586 189.219L77.2714 187.222C77.6303 186.572 78.6217 186.823 78.6331 187.564L78.6703 189.849C78.6755 190.168 79.0638 190.321 79.2855 190.092L80.8722 188.452C81.3907 187.917 82.2795 188.412 82.0972 189.136L81.5395 191.35C81.4615 191.659 81.7968 191.908 82.0706 191.744L84.0287 190.571C84.6668 190.189 85.3961 190.896 85.0372 191.545L83.9246 193.542C83.7695 193.821 84.0284 194.148 84.3351 194.061L86.5356 193.436C87.2478 193.231 87.772 194.108 87.2535 194.638L85.6624 196.278C85.4403 196.507 85.6062 196.891 85.9252 196.885L88.2107 196.848C88.9514 196.837 89.2306 197.817 88.5925 198.198L86.6338 199.371C86.3601 199.535 86.4215 199.948 86.731 200.026L88.9457 200.579C89.6693 200.762 89.6807 201.781 88.9685 201.98L86.7696 202.604C86.4627 202.692 86.4144 203.106 86.6932 203.261L88.6893 204.373C89.3388 204.732 89.0882 205.723 88.3475 205.734L86.0654 205.771C85.7466 205.777 85.5931 206.164 85.822 206.386L87.4643 207.979C87.9999 208.497 87.5042 209.385 86.7806 209.203L84.5662 208.646C84.2567 208.568 84.0076 208.903 84.1716 209.177L85.3448 211.134C85.7266 211.772 85.0201 212.501 84.3706 212.142L82.3729 211.03C82.0944 210.875 81.7673 211.134 81.8544 211.441L82.479 213.641C82.6841 214.353 81.8067 214.877 81.2768 214.358L79.6357 212.771C79.4065 212.55 79.0237 212.716 79.0289 213.034L79.0661 215.321C79.0775 216.061 78.0975 216.34 77.7158 215.703L76.541 213.738C76.3774 213.465 75.9645 213.525 75.8867 213.834L75.3285 216.05C75.1462 216.773 74.1263 216.785 73.9269 216.073L73.9212 216.067Z" fill="#E681FF"/>
</svg>
