<svg width="156" height="312" viewBox="0 0 156 312" fill="none" xmlns="http://www.w3.org/2000/svg">
<ellipse cx="78.0001" cy="4.90642" rx="4.49015" ry="4.53157" transform="rotate(-180 78.0001 4.90642)" fill="#FBFF3E"/>
<path fill-rule="evenodd" clip-rule="evenodd" d="M88.6121 78.3523C88.3967 78.8792 88.1797 79.4099 87.9606 79.9412C87.4754 81.118 88.3256 82.4302 89.5978 82.4735C90.3863 82.5004 91.1728 82.5318 91.9505 82.5627L92.0732 82.5676L91.5572 83.0985C91.1257 83.5426 90.6908 83.9903 90.2534 84.4373C89.3747 85.3355 89.6502 86.848 90.7859 87.3857C91.6469 87.7933 92.5035 88.2079 93.3478 88.6166L93.3478 88.6166L93.3478 88.6166L93.4131 88.6482L92.8213 88.8988L92.8213 88.8988C92.3257 89.1087 91.8265 89.3202 91.3252 89.5309C90.148 90.0258 89.8287 91.5632 90.7082 92.489C91.2274 93.0355 91.742 93.583 92.2509 94.1244C92.2675 94.1421 92.2841 94.1597 92.3007 94.1774C92.0876 94.1844 91.8738 94.1915 91.6593 94.1986C90.8039 94.2269 89.9385 94.2556 89.0722 94.2783C87.8428 94.3105 86.9848 95.5347 87.3702 96.7026C87.711 97.7354 88.0408 98.7727 88.3653 99.7931L88.3874 99.8627L87.8003 99.6011L87.8002 99.601L87.7998 99.6008C87.3467 99.399 86.8906 99.1958 86.4335 98.9909C85.2559 98.463 83.9033 99.303 83.8501 100.592C83.8205 101.309 83.7876 102.024 83.755 102.731L83.7517 102.804L83.2922 102.352C82.9133 101.979 82.5317 101.603 82.1498 101.226C81.2337 100.32 79.6751 100.629 79.1695 101.814C78.8763 102.501 78.5804 103.185 78.2879 103.861L78.2878 103.861L78.2589 103.928L77.9897 103.34L77.9897 103.34L77.9896 103.34C77.7605 102.839 77.5297 102.335 77.2996 101.829C76.7674 100.658 75.205 100.389 74.3088 101.312C73.7813 101.855 73.2525 102.393 72.7298 102.926L72.6789 102.978L72.638 102.331C72.5833 101.467 72.528 100.592 72.4786 99.7162C72.4091 98.4836 71.1504 97.663 69.9927 98.0922C68.99 98.4639 67.9828 98.8249 66.9917 99.1801L66.9235 99.2046L67.1646 98.6043L67.1647 98.6041C67.397 98.0254 67.6313 97.4418 67.8683 96.8574C68.345 95.6822 67.4971 94.3772 66.2297 94.3305C65.4074 94.3001 64.5875 94.2646 63.7777 94.2294L63.7054 94.2263L64.1518 93.761C64.6568 93.2346 65.1667 92.7029 65.6803 92.1727C66.5524 91.2726 66.2767 89.7655 65.1432 89.2306C64.3898 88.8751 63.64 88.5155 62.8991 88.1601L62.899 88.16L62.899 88.16L62.8989 88.16L62.8988 88.1599L62.7879 88.1067L63.4692 87.8235L63.4693 87.8234C63.9181 87.6367 64.3697 87.4489 64.8229 87.2615C66.0076 86.7716 66.3307 85.2271 65.445 84.3002C64.9473 83.7793 64.4534 83.2575 63.9645 82.741C63.9362 82.7111 63.9079 82.6813 63.8797 82.6514C64.1243 82.645 64.3699 82.6385 64.6162 82.6319C65.4165 82.6106 66.2249 82.589 67.034 82.5722C68.2676 82.5466 69.1307 81.3186 68.7412 80.1478C68.4087 79.1486 68.0858 78.1452 67.7677 77.1567L67.7298 77.0388L68.4019 77.3436L68.4019 77.3436L68.402 77.3436L68.402 77.3437L68.402 77.3437C68.8063 77.5269 69.2129 77.7112 69.6202 77.8967C70.7992 78.4336 72.1596 77.5914 72.2093 76.2969C72.2356 75.6135 72.2646 74.9324 72.2933 74.2578L72.2933 74.2575L72.2985 74.1337L72.8228 74.6563L72.8231 74.6566C73.1614 74.9938 73.5017 75.3329 73.8423 75.6737C74.7565 76.5885 76.323 76.2804 76.8271 75.0894C77.1048 74.4334 77.3846 73.7806 77.6615 73.1343L77.6616 73.1343L77.6616 73.1342L77.7103 73.0205L78.015 73.6976C78.2192 74.1513 78.4248 74.6079 78.6298 75.0662C79.1572 76.2447 80.7267 76.5169 81.6237 75.5881C82.1263 75.0677 82.63 74.5511 83.1285 74.0397L83.2146 73.9514L83.2567 74.6938C83.3027 75.5034 83.3493 76.3212 83.3911 77.1398C83.4542 78.3767 84.7169 79.2022 85.8771 78.7688C86.846 78.4069 87.819 78.0543 88.7777 77.7069L88.8933 77.665L88.6121 78.3523ZM99.2845 67.7708C94.9469 63.3042 92.0621 69.9275 88.8933 77.665C96.7875 74.8039 103.665 72.2818 99.2845 67.7708ZM88.3239 60.4872C82.4958 58.362 82.7437 65.5926 83.2146 73.9514C89.0974 67.9174 94.2101 62.6337 88.3239 60.4872ZM77.6631 58.6027C71.4678 58.7424 74.2834 65.3958 77.7103 73.0205C81.0403 65.251 83.9202 58.4617 77.6631 58.6027ZM67.1508 60.6845C61.4137 63.0486 66.3987 68.2478 72.2985 74.1337C72.6584 65.6764 72.945 58.2968 67.1508 60.6845ZM58.25 66.2527C53.6931 70.491 60.164 73.6045 67.7298 77.0388C65.1388 68.9877 62.8523 61.9722 58.25 66.2527ZM50.703 77.0808C53.0109 71.2096 58.0856 76.5305 63.8797 82.6514C55.5866 82.8678 48.4179 82.8941 50.703 77.0808ZM48.5093 87.6437C48.4281 93.8972 55.1164 91.2931 62.7879 88.1067C55.2122 84.473 48.5913 81.3279 48.5093 87.6437ZM50.6192 99.4115C52.982 105.192 57.9945 100.175 63.7054 94.2263C55.4239 93.8671 48.233 93.5719 50.6192 99.4115ZM56.717 108.962C61.0545 113.428 63.8383 106.88 66.9235 99.2046C59.1124 102.004 52.336 104.451 56.717 108.962ZM67.6772 116.238C73.5048 118.362 73.1984 111.244 72.6789 102.978C66.8445 108.92 61.7907 114.091 67.6772 116.238ZM78.3335 118.116C84.5281 117.976 81.698 111.448 78.2589 103.928C74.9414 111.594 72.0761 118.257 78.3335 118.116ZM88.8438 116.029C94.58 113.664 89.6261 108.588 83.7517 102.804C83.3669 111.16 83.0493 118.416 88.8438 116.029ZM97.7374 110.458C102.293 106.22 95.8942 103.211 88.3874 99.8627C90.9202 107.828 93.1348 114.739 97.7374 110.458ZM105.278 99.6331C102.97 105.505 98.0055 100.247 92.3007 94.1774C100.504 93.9091 107.563 93.8203 105.278 99.6331ZM107.465 89.0754C107.546 82.8227 100.982 85.4458 93.4131 88.6482C100.887 92.2657 107.383 95.3916 107.465 89.0754ZM92.0732 82.5676C100.454 82.9013 107.768 83.1648 105.382 77.3255C103.019 71.5438 97.8847 76.5929 92.0732 82.5676Z" fill="#FBFF3E"/>
<path d="M82.7676 33.9277C81.8048 33.0546 81.2766 31.7672 81.3873 30.4657C81.3874 30.4648 81.3874 30.464 81.3875 30.4632C81.5175 30.453 81.6471 30.4431 81.7761 30.4332C85.2269 30.1684 88.2382 29.9374 85.1187 26.8856C81.9558 23.7913 81.6872 26.9393 81.3875 30.4632C81.2667 30.4726 81.1456 30.4822 81.0245 30.4921C79.892 30.5845 78.7688 30.1142 78.0628 29.2159L78.2037 29.0507C80.4766 26.3878 82.4967 24.0209 78.1694 23.9167C73.8158 23.8118 75.8158 26.3567 78.0413 29.1885L78.0628 29.2159C77.19 30.2392 75.8632 30.7874 74.5316 30.6569L74.5117 30.4399C74.1903 26.9402 73.9046 23.8297 70.8263 26.9008C67.7292 29.9905 70.9326 30.3043 74.4973 30.6535L74.5316 30.6569C74.6495 31.9345 74.1135 33.2063 73.1091 33.993L72.947 33.8491C70.3324 31.5274 68.0086 29.4639 67.8598 33.8297C67.7102 38.2221 70.2526 36.2306 73.0819 34.0144L73.1091 33.993C74.122 34.8917 74.6605 36.2441 74.5268 37.5984C74.455 37.605 74.3833 37.6115 74.3117 37.618C70.8433 37.9335 67.7605 38.2139 70.7957 41.3284C73.8493 44.4619 74.1684 41.2298 74.5234 37.6331C74.5245 37.6215 74.5257 37.61 74.5268 37.5984C75.8396 37.4785 77.1452 38.0292 77.9782 39.0602C78.0041 39.0923 78.03 39.1243 78.0559 39.1563L78.0575 39.1583C77.9712 39.2569 77.885 39.3551 77.7991 39.4529C75.504 42.0669 73.5011 44.3481 77.8458 44.3481C82.2507 44.3481 80.2725 41.8991 78.0575 39.1583C78.1139 39.0939 78.1704 39.0294 78.2268 38.9647C79.0746 37.992 80.3373 37.455 81.6165 37.5625L81.619 37.5628C81.6294 37.6939 81.6396 37.8247 81.6498 37.9549C81.9208 41.4369 82.1574 44.4753 85.1734 41.3193C88.2313 38.1194 85.1114 37.8563 81.619 37.5628C81.6128 37.4839 81.6065 37.4049 81.6001 37.3258C81.5002 36.0961 82.0026 34.8742 82.9581 34.1044L82.9602 34.1028C83.0569 34.1909 83.1533 34.279 83.2493 34.3666C85.8152 36.7103 88.0543 38.7554 88.0999 34.371C88.1462 29.9256 85.699 31.8962 82.9602 34.1028C82.8961 34.0444 82.8319 33.9861 82.7676 33.9277Z" fill="#FBFF3E"/>
<path fill-rule="evenodd" clip-rule="evenodd" d="M145.29 246.838C150.49 238.031 140.484 233.497 126.902 229.881C141.225 231.402 153.764 229.97 155.487 218.727C156.853 209.809 148.525 208.415 137.008 209.424C148.506 205.629 156.892 199.911 154.797 190.144C152.403 178.975 139.78 184.692 125.568 192.81C125.343 191.619 124.921 190.464 124.411 189.369C137.093 178.7 147.201 166.911 139.234 157.056C132.502 148.729 121.848 161.171 115.804 168.229C114.762 169.446 113.858 170.502 113.134 171.265C120.101 156.257 124.235 141.374 112.94 135.867C105.93 132.449 100.615 146.196 98.8317 151.601C98.692 152.025 98.4393 152.383 98.0992 152.668C97.9893 152.761 97.812 152.689 97.81 152.545C97.6227 139.462 94.6913 128.76 84.3017 128.065C81.6684 127.889 79.7556 128.505 78.4188 129.756C74.6704 132.805 71.1219 140.435 73.6104 151.364C67.4122 137.424 60.3637 128.8 49.7513 133.52C45.3311 135.486 42.2273 139.371 48.0271 149.233C48.6852 150.416 49.4294 151.74 50.0894 152.884C42.531 146.307 34.9124 143.266 28.2348 148.815C22.0836 153.926 25.6169 159.752 33.0107 165.904C23.4653 162.143 15.0531 161.765 10.5774 169.423C5.41519 178.255 15.4463 182.744 29.0472 186.299C14.7153 184.841 2.17862 186.328 0.505475 197.581C-0.821567 206.505 7.51329 207.862 19.0268 206.801C7.54393 210.647 -0.817158 216.403 1.32029 226.161C3.52018 236.204 13.9929 232.478 26.4541 226.445C26.5601 227.525 26.7281 227.941 27.1879 229.077L27.2031 229.114C27.3738 229.536 27.557 229.926 27.7522 230.285C17.1257 240.04 9.87826 250.412 17.0292 259.178C21.1094 264.179 25.6494 262.837 30.4474 258.224C34.0409 255.146 39.1341 249.34 41.4584 246.551L41.4624 246.558C41.6083 246.831 41.7679 247.099 41.9415 247.362C35.7596 261.521 32.7283 275.095 43.4163 280.248C49.5787 283.219 53.2059 279.46 55.6275 272.43C56.6662 270.075 57.7469 266.891 58.497 264.503C58.8751 277.125 61.9624 287.29 72.0888 287.922C78.199 288.302 79.6231 282.79 80.55 278.297C81.4769 273.804 81.7216 265.068 77.3335 254.264C77.424 253.511 77.4802 252.714 77.5061 251.879C84.3534 269.781 93.2704 287.88 106.615 282.311C114.155 279.165 112.567 273.029 106.978 264.701L107.451 264.962C114.57 268.877 121.248 272.549 127.542 267.366C133.716 262.283 130.209 256.442 122.844 250.258C132.371 254.061 140.781 254.475 145.29 246.838ZM76.4508 257.965C75.2627 260.904 72.9749 262.44 69.0448 261.898C65.0524 261.346 62.3932 259.244 60.704 256.097C61.0732 264.996 63.577 271.901 70.9797 272.614C76.1873 273.115 78.3607 267.971 78.0807 264.163C77.8007 260.355 77.1672 259.651 76.4508 257.965ZM44.3479 249.986C42.5444 256.878 43.1727 262.706 48.8322 265.673C56.5222 269.704 58.6535 260.22 59.8999 254.673L59.9475 254.461C58.7382 251.414 58.2279 247.628 58.1722 243.443C54.3617 250.678 50.0692 254.467 44.5696 250.164C44.4947 250.105 44.4207 250.046 44.3479 249.986ZM40.7528 244.89C39.2857 240.356 40.9497 234.801 44.1637 228.936C38.3291 232.946 33.2662 235.037 29.9041 232.772C25.9275 237.947 24.4669 243.161 28.1355 247.978C28.8574 248.925 29.6077 249.606 30.3832 250.049C32.3726 251.186 34.8078 250.194 36.672 248.859C38.0597 247.865 39.574 246.523 40.7118 244.891L40.7528 244.89ZM53.0148 155.143C53.5093 155.94 54.0938 156.675 54.7414 157.351C55.391 158.029 56.0386 158.726 56.6835 159.438C56.8912 159.342 57.104 159.249 57.322 159.159C61.6121 157.391 64.2301 157.954 66.3056 159.732C67.4669 160.748 68.3498 161.76 69.3106 162.862C69.8078 163.432 70.3259 164.027 70.9142 164.657C71.2885 163.967 71.6861 163.313 72.1092 162.7C67.725 153.273 62.1109 146.524 54.3114 149.435C54.2132 149.471 54.117 149.509 54.0227 149.547C51.8425 150.432 51.7676 153.133 53.0148 155.143ZM75.4034 159.212C75.7661 158.944 76.0745 158.737 76.5314 158.477C77.3921 157.987 77.9166 157.773 78.8625 157.485C80.937 156.854 82.3343 156.875 84.4014 157.16C93.8903 158.47 91.1318 165.154 85.8159 173.881C85.8971 173.941 85.9754 174.003 86.0509 174.067C88.1495 171.8 90.2887 169.785 92.4544 168.187C92.9687 156.711 91.1988 146.876 82.2931 145.978C79.6903 145.715 77.9332 146.447 76.813 147.931C75.093 150.21 74.8749 154.262 75.4034 159.212ZM97.6555 154.274C95.346 157.025 93.8131 162.126 92.5559 168.113C98.1944 163.989 104.011 162.71 109.759 167.207C109.813 167.249 109.866 167.291 109.918 167.333C111.299 161.071 110.413 155.828 105.158 153.043C102.877 151.834 99.8917 152.921 98.7039 153.449C98.2902 153.684 97.933 153.987 97.6555 154.274ZM123.085 187.086C127.713 181.585 129.674 175.994 125.777 170.83C121.087 164.617 116.586 170.063 112.918 174.502L112.918 174.502C109.878 178.181 106.292 180.464 102.106 182.724L102.07 182.744C102.465 182.955 102.854 183.192 103.238 183.454C103.3 183.437 103.423 183.405 103.423 183.405L105.268 182.96C111.244 181.719 118.589 180.832 123.085 187.086ZM79.531 250.491C84.2751 262.498 90.4864 272.536 99.6942 269.053C103.166 267.739 104.114 266.05 103.622 263.024C102.202 262.269 100.641 261.012 99.1479 259.81L99.1473 259.81C98.5242 259.308 97.9129 258.816 97.3284 258.374C96.8172 258.658 96.2706 258.921 95.687 259.161C92.8299 260.298 89.6874 259.475 87.17 258.231C84.2249 256.71 81.9678 253.913 79.531 250.491ZM100.379 257.972C100.061 257.629 99.743 257.283 99.4261 256.932C103.692 253.31 103.738 242.713 102.26 237.139C102.447 236.92 102.626 236.7 102.795 236.477C107.29 244.548 111.472 249.204 116.99 242.023C119.813 238.347 120.339 234.644 119.306 230.976C127.156 233.928 131.904 237.601 128.259 243.331C124.422 249.361 117.657 248.798 110.082 245.474C115.852 250.658 118.522 255.46 113.412 259.387C108.956 262.813 104.178 261.542 100.379 257.972ZM112.526 220.411C115.421 223.451 117.698 226.562 118.886 229.706C128.21 230.363 135.786 228.637 137.224 220.958C138.241 215.53 134.638 213.446 128.77 212.976C129.005 214.309 129.028 215.765 128.813 217.355C127.556 226.626 121.308 224.313 113.066 219.288C112.902 219.701 112.722 220.075 112.526 220.411ZM113.239 200.61C120.463 202.571 126.236 205.647 128.219 210.946C134.532 208.171 138.552 204.134 137.432 197.91C136.396 192.157 131.911 192.165 125.751 194.225C126.072 199.227 120.852 199.833 113.567 199.806L113.06 200.098C113.122 200.266 113.182 200.436 113.239 200.61ZM52.6356 162.289C50.0962 165.002 49.2009 168.671 49.3698 172.889C46.7804 172.027 44.3195 171.65 42.0617 171.927C37.299 167.28 35.461 162.974 40.1098 159.368C43.5372 156.709 47.112 156.621 50.7858 158.325C52.4082 159.315 53.7301 160.378 54.084 161.116C53.8823 161.288 53.7306 161.396 53.5777 161.504L53.5774 161.505C53.3346 161.677 53.0888 161.851 52.6356 162.289ZM40.721 172.176C34.2791 169.944 28.6716 170.191 25.3335 175.49C20.9366 182.469 28.908 186.358 39.7787 189.593C28.2645 188.026 18.1159 188.88 16.4668 197.904C15.4526 203.454 19.2445 205.493 25.3398 205.875C24.933 204.78 24.8159 203.453 25.0321 201.857C26.1444 193.651 33.6298 191.026 43.2573 190.885C34.9422 186.808 30.1818 182.232 34.7914 176.232C36.4832 174.03 38.4867 172.739 40.721 172.176ZM26.3131 207.531C19.5566 210.345 15.1656 214.474 16.361 220.952C17.3163 226.128 21.0924 226.938 26.3263 225.522C25.8546 219.505 30.6416 214.568 37.6009 210.385C32.4107 210.569 28.3319 209.876 26.3131 207.531ZM62.3078 218.64C57 219.863 53.1985 221.161 56.2141 225.169C58.1561 227.749 60.7086 228.137 63.5226 227.305C63.4438 229.945 63.7369 232.902 66.3685 234.018C69.3992 235.302 71.8451 234.273 73.9001 232.025C75.2518 234.733 77.216 236.373 80.1513 235.998C83.84 235.527 83.7601 232.248 82.2653 227.89C85.6786 231.236 89.2035 232.96 92.4335 230.484C95.1723 228.385 93.9291 225.833 90.9944 223.072C95.6194 224.256 99.5372 223.975 101.111 220.195C102.561 216.713 99.6603 215.145 95.1227 214.276C99.647 212.962 102.836 210.746 102.331 206.716C101.9 203.274 99.0894 203.083 95.2546 204.266C98.5808 200.817 100.298 197.253 97.841 193.988C95.5931 191.001 92.8202 192.708 89.8286 196.192C90.6662 192.844 91.3699 187.152 87.5851 185.547C82.7571 183.5 79.4131 187.325 76.7698 192.598C78.3704 187.356 79.1498 183.394 74.2084 184.025C68.8011 184.716 67.9377 190.105 68.3813 196.316C67.0312 190.127 65.9172 185.117 61.538 188.473C57.3665 191.671 58.9792 196.508 62.1837 201.456C58.4834 197.433 55.4715 194.766 53.5413 199.402C51.3741 204.61 55.8518 208.106 61.623 210.858L61.0602 210.678C55.0399 208.752 50.1403 207.185 50.8333 212.713C51.4918 217.961 56.4549 218.968 62.3078 218.64Z" fill="#FBFF3E"/>
</svg>
