<svg width="732" height="1367" viewBox="0 0 732 1367" fill="none" xmlns="http://www.w3.org/2000/svg">
<circle cx="366.255" cy="21.5796" r="21.5796" transform="rotate(-180 366.255 21.5796)" fill="#340E32"/>
<path fill-rule="evenodd" clip-rule="evenodd" d="M484.794 366.07C503.99 361.407 513.177 388.678 495.068 396.575L472.54 410.29C501.374 425.527 520.697 446.602 475.351 471.624C466.279 476.63 464.158 488.736 471.03 496.496C484.131 511.28 464.326 532.158 448.874 519.846L426.773 506.684C427.974 539.233 419.358 566.425 375.058 539.692C366.187 534.338 354.642 538.555 351.358 548.385C345.105 567.124 317.122 560.41 320.058 540.873L320.406 515.157C292.818 532.472 264.959 538.609 265.961 486.876C266.162 476.516 256.738 468.626 246.582 470.697C227.228 474.651 219.05 447.06 237.438 439.835L259.97 427.229C232.291 413.139 215.048 393.281 257.911 367.528C266.792 362.192 268.466 350.016 261.314 342.514C247.678 328.222 266.702 306.63 282.596 318.365L305.823 331.064C304.163 300.005 312.712 275.068 356.49 299.336C365.552 304.36 376.934 299.721 379.854 289.777C385.414 270.821 413.625 276.5 411.409 296.132L412.025 322.599C438.093 305.633 463.961 300.57 464.833 350.615C465.014 360.975 474.722 368.513 484.794 366.07ZM405.919 401.078C412.371 399.511 415.459 408.677 409.372 411.332L401.8 415.942C411.491 421.063 417.986 428.147 402.745 436.557C399.695 438.24 398.983 442.309 401.292 444.917C405.696 449.886 399.039 456.903 393.845 452.765L386.417 448.341C386.82 459.281 383.924 468.421 369.034 459.436C366.053 457.636 362.172 459.054 361.068 462.358C358.967 468.656 349.561 466.4 350.548 459.833L350.665 451.189C341.392 457.009 332.028 459.072 332.365 441.683C332.433 438.201 329.265 435.549 325.852 436.245C319.346 437.575 316.598 428.301 322.778 425.872L330.351 421.635C321.048 416.899 315.252 410.225 329.659 401.569C332.644 399.775 333.207 395.682 330.803 393.161C326.22 388.357 332.614 381.1 337.956 385.044L345.763 389.312C345.205 378.873 348.079 370.491 362.793 378.648C365.839 380.337 369.665 378.778 370.647 375.435C372.515 369.064 381.997 370.973 381.253 377.571L381.46 386.467C390.221 380.765 398.916 379.063 399.209 395.884C399.27 399.366 402.533 401.9 405.919 401.078Z" fill="#340E32"/>
<path fill-rule="evenodd" clip-rule="evenodd" d="M333.656 184.612C325.263 190.724 315.334 179.313 322.551 171.847L334.639 159.306C345.885 141.899 380.451 88.7448 391.815 128.344C393.317 133.579 395.841 139.516 400.622 136.904C409.732 131.922 418.11 144.517 409.991 150.992L392.634 169.782C392.426 170.08 392.218 170.379 392.008 170.68C376.712 192.624 356.216 222.028 343.022 191.552C340.858 186.554 338.061 181.406 333.656 184.612Z" fill="#340E32"/>
<path fill-rule="evenodd" clip-rule="evenodd" d="M390.219 193.246C396.332 201.639 384.921 211.569 377.455 204.351L364.923 192.273C347.526 181.033 294.345 146.456 333.952 135.091C339.187 133.588 345.123 131.065 342.512 126.284C337.53 117.173 350.125 108.796 356.6 116.914L375.376 134.259C375.678 134.47 375.982 134.682 376.288 134.895C398.232 150.191 427.636 170.686 397.16 183.88C392.162 186.044 387.014 188.841 390.219 193.246Z" fill="#340E32"/>
<path fill-rule="evenodd" clip-rule="evenodd" d="M663.541 1164.07L621.563 1143.75C658.334 1212.94 666.521 1277.49 569.133 1277.59C545.757 1277.61 528.393 1299.23 533.53 1322.04C543.337 1365.51 481.477 1385.22 464.336 1344.08L427.828 1256.48C403.832 1330.86 363.564 1382.93 297.114 1313.12C281.444 1296.65 254.569 1298.89 241.942 1317.78C217.868 1353.8 162.576 1323.4 180.086 1283.78L209.458 1217.33C148.475 1245.6 94.4357 1247 96.5463 1161.28C97.0777 1139.68 77.5669 1123.12 56.4239 1127.33C16.1307 1135.36 -0.57113 1077.73 37.7482 1062.87L107.221 1035.91C23.8624 1009.91 -42.7128 966.288 35.5978 896.755C52.6005 881.666 51.2919 854.729 32.85 841.455C-2.31489 816.147 29.9806 761.942 68.973 780.814L109.673 800.519C86.4067 744.301 91.4884 697.322 173.385 697.243C196.105 697.22 212.982 676.209 207.989 654.037C198.458 611.783 258.581 592.624 275.241 632.613L305.591 705.446C329.4 628.625 369.948 572.901 437.775 644.155C453.444 660.625 480.32 658.384 492.947 639.493C517.021 603.472 572.313 633.869 554.803 673.492L535.929 716.189C588.039 694.412 631.26 700.854 634.322 779.092C635.211 801.795 656.851 817.858 678.817 812.023C720.657 800.888 742.093 860.217 702.788 878.389L631.986 911.116C712.131 937.342 773.118 980.471 696.916 1048.13C679.913 1063.22 681.222 1090.16 699.664 1103.43C734.829 1128.74 702.533 1182.95 663.541 1164.07ZM640.708 1018.58L588.196 1018.57C631.973 1055.26 654.657 1096.55 588.749 1123.75C572.766 1130.34 566.977 1150.02 576.908 1164.16C595.845 1191.12 559.105 1221.99 535.811 1198.7L498.696 1161.57C503.709 1218.47 490.55 1263.71 424.708 1236.33C408.753 1229.7 390.757 1239.51 387.773 1256.54C382.097 1288.99 334.286 1284.84 334.295 1251.89L334.303 1199.39C297.61 1243.17 256.315 1265.86 229.114 1199.95C222.523 1183.96 202.847 1178.18 188.705 1188.11C161.74 1207.04 130.871 1170.3 154.169 1147.01L191.304 1109.89C134.389 1114.91 89.131 1101.75 116.512 1035.9C123.146 1019.95 113.335 1001.95 96.3102 998.967C63.8601 993.291 68.0074 945.48 100.954 945.489L153.47 945.497C109.692 908.804 87.0059 867.511 152.915 840.311C168.898 833.72 174.687 814.043 164.756 799.901C145.819 772.937 182.559 742.068 205.853 765.366L242.978 802.504C237.96 745.59 251.113 700.334 316.965 727.715C332.92 734.348 350.916 724.538 353.9 707.513C359.575 675.063 407.386 679.21 407.378 712.157L407.371 750.139C397.201 750.3 387.555 756.518 378.612 766.436L377.479 751.792C375.402 724.933 336.163 724.576 333.589 751.389C332.233 765.457 318.183 774.592 304.756 770.193C247.793 751.53 241.079 791.915 249.852 839.725L212.342 808.048C191.759 790.67 163.949 818.35 181.235 839.016C190.3 849.855 186.938 866.285 174.37 872.756C115.884 902.885 150.556 939.87 197.502 968.5L142.085 976.636C115.431 980.547 117.761 1019.72 144.687 1020.45C158.815 1020.84 168.891 1034.23 165.421 1047.93C149.803 1109.58 196.631 1110.25 247.229 1095.57L216.952 1140.65C201.934 1163.02 232.496 1187.63 251.142 1168.18C260.922 1157.98 277.622 1159.52 285.432 1171.3C309.312 1207.31 331.725 1203.06 350.902 1181.79L352.035 1196.42C354.112 1223.28 393.351 1223.64 395.925 1196.82C397.281 1182.76 411.331 1173.62 424.758 1178.02C487.16 1198.46 489.259 1148.05 476.755 1094.64L523.982 1129.77C545.597 1145.85 571.648 1116.51 553.122 1096.95C543.407 1086.69 545.751 1070.08 557.897 1062.85C602.156 1036.48 589.138 1009.43 558.06 986.604L584.078 984.411C610.911 982.146 610.995 942.917 584.177 940.531C570.1 939.272 560.868 925.285 565.174 911.828C585.845 847.243 531.388 847.485 476.201 861.712L512.561 807.573C527.579 785.209 497.017 760.602 478.371 780.049C468.591 790.248 451.891 788.707 444.081 776.923C435.284 763.656 426.685 755.854 418.374 752.355C452.09 717.268 488.04 704.727 512.548 764.113C519.139 780.096 538.815 785.885 552.958 775.954C579.922 757.017 610.791 793.757 587.493 817.051L550.339 854.192C607.26 849.17 652.527 862.319 625.144 928.177C618.511 944.132 628.321 962.128 645.346 965.112C677.782 970.782 673.64 1018.58 640.708 1018.58ZM434.047 1001.97L420.459 998.876C429.629 1010.95 433.069 1022.96 414.413 1026.13C409.888 1026.89 407.233 1031.65 408.971 1035.89C412.287 1043.98 400.962 1049.81 396.303 1042.41L388.879 1030.62C386.83 1045.64 380.764 1056.58 365.331 1045.62C361.592 1042.97 356.357 1044.45 354.584 1048.68C351.206 1056.74 339.075 1052.86 341.015 1044.33L344.105 1030.74C332.033 1039.91 320.012 1043.36 316.847 1024.7C316.081 1020.18 311.329 1017.52 307.085 1019.26C298.992 1022.57 293.163 1011.25 300.563 1006.59L312.355 999.168C297.331 997.119 286.395 991.053 297.353 975.621C300.009 971.881 298.528 966.647 294.297 964.873C286.232 961.496 290.117 949.365 298.644 951.305L312.232 954.395C303.059 942.323 299.616 930.301 318.274 927.137C322.799 926.371 325.454 921.618 323.716 917.374C320.4 909.281 331.725 903.452 336.384 910.852L343.809 922.648C345.857 907.622 351.923 896.682 367.357 907.642C371.096 910.297 376.331 908.816 378.104 904.585C381.482 896.52 393.613 900.405 391.673 908.932L388.581 922.526C400.653 913.353 412.675 909.909 415.839 928.568C416.605 933.092 421.357 935.748 425.602 934.009C433.695 930.693 439.524 942.018 432.124 946.677L420.323 954.105C435.352 956.152 446.295 962.218 435.335 977.653C432.679 981.393 434.16 986.628 438.391 988.401C446.453 991.776 442.57 1003.9 434.047 1001.97Z" fill="#340E32"/>
</svg>
