<svg width="184" height="46" viewBox="0 0 184 46" fill="none" xmlns="http://www.w3.org/2000/svg">
<g clip-path="url(#clip0_6004_7395)">
<path d="M112.283 13.0732C109.334 13.0732 107.017 13.7059 104.699 14.9689C104.699 8.22694 104.699 2.11766 104.911 0.0114746L90.793 2.53865V3.80285L92.2677 4.01335C94.1622 4.43434 94.7973 5.48683 95.2147 8.01644C95.6393 13.0732 95.4264 40.0424 95.2147 44.4677C99.0073 45.3109 103.012 45.9436 107.016 45.9436C118.183 45.9436 124.925 38.9899 124.925 28.0331C124.925 19.3954 119.447 13.0732 112.283 13.0732ZM107.437 43.6245C106.594 43.6245 105.539 43.6245 104.908 43.4152C104.697 40.4658 104.488 28.0331 104.697 17.0775C105.961 16.6553 106.803 16.4448 107.858 16.4448C112.496 16.4448 115.025 21.9226 115.025 28.6634C115.023 37.0942 111.862 43.6245 107.437 43.6245ZM37.6943 0.853462H0.610352V2.74915L2.71775 2.95965C5.45543 3.38064 6.51035 5.06583 6.93012 9.06892C7.56405 16.6541 7.35233 30.351 6.93012 36.8801C6.50913 40.8844 5.45665 42.7813 2.71775 42.9893L0.610352 43.4128V45.098H24.4196V43.4128L21.8912 42.9893C19.1523 42.7801 18.0986 40.8844 17.6776 36.8801C17.4659 34.1399 17.2554 29.7146 17.2554 24.2381L22.3122 24.4486C25.4733 24.4486 26.9468 26.977 27.5795 30.5579H29.4764V15.6028H27.5795C26.9456 19.1849 25.4733 21.7121 22.3122 21.7121L17.2566 21.9238C17.2566 14.7596 17.4671 8.01766 17.6788 4.01456H25.0523C30.743 4.01456 33.6924 7.59544 35.7986 13.9177L37.906 13.2849L37.6943 0.853462Z" fill="#00394C"/>
<path d="M49.7041 12.6531C60.2399 12.6531 65.5072 19.8173 65.5072 29.2982C65.5072 38.3581 59.6072 45.9457 49.0714 45.9457C38.5368 45.9457 33.2695 38.7803 33.2695 29.2982C33.2695 20.2383 39.1683 12.6531 49.7041 12.6531ZM49.0714 14.7605C44.4356 14.7605 43.1714 21.0815 43.1714 29.2982C43.1714 37.3044 45.2788 43.8358 49.4936 43.8358C54.3362 43.8358 55.6029 37.5149 55.6029 29.2982C55.6029 21.292 53.4979 14.7605 49.0714 14.7605ZM127.662 29.5099C127.662 20.871 133.14 12.6531 143.886 12.6531C152.733 12.6531 156.949 19.1858 156.949 27.8235H137.354C137.142 35.6192 140.934 41.3087 148.521 41.3087C151.892 41.3087 153.578 40.4679 155.686 38.992L156.527 40.0445C154.42 42.9939 149.785 45.9457 143.886 45.9457C134.404 45.9445 127.662 39.2025 127.662 29.5099ZM137.354 25.5068L147.257 25.2951C147.257 21.0815 146.624 14.7605 143.043 14.7605C139.462 14.7605 137.563 20.6593 137.354 25.5068ZM182.026 14.3395C179.498 13.2846 176.128 12.6531 172.335 12.6531C164.54 12.6531 159.692 17.2877 159.692 22.7667C159.692 28.2457 163.27 30.5624 168.333 32.2488C173.599 34.1433 175.075 35.6192 175.075 38.1476C175.075 40.676 173.178 42.9926 169.807 42.9926C165.805 42.9926 162.853 40.676 160.536 34.3538L159.06 34.7772L159.272 44.0476C161.8 45.1 166.435 45.9445 170.439 45.9445C178.657 45.9445 183.926 41.7284 183.926 35.1982C183.926 30.7729 181.607 28.2457 176.129 26.1371C170.228 23.8204 168.123 22.3457 168.123 19.6056C168.123 16.8667 170.022 14.9698 172.55 14.9698C176.34 14.9698 178.869 17.2877 180.768 22.9772L182.242 22.5562L182.026 14.3395ZM92.8973 13.4963C89.3164 11.3913 82.9942 12.4426 79.6239 20.029L79.8331 12.6543L65.7177 15.3932V16.6574L67.1924 16.8679C69.0905 17.0796 69.9313 18.1321 70.143 20.8722C70.564 25.929 70.3535 34.7796 70.143 39.2037C69.9313 41.7297 69.0905 42.9939 67.1924 43.2056L65.7177 43.4173V45.1025H85.3121V43.4173L82.7837 43.2056C80.6776 42.9939 80.0449 41.7297 79.8331 39.2037C79.4121 35.1994 79.4121 27.1932 79.6239 22.1364C80.6763 20.6605 85.3121 19.3975 89.5257 22.1364L92.8973 13.4963Z" fill="#00394C"/>
</g>
<defs>
<clipPath id="clip0_6004_7395">
<rect width="184" height="46" fill="white"/>
</clipPath>
</defs>
</svg>
