<svg width="181" height="50" viewBox="0 0 181 50" fill="none" xmlns="http://www.w3.org/2000/svg">
<g clip-path="url(#clip0_6004_7384)">
<path d="M38.007 9.52177L38.8174 9.28168V2.79778H38.1571L37.9169 4.38878H35.9658V0.84668H44.761V4.38878H42.8098L42.5697 2.79778H41.9093V9.28168L42.7197 9.52177V11.2328H38.007" fill="#00394C"/>
<path d="M50.2834 11.2299V6.00684C50.2834 5.61664 50.1033 5.43654 49.8031 5.43654C49.533 5.43654 49.3228 5.52654 49.1427 5.61664V9.33884L49.7731 9.48894V11.2299H45.6006V9.48894L46.231 9.33884V2.28464L45.6006 2.07454V0.273438H49.1427V4.05574C49.7431 3.54544 50.2834 3.21524 51.1239 3.21524C52.4147 3.21524 53.2252 3.84554 53.2252 5.49654V9.33884L53.8555 9.48894V11.2299H50.2834Z" fill="#00394C"/>
<path d="M58.4476 9.27747C59.078 9.27747 59.8284 9.09737 60.3687 8.88717L61.0291 10.5682C60.4288 10.9584 59.4382 11.4087 58.1174 11.4087C55.4158 11.4087 54.2451 10.178 54.2451 7.26627C54.2451 4.32447 55.806 3.21387 57.7872 3.21387C60.1586 3.21387 61.1492 4.38457 61.1492 7.65647V8.19677H57.2469C57.3369 9.09727 57.6071 9.27747 58.4476 9.27747ZM58.4476 6.60587C58.4476 5.64527 58.4176 4.95487 57.8773 4.95487C57.367 4.95487 57.2469 5.31507 57.2169 6.60587H58.4476Z" fill="#00394C"/>
<path d="M18.7041 30.504V22.3691H34.7035V48.425H26.1184L24.5575 45.003C23.2067 47.974 19.7847 49.265 16.1826 49.265C6.81703 49.265 0.243164 43.021 0.243164 26.2414C0.243164 8.65096 7.47743 2.64746 20.0549 2.64746C25.1579 2.64746 30.381 3.87817 33.4128 6.24957V16.5157H24.6476L23.3568 11.7428C22.3962 11.1725 21.4957 10.9023 20.3851 10.9023C16.3927 10.9023 14.3215 13.754 14.3215 26.1814C14.3215 38.369 15.6122 39.99 19.0943 39.99C20.5652 39.99 21.5557 39.539 21.946 39.209V31.134L18.7041 30.504Z" fill="#00394C"/>
<path d="M51.6044 18.9452C53.3455 16.4837 56.2572 14.1123 59.349 14.1123C60.5797 14.1123 61.9305 14.3825 62.711 14.6226L61.7504 26.2995C60.3996 25.6691 58.3884 25.3389 56.9776 25.3389C55.1765 25.3389 53.8858 25.7292 52.8352 26.0594V40.318L56.7074 40.888V48.423H37.4961V40.888L40.1977 40.318V23.748L37.4961 22.8475V14.6526H50.7039L51.6044 18.9452Z" fill="#00394C"/>
<path d="M78.83 13.8125C89.036 13.8125 94.319 19.2157 94.319 31.553C94.319 43.86 89.036 49.293 78.83 49.293C68.6239 49.293 63.3408 43.89 63.3408 31.553C63.3408 19.2157 68.654 13.8125 78.83 13.8125ZM78.83 41.789C80.9012 41.789 81.2314 40.168 81.2314 31.523C81.2314 22.8779 80.9012 21.2869 78.83 21.2869C76.7588 21.2869 76.4286 22.9079 76.4286 31.523C76.4286 40.138 76.7588 41.789 78.83 41.789Z" fill="#00394C"/>
<path d="M109.298 31.013C109.298 38.157 110.259 40.348 114.011 40.348C115.692 40.348 118.004 39.958 119.895 38.877L122.656 45.511C120.465 47.582 116.713 49.263 112.09 49.263C101.434 49.263 96.4209 43.59 96.4209 31.283C96.4209 19.2157 102.154 13.8125 112.24 13.8125C116.893 13.8125 119.414 14.7731 122.056 16.0638V25.7896H114.521L113.471 21.7372C113.201 21.467 112.69 21.2869 112.24 21.2869C110.199 21.2869 109.298 22.7578 109.298 31.013Z" fill="#00394C"/>
<path d="M141.597 40.048C144.359 40.048 147.601 39.268 149.972 38.367L152.824 45.661C150.182 47.402 145.98 49.263 140.186 49.263C128.509 49.263 123.346 43.98 123.346 31.343C123.346 18.6454 130.13 13.8125 138.776 13.8125C149.102 13.8125 153.364 18.9155 153.364 33.084V35.455H136.464C136.764 39.208 137.995 40.048 141.597 40.048ZM141.597 28.371C141.597 24.2287 141.537 21.2869 139.136 21.2869C136.884 21.2869 136.434 22.8178 136.284 28.371H141.597Z" fill="#00394C"/>
<path d="M169.274 18.9452C171.015 16.4837 173.926 14.1123 177.018 14.1123C178.249 14.1123 179.6 14.3825 180.38 14.6226L179.42 26.2995C178.069 25.6691 176.058 25.3389 174.647 25.3389C172.846 25.3389 171.555 25.7292 170.504 26.0594V40.318L174.377 40.888V48.423H155.165V40.888L157.867 40.318V23.748L155.165 22.8475V14.6526H168.373L169.274 18.9452Z" fill="#00394C"/>
</g>
<defs>
<clipPath id="clip0_6004_7384">
<rect width="181" height="50" fill="white"/>
</clipPath>
</defs>
</svg>
