<svg width="231" height="48" viewBox="0 0 231 48" fill="none" xmlns="http://www.w3.org/2000/svg">
<mask id="path-1-inside-1_4679_13046" fill="white">
<path d="M80.3121 34.7689V40.1416H58.2879V34.7689H66.1989V13.278H58.2879V7.90532H80.3121V13.278H72.4011V34.7689H80.3121ZM42.909 7.90532H36.8334L32.4666 33.4257H32.4033L27.3403 9.76019C27.0238 8.16117 26.5175 7.7774 24.9986 7.7774H21.6444C20.1888 7.7774 19.6192 8.16117 19.3027 9.76019L14.2397 33.4257H14.1132L9.80959 7.90532H3.29096L9.55644 38.5426C9.80959 39.8858 10.3159 40.2056 11.7715 40.2056H16.0751C17.5307 40.2056 18.037 39.8858 18.2901 38.4787L23.0367 16.2842H23.1633L27.9099 38.4787C28.2263 39.8858 28.6693 40.2056 30.1249 40.2056H34.3652C35.8841 40.2056 36.3271 39.8858 36.5803 38.5426L42.909 7.90532ZM46.2 47.3692H0V0.677734H46.2V47.3692ZM122.398 31.8907C122.422 34.6502 122.612 37.4056 122.968 40.1416H129.297C129.107 38.4147 128.917 35.5364 128.79 31.4429C128.664 27.3494 127.145 25.9423 123.854 25.3027V25.1748C127.525 24.5991 129.107 22.8082 129.107 17.1157C129.107 12.3826 128.347 10.6556 127.082 9.37642C125.816 8.0972 124.487 7.96928 122.019 7.96928H102.589V40.1416H109.171V27.6053H118.285C120.183 27.6053 120.943 27.7332 121.449 28.2449C121.955 28.7566 122.335 29.3322 122.398 31.8907ZM109.171 22.3605V13.406H119.614C121.069 13.406 121.512 13.5339 121.765 13.7897C122.019 14.0456 122.652 14.941 122.652 17.7553C122.652 20.5696 122.209 21.465 121.702 21.9128C121.196 22.3605 121.006 22.3605 119.55 22.3605H109.171ZM138.6 47.3692H92.4V0.677734H138.6V47.3692ZM194.989 7.90532V40.1416H210.685C215.178 40.1416 217.646 39.502 219.608 37.7751C221.57 36.0481 222.962 32.0186 222.962 24.0874C222.962 16.1563 221.887 12.3826 219.608 10.3998C217.33 8.41701 215.241 8.03324 210.685 8.03324H194.989V7.90532ZM216.444 24.0235C216.444 30.9313 215.874 32.7222 214.672 33.6816C213.469 34.641 212.583 34.641 210.242 34.641H201.571V13.406H210.242C212.647 13.406 213.659 13.5339 214.672 14.3654C215.684 15.1969 216.444 17.1157 216.444 24.0874M231 47.3692H184.8V0.677734H231V47.3692ZM147.081 13.278V7.90532H174.231V18.267H168.535V13.278H157.523V20.9534H166.257V26.1342H157.523V34.7689H168.788V29.1404H174.547V40.1416H147.081V34.7689H151.384V13.278H147.081Z"/>
</mask>
<path d="M80.3121 34.7689V40.1416H58.2879V34.7689H66.1989V13.278H58.2879V7.90532H80.3121V13.278H72.4011V34.7689H80.3121ZM42.909 7.90532H36.8334L32.4666 33.4257H32.4033L27.3403 9.76019C27.0238 8.16117 26.5175 7.7774 24.9986 7.7774H21.6444C20.1888 7.7774 19.6192 8.16117 19.3027 9.76019L14.2397 33.4257H14.1132L9.80959 7.90532H3.29096L9.55644 38.5426C9.80959 39.8858 10.3159 40.2056 11.7715 40.2056H16.0751C17.5307 40.2056 18.037 39.8858 18.2901 38.4787L23.0367 16.2842H23.1633L27.9099 38.4787C28.2263 39.8858 28.6693 40.2056 30.1249 40.2056H34.3652C35.8841 40.2056 36.3271 39.8858 36.5803 38.5426L42.909 7.90532ZM46.2 47.3692H0V0.677734H46.2V47.3692ZM122.398 31.8907C122.422 34.6502 122.612 37.4056 122.968 40.1416H129.297C129.107 38.4147 128.917 35.5364 128.79 31.4429C128.664 27.3494 127.145 25.9423 123.854 25.3027V25.1748C127.525 24.5991 129.107 22.8082 129.107 17.1157C129.107 12.3826 128.347 10.6556 127.082 9.37642C125.816 8.0972 124.487 7.96928 122.019 7.96928H102.589V40.1416H109.171V27.6053H118.285C120.183 27.6053 120.943 27.7332 121.449 28.2449C121.955 28.7566 122.335 29.3322 122.398 31.8907ZM109.171 22.3605V13.406H119.614C121.069 13.406 121.512 13.5339 121.765 13.7897C122.019 14.0456 122.652 14.941 122.652 17.7553C122.652 20.5696 122.209 21.465 121.702 21.9128C121.196 22.3605 121.006 22.3605 119.55 22.3605H109.171ZM138.6 47.3692H92.4V0.677734H138.6V47.3692ZM194.989 7.90532V40.1416H210.685C215.178 40.1416 217.646 39.502 219.608 37.7751C221.57 36.0481 222.962 32.0186 222.962 24.0874C222.962 16.1563 221.887 12.3826 219.608 10.3998C217.33 8.41701 215.241 8.03324 210.685 8.03324H194.989V7.90532ZM216.444 24.0235C216.444 30.9313 215.874 32.7222 214.672 33.6816C213.469 34.641 212.583 34.641 210.242 34.641H201.571V13.406H210.242C212.647 13.406 213.659 13.5339 214.672 14.3654C215.684 15.1969 216.444 17.1157 216.444 24.0874M231 47.3692H184.8V0.677734H231V47.3692ZM147.081 13.278V7.90532H174.231V18.267H168.535V13.278H157.523V20.9534H166.257V26.1342H157.523V34.7689H168.788V29.1404H174.547V40.1416H147.081V34.7689H151.384V13.278H147.081Z" fill="#00394C"/>
<path d="M80.3121 34.7689H87.1614V27.9196H80.3121V34.7689ZM80.3121 40.1416V46.991H87.1614V40.1416H80.3121ZM58.2879 40.1416H51.4386V46.991H58.2879V40.1416ZM58.2879 34.7689V27.9196H51.4386V34.7689H58.2879ZM66.1989 34.7689V41.6182H73.0482V34.7689H66.1989ZM66.1989 13.278H73.0482V6.42873H66.1989V13.278ZM58.2879 13.278H51.4386V20.1274H58.2879V13.278ZM58.2879 7.90532V1.05601H51.4386V7.90532H58.2879ZM80.3121 7.90532H87.1614V1.05601H80.3121V7.90532ZM80.3121 13.278V20.1274H87.1614V13.278H80.3121ZM72.4011 13.278V6.42873H65.5518V13.278H72.4011ZM72.4011 34.7689H65.5518V41.6182H72.4011V34.7689ZM42.909 7.90532L49.6167 9.29094L51.3178 1.05601H42.909V7.90532ZM36.8334 7.90532V1.05601H31.0566L30.0822 6.75011L36.8334 7.90532ZM32.4666 33.4257V40.2751H38.2434L39.2178 34.581L32.4666 33.4257ZM32.4033 33.4257L25.7055 34.8587L26.8643 40.2751H32.4033V33.4257ZM27.3403 9.76019L20.6213 11.0898L20.6315 11.1416L20.6425 11.1931L27.3403 9.76019ZM19.3027 9.76019L26.0005 11.1931L26.0115 11.1416L26.0218 11.0898L19.3027 9.76019ZM14.2397 33.4257V40.2751H19.7787L20.9375 34.8587L14.2397 33.4257ZM14.1132 33.4257L7.35919 34.5647L8.32215 40.2751H14.1132V33.4257ZM9.80959 7.90532L16.5635 6.76639L15.6006 1.05601H9.80959V7.90532ZM3.29096 7.90532V1.05601H-5.10084L-3.41947 9.27764L3.29096 7.90532ZM9.55644 38.5426L16.2873 37.2741L16.2775 37.2221L16.2669 37.1703L9.55644 38.5426ZM18.2901 38.4787L11.5923 37.0462L11.5689 37.1557L11.549 37.2659L18.2901 38.4787ZM23.0367 16.2842V9.43489H17.4973L16.3389 14.8518L23.0367 16.2842ZM23.1633 16.2842L29.8611 14.8518L28.7027 9.43489H23.1633V16.2842ZM27.9099 38.4787L21.212 39.9111L21.2195 39.9463L21.2274 39.9814L27.9099 38.4787ZM36.5803 38.5426L29.8726 37.157L29.8605 37.2154L29.8495 37.2741L36.5803 38.5426ZM46.2 47.3692V54.2185H53.0493V47.3692H46.2ZM0 47.3692H-6.84932V54.2185H0V47.3692ZM0 0.677734V-6.17158H-6.84932V0.677734H0ZM46.2 0.677734H53.0493V-6.17158H46.2V0.677734ZM122.398 31.8907L129.247 31.833L129.247 31.7772L129.246 31.7213L122.398 31.8907ZM122.968 40.1416L116.176 41.0258L116.952 46.991H122.968V40.1416ZM129.297 40.1416V46.991H136.94L136.105 39.3931L129.297 40.1416ZM123.854 25.3027H117.005V30.949L122.547 32.0262L123.854 25.3027ZM123.854 25.1748L122.793 18.4082L117.005 19.3159V25.1748H123.854ZM102.589 7.96928V1.11997H95.74V7.96928H102.589ZM102.589 40.1416H95.74V46.991H102.589V40.1416ZM109.171 40.1416V46.991H116.021V40.1416H109.171ZM109.171 27.6053V20.756H102.322V27.6053H109.171ZM109.171 22.3605H102.322V29.2098H109.171V22.3605ZM109.171 13.406V6.55665H102.322V13.406H109.171ZM138.6 47.3692V54.2185H145.449V47.3692H138.6ZM92.4 47.3692H85.5507V54.2185H92.4V47.3692ZM92.4 0.677734V-6.17158H85.5507V0.677734H92.4ZM138.6 0.677734H145.449V-6.17158H138.6V0.677734ZM194.989 40.1416H188.14V46.991H194.989V40.1416ZM194.989 8.03324H188.14V14.8826H194.989V8.03324ZM201.571 34.641H194.722V41.4903H201.571V34.641ZM201.571 13.406V6.55665H194.722V13.406H201.571ZM231 47.3692V54.2185H237.849V47.3692H231ZM184.8 47.3692H177.951V54.2185H184.8V47.3692ZM184.8 0.677734V-6.17158H177.951V0.677734H184.8ZM231 0.677734H237.849V-6.17158H231V0.677734ZM147.081 13.278H140.231V20.1274H147.081V13.278ZM147.081 7.90532V1.05601H140.231V7.90532H147.081ZM174.231 7.90532H181.08V1.05601H174.231V7.90532ZM174.231 18.267V25.1163H181.08V18.267H174.231ZM168.535 18.267H161.686V25.1163H168.535V18.267ZM168.535 13.278H175.384V6.42873H168.535V13.278ZM157.523 13.278V6.42873H150.674V13.278H157.523ZM157.523 20.9534H150.674V27.8027H157.523V20.9534ZM166.257 20.9534H173.106V14.104H166.257V20.9534ZM166.257 26.1342V32.9835H173.106V26.1342H166.257ZM157.523 26.1342V19.2849H150.674V26.1342H157.523ZM157.523 34.7689H150.674V41.6182H157.523V34.7689ZM168.788 34.7689V41.6182H175.638V34.7689H168.788ZM168.788 29.1404V22.291H161.939V29.1404H168.788ZM174.547 29.1404H181.397V22.291H174.547V29.1404ZM174.547 40.1416V46.991H181.397V40.1416H174.547ZM147.081 40.1416H140.231V46.991H147.081V40.1416ZM147.081 34.7689V27.9196H140.231V34.7689H147.081ZM151.384 34.7689V41.6182H158.233V34.7689H151.384ZM151.384 13.278H158.233V6.42873H151.384V13.278ZM73.4627 34.7689V40.1416H87.1614V34.7689H73.4627ZM80.3121 33.2923H58.2879V46.991H80.3121V33.2923ZM65.1373 40.1416V34.7689H51.4386V40.1416H65.1373ZM58.2879 41.6182H66.1989V27.9196H58.2879V41.6182ZM73.0482 34.7689V13.278H59.3496V34.7689H73.0482ZM66.1989 6.42873H58.2879V20.1274H66.1989V6.42873ZM65.1373 13.278V7.90532H51.4386V13.278H65.1373ZM58.2879 14.7546H80.3121V1.05601H58.2879V14.7546ZM73.4627 7.90532V13.278H87.1614V7.90532H73.4627ZM80.3121 6.42873H72.4011V20.1274H80.3121V6.42873ZM65.5518 13.278V34.7689H79.2504V13.278H65.5518ZM72.4011 41.6182H80.3121V27.9196H72.4011V41.6182ZM42.909 1.05601H36.8334V14.7546H42.909V1.05601ZM30.0822 6.75011L25.7154 32.2705L39.2178 34.581L43.5846 9.06053L30.0822 6.75011ZM32.4666 26.5764H32.4033V40.2751H32.4666V26.5764ZM39.101 31.9928L34.038 8.32727L20.6425 11.1931L25.7055 34.8587L39.101 31.9928ZM34.0593 8.43053C33.8564 7.4055 33.2993 4.81367 30.9979 2.90125C28.6598 0.958445 25.9836 0.928085 24.9986 0.928085V14.6267C25.5326 14.6267 23.8689 14.7882 22.2429 13.4371C21.4241 12.7567 20.9955 12.0085 20.7934 11.5529C20.6177 11.1567 20.5889 10.9262 20.6213 11.0898L34.0593 8.43053ZM24.9986 0.928085H21.6444V14.6267H24.9986V0.928085ZM21.6444 0.928085C20.6166 0.928085 18.0266 0.984142 15.7259 2.85436C13.4285 4.72193 12.8171 7.2512 12.5837 8.43053L26.0218 11.0898C26.1048 10.6702 25.9364 12.208 24.3668 13.484C22.7939 14.7625 21.2166 14.6267 21.6444 14.6267V0.928085ZM12.605 8.32727L7.54198 31.9928L20.9375 34.8587L26.0005 11.1931L12.605 8.32727ZM14.2397 26.5764H14.1132V40.2751H14.2397V26.5764ZM20.8671 32.2868L16.5635 6.76639L3.05563 9.04426L7.35919 34.5647L20.8671 32.2868ZM9.80959 1.05601H3.29096V14.7546H9.80959V1.05601ZM-3.41947 9.27764L2.84601 39.9149L16.2669 37.1703L10.0014 6.53301L-3.41947 9.27764ZM2.82562 39.8112C3.03988 40.948 3.66005 43.5778 6.17967 45.4136C8.44146 47.0615 10.935 47.0549 11.7715 47.0549V33.3563C11.6052 33.3563 11.8075 33.3422 12.1838 33.4171C12.6044 33.5008 13.4007 33.7258 14.2464 34.342C15.1317 34.987 15.6714 35.7679 15.9712 36.388C16.1086 36.6723 16.1869 36.9037 16.2286 37.0435C16.2702 37.1831 16.2862 37.2686 16.2873 37.2741L2.82562 39.8112ZM11.7715 47.0549H16.0751V33.3563H11.7715V47.0549ZM16.0751 47.0549C16.899 47.0549 19.457 47.0687 21.7505 45.3437C24.2515 43.4627 24.8323 40.7971 25.0312 39.6914L11.549 37.2659C11.4948 37.5673 11.6959 35.7652 13.5166 34.3959C14.3747 33.7505 15.1946 33.511 15.6376 33.4211C16.0296 33.3416 16.2445 33.3563 16.0751 33.3563V47.0549ZM24.988 39.9111L29.7346 17.7166L16.3389 14.8518L11.5923 37.0462L24.988 39.9111ZM23.0367 23.1335H23.1633V9.43489H23.0367V23.1335ZM16.4654 17.7166L21.212 39.9111L34.6077 37.0462L29.8611 14.8518L16.4654 17.7166ZM21.2274 39.9814C21.4319 40.8908 22.0315 43.4641 24.4114 45.2967C26.7148 47.0703 29.2971 47.0549 30.1249 47.0549V33.3563C29.9518 33.3563 30.1838 33.3409 30.597 33.4264C31.0751 33.5253 31.91 33.7815 32.769 34.4429C34.4844 35.7638 34.7042 37.4736 34.5923 36.9759L21.2274 39.9814ZM30.1249 47.0549H34.3652V33.3563H30.1249V47.0549ZM34.3652 47.0549C35.1588 47.0549 37.7415 47.0845 40.0427 45.3679C42.5807 43.4748 43.132 40.7611 43.3111 39.8112L29.8495 37.2741C29.7754 37.6673 29.9787 35.7851 31.8521 34.3877C32.7351 33.729 33.5717 33.4973 33.9944 33.4141C34.3689 33.3405 34.5632 33.3563 34.3652 33.3563V47.0549ZM43.288 39.9282L49.6167 9.29094L36.2013 6.51971L29.8726 37.157L43.288 39.9282ZM46.2 40.5199H0V54.2185H46.2V40.5199ZM6.84932 47.3692V0.677734H-6.84932V47.3692H6.84932ZM0 7.52705H46.2V-6.17158H0V7.52705ZM39.3507 0.677734V47.3692H53.0493V0.677734H39.3507ZM115.549 31.9483C115.575 34.9841 115.784 38.0156 116.176 41.0258L129.76 39.2575C129.439 36.7956 129.268 34.3162 129.247 31.833L115.549 31.9483ZM122.968 46.991H129.297V33.2923H122.968V46.991ZM136.105 39.3931C135.944 37.9248 135.761 35.25 135.636 31.2313L121.944 31.6546C122.073 35.8229 122.27 38.9046 122.488 40.8902L136.105 39.3931ZM135.636 31.2313C135.553 28.5159 134.992 25.2893 132.714 22.6256C130.42 19.9441 127.39 19.0124 125.161 18.5792L122.547 32.0262C122.78 32.0715 122.934 32.1114 123.026 32.1394C123.118 32.1671 123.127 32.1762 123.079 32.1533C123.027 32.129 122.913 32.0697 122.766 31.9612C122.615 31.85 122.454 31.7058 122.304 31.5296C122.153 31.3536 122.043 31.1817 121.967 31.0359C121.893 30.894 121.864 30.8007 121.859 30.784C121.856 30.7738 121.925 31.0122 121.944 31.6546L135.636 31.2313ZM130.703 25.3027V25.1748H117.005V25.3027H130.703ZM124.915 31.9414C127.63 31.5157 131.109 30.3914 133.484 26.9689C135.577 23.9536 135.956 20.3009 135.956 17.1157H122.258C122.258 18.2567 122.175 18.9275 122.1 19.285C122.028 19.6245 122.004 19.4842 122.23 19.1592C122.344 18.9946 122.493 18.8255 122.671 18.6726C122.848 18.5216 123.008 18.4241 123.12 18.3675C123.313 18.2689 123.287 18.3307 122.793 18.4082L124.915 31.9414ZM135.956 17.1157C135.956 11.7329 135.114 7.75666 131.95 4.55892L122.213 14.1939C122.215 14.1956 122.138 14.1158 122.057 13.9811C121.979 13.8498 121.971 13.7911 121.998 13.8838C122.079 14.1599 122.258 15.0286 122.258 17.1157H135.956ZM131.95 4.55892C128.504 1.07557 124.441 1.11997 122.019 1.11997V14.8186C122.601 14.8186 122.966 14.8271 123.228 14.8441C123.483 14.8607 123.505 14.878 123.402 14.8531C123.269 14.8213 123.026 14.7443 122.746 14.5867C122.467 14.43 122.288 14.2703 122.213 14.1939L131.95 4.55892ZM122.019 1.11997H102.589V14.8186H122.019V1.11997ZM95.74 7.96928V40.1416H109.439V7.96928H95.74ZM102.589 46.991H109.171V33.2923H102.589V46.991ZM116.021 40.1416V27.6053H102.322V40.1416H116.021ZM109.171 34.4546H118.285V20.756H109.171V34.4546ZM118.285 34.4546C118.696 34.4546 118.954 34.4619 119.114 34.4712C119.282 34.4809 119.238 34.4873 119.074 34.4551C118.897 34.4206 118.5 34.3263 118.005 34.0848C117.473 33.8254 116.987 33.4734 116.58 33.0624L126.318 23.4274C124.858 21.9523 123.165 21.2971 121.704 21.0113C120.5 20.7759 119.247 20.756 118.285 20.756V34.4546ZM116.58 33.0624C116.552 33.0335 116.31 32.7898 116.059 32.4023C115.797 32.0002 115.642 31.6274 115.557 31.3571C115.482 31.1212 115.481 31.0225 115.497 31.1583C115.514 31.2918 115.539 31.5708 115.551 32.0601L129.246 31.7213C129.209 30.2369 129.079 28.6921 128.623 27.2434C128.041 25.3959 127.1 24.2178 126.318 23.4274L116.58 33.0624ZM116.021 22.3605V13.406H102.322V22.3605H116.021ZM109.171 20.2553H119.614V6.55665H109.171V20.2553ZM119.614 20.2553C119.888 20.2553 120.033 20.2616 120.092 20.2653C120.159 20.2696 120.042 20.2664 119.815 20.2218C119.585 20.1764 119.123 20.0654 118.562 19.7959C117.946 19.5004 117.379 19.0951 116.897 18.6072L126.634 8.97222C125.264 7.58714 123.683 7.0221 122.466 6.782C121.455 6.58268 120.426 6.55665 119.614 6.55665V20.2553ZM116.897 18.6072C116.543 18.2496 116.276 17.8866 116.084 17.5544C115.897 17.2321 115.805 16.982 115.766 16.8559C115.694 16.6274 115.802 16.8302 115.802 17.7553H129.501C129.501 14.0882 128.697 11.0568 126.634 8.97222L116.897 18.6072ZM115.802 17.7553C115.802 18.2877 115.781 18.6331 115.76 18.837C115.739 19.0453 115.725 19.043 115.764 18.902C115.805 18.7519 115.915 18.4124 116.167 17.987C116.435 17.5322 116.78 17.1221 117.165 16.7819L126.239 27.0437C129.172 24.4502 129.501 20.7262 129.501 17.7553H115.802ZM117.165 16.7819C117.174 16.774 117.255 16.7016 117.385 16.6035C117.521 16.5001 117.727 16.3553 117.995 16.2043C118.601 15.8628 119.199 15.6721 119.696 15.5771C120.085 15.5026 120.337 15.5039 120.222 15.5073C120.119 15.5105 119.954 15.5112 119.55 15.5112V29.2098C119.923 29.2098 121.17 29.242 122.269 29.032C124.241 28.6549 125.508 27.6902 126.239 27.0437L117.165 16.7819ZM119.55 15.5112H109.171V29.2098H119.55V15.5112ZM138.6 40.5199H92.4V54.2185H138.6V40.5199ZM99.2493 47.3692V0.677734H85.5507V47.3692H99.2493ZM92.4 7.52705H138.6V-6.17158H92.4V7.52705ZM131.751 0.677734V47.3692H145.449V0.677734H131.751ZM188.14 7.90532V40.1416H201.839V7.90532H188.14ZM194.989 46.991H210.685V33.2923H194.989V46.991ZM210.685 46.991C215.705 46.991 220.271 46.3161 224.134 42.9164L215.083 32.6338C214.948 32.752 214.808 32.8621 214.348 32.9834C213.745 33.1426 212.673 33.2923 210.685 33.2923V46.991ZM224.134 42.9164C226.49 40.8419 227.844 37.9889 228.637 35.0303C229.44 32.0346 229.812 28.3968 229.812 24.0874H216.113C216.113 27.7093 215.789 30.0518 215.405 31.4854C215.011 32.9561 214.688 32.9813 215.083 32.6338L224.134 42.9164ZM229.812 24.0874C229.812 16.3115 228.959 9.4579 224.105 5.23308L215.112 15.5665C214.907 15.3882 215.181 15.4352 215.501 16.6974C215.849 18.0707 216.113 20.3401 216.113 24.0874H229.812ZM224.105 5.23308C222.234 3.60472 220.189 2.45921 217.661 1.82778C215.409 1.26542 213.023 1.18393 210.685 1.18393V14.8826C212.903 14.8826 213.84 14.993 214.341 15.1182C214.526 15.1644 214.608 15.2039 214.658 15.2305C214.717 15.2618 214.856 15.3442 215.112 15.5665L224.105 5.23308ZM210.685 1.18393H194.989V14.8826H210.685V1.18393ZM201.839 8.03324V7.90532H188.14V8.03324H201.839ZM209.595 24.0235C209.595 27.4358 209.441 29.0111 209.298 29.7107C209.239 30.0004 209.238 29.8378 209.433 29.4769C209.674 29.0334 210.025 28.6265 210.4 28.3276L218.944 39.0355C221.173 37.2572 222.216 34.9163 222.719 32.4556C223.161 30.293 223.293 27.5189 223.293 24.0235H209.595ZM210.4 28.3276C210.425 28.3075 210.601 28.1716 210.902 28.0309C211.048 27.9625 211.196 27.9061 211.339 27.8621C211.48 27.8187 211.593 27.794 211.667 27.7806C211.738 27.7678 211.769 27.7662 211.741 27.7687C211.712 27.7713 211.643 27.7764 211.515 27.7808C211.385 27.7853 211.222 27.7884 211.004 27.79C210.784 27.7916 210.541 27.7917 210.242 27.7917V41.4903C211.169 41.4903 212.693 41.5156 214.1 41.2615C215.983 40.9217 217.538 40.1569 218.944 39.0355L210.4 28.3276ZM210.242 27.7917H201.571V41.4903H210.242V27.7917ZM208.421 34.641V13.406H194.722V34.641H208.421ZM201.571 20.2553H210.242V6.55665H201.571V20.2553ZM210.242 20.2553C210.801 20.2553 211.166 20.2633 211.425 20.2777C211.684 20.292 211.722 20.3074 211.637 20.2905C211.526 20.2683 211.284 20.2072 210.982 20.0659C210.677 19.9226 210.452 19.7633 210.325 19.6588L219.018 9.07199C215.91 6.51985 212.525 6.55665 210.242 6.55665V20.2553ZM210.325 19.6588C209.841 19.2612 209.508 18.8111 209.315 18.4454C209.158 18.1472 209.174 18.0542 209.245 18.3793C209.403 19.1054 209.595 20.7409 209.595 24.0874H223.293C223.293 20.4622 223.105 17.6525 222.63 15.4683C222.13 13.1679 221.151 10.8235 219.018 9.07199L210.325 19.6588ZM231 40.5199H184.8V54.2185H231V40.5199ZM191.649 47.3692V0.677734H177.951V47.3692H191.649ZM184.8 7.52705H231V-6.17158H184.8V7.52705ZM224.151 0.677734V47.3692H237.849V0.677734H224.151ZM153.93 13.278V7.90532H140.231V13.278H153.93ZM147.081 14.7546H174.231V1.05601H147.081V14.7546ZM167.382 7.90532V18.267H181.08V7.90532H167.382ZM174.231 11.4177H168.535V25.1163H174.231V11.4177ZM175.384 18.267V13.278H161.686V18.267H175.384ZM168.535 6.42873H157.523V20.1274H168.535V6.42873ZM150.674 13.278V20.9534H164.372V13.278H150.674ZM157.523 27.8027H166.257V14.104H157.523V27.8027ZM159.407 20.9534V26.1342H173.106V20.9534H159.407ZM166.257 19.2849H157.523V32.9835H166.257V19.2849ZM150.674 26.1342V34.7689H164.372V26.1342H150.674ZM157.523 41.6182H168.788V27.9196H157.523V41.6182ZM175.638 34.7689V29.1404H161.939V34.7689H175.638ZM168.788 35.9897H174.547V22.291H168.788V35.9897ZM167.698 29.1404V40.1416H181.397V29.1404H167.698ZM174.547 33.2923H147.081V46.991H174.547V33.2923ZM153.93 40.1416V34.7689H140.231V40.1416H153.93ZM147.081 41.6182H151.384V27.9196H147.081V41.6182ZM158.233 34.7689V13.278H144.535V34.7689H158.233ZM151.384 6.42873H147.081V20.1274H151.384V6.42873Z" fill="#00394C" mask="url(#path-1-inside-1_4679_13046)"/>
</svg>
