<svg width="871" height="628" viewBox="0 0 871 628" fill="none" xmlns="http://www.w3.org/2000/svg">
<ellipse cx="18.5343" cy="314.458" rx="18.5219" ry="18.5343" transform="rotate(90 18.5343 314.458)" fill="#E681FF"/>
<path d="M309.984 300.898C309.984 300.898 309.964 300.898 309.944 300.898L250.721 295.277C244.453 294.795 239.009 299.754 239.049 306.178C239.089 311.879 243.891 316.437 249.576 316.878L308.517 321.496C308.517 321.496 308.537 321.496 308.557 321.496L322.68 317.24C326.517 316.075 327.12 310.916 323.664 308.908L309.964 300.938L309.984 300.898Z" fill="#E681FF"/>
<path d="M334.069 269.922C334.069 269.922 334.069 269.902 334.049 269.882L296.342 223.949C292.244 219.171 284.891 218.829 280.391 223.407C276.394 227.482 276.554 234.087 280.271 238.423L318.701 283.353C318.701 283.353 318.701 283.353 318.741 283.373L332.261 290.52C335.857 292.427 339.975 289.034 338.79 285.139L334.109 269.922H334.069Z" fill="#E681FF"/>
<path d="M315.468 341.15C315.468 341.15 315.448 341.15 315.428 341.15L268.921 377.909C264.14 382.004 263.799 389.352 268.379 393.849C272.457 397.844 279.066 397.683 283.406 393.969L328.365 355.565C328.365 355.565 328.365 355.565 328.385 355.524L334.914 343.82C336.903 340.267 333.608 336.091 329.691 337.175L315.468 341.11V341.15Z" fill="#E681FF"/>
<path d="M346.005 364.318C346.005 364.318 346.005 364.338 346.005 364.358L340.299 423.521C339.837 429.483 344.277 434.683 350.243 435.145C356.19 435.606 361.413 431.17 361.875 425.207L366.315 365.763V365.723L361.172 351.971C359.786 348.277 354.683 347.936 352.835 351.429L346.025 364.298L346.005 364.318Z" fill="#E681FF"/>
<path d="M372.883 264.843C372.883 264.843 372.883 264.823 372.883 264.803L379.05 205.76C379.532 199.497 374.57 194.056 368.142 194.096C362.436 194.136 357.876 198.934 357.434 204.616L352.814 263.518C352.814 263.518 352.814 263.538 352.814 263.558L357.434 278.273C358.68 282.208 364.084 282.63 365.912 278.916L372.863 264.803L372.883 264.843Z" fill="#E681FF"/>
<path d="M469.754 312.401L410.793 307.784C410.793 307.784 410.773 307.784 410.753 307.784L396.791 312.341C392.893 313.606 392.512 318.966 396.168 320.793L409.708 327.518C409.708 327.518 409.728 327.518 409.748 327.518L468.609 333.983C474.877 334.465 480.321 329.506 480.281 323.082C480.241 317.38 475.439 312.823 469.754 312.381V312.401Z" fill="#E681FF"/>
<path d="M404.463 289.113C404.463 289.113 404.484 289.113 404.504 289.113L450.427 251.351C455.208 247.256 455.55 239.908 450.97 235.411C446.892 231.416 440.282 231.577 435.943 235.291L391.004 273.695C391.004 273.695 390.984 273.715 390.984 273.736L384.013 287.869C382.205 291.522 385.74 295.538 389.598 294.233L404.484 289.174L404.463 289.113Z" fill="#E681FF"/>
<path d="M385.658 359.139C385.658 359.139 385.658 359.159 385.658 359.179L422.983 405.333C426.861 409.87 433.691 410.412 438.231 406.517C442.771 402.643 443.313 395.817 439.416 391.28L400.624 345.929C400.624 345.929 400.604 345.929 400.584 345.909L387.787 339.264C384.191 337.397 380.133 340.769 381.299 344.624L385.618 359.119L385.658 359.139Z" fill="#E681FF"/>
<path d="M352.815 263.579C352.815 263.579 352.815 263.559 352.815 263.539L335.037 206.825C333.148 201.164 327.021 198.112 321.356 199.999C315.691 201.886 312.637 208.009 314.526 213.671L334.072 269.882C334.072 269.882 334.072 269.903 334.072 269.923L343.655 281.607C346.286 284.819 351.49 283.152 351.771 279.017L352.815 263.579Z" fill="#E681FF"/>
<path d="M390.843 273.697C390.843 273.697 390.843 273.697 390.863 273.656L418.225 221.4C420.756 216.34 419.309 209.997 414.508 207.005C409.004 203.572 401.892 205.68 399.08 211.322L372.783 264.783C372.783 264.783 372.783 264.803 372.783 264.823L371.417 280.161C371.056 284.276 375.877 286.726 378.991 284.015L390.843 273.676V273.697Z" fill="#E681FF"/>
<path d="M410.769 307.784C410.769 307.784 410.789 307.784 410.809 307.784L467.56 290.017C473.225 288.13 476.279 282.007 474.391 276.346C472.502 270.684 466.375 267.633 460.71 269.52L404.501 289.114C404.501 289.114 404.481 289.114 404.461 289.114L393.03 298.77C389.876 301.44 391.583 306.58 395.702 306.841L410.769 307.784Z" fill="#E681FF"/>
<path d="M366.294 365.723C366.294 365.723 366.294 365.743 366.294 365.763L384.294 422.456C386.183 428.118 392.31 431.169 397.975 429.282C403.64 427.395 406.693 421.272 404.805 415.611L385.66 359.178C385.66 359.178 385.66 359.138 385.64 359.138L374.671 348.458C371.839 345.687 367.058 347.594 366.897 351.549L366.294 365.743V365.723Z" fill="#E681FF"/>
<path d="M400.643 345.888C400.643 345.888 400.663 345.908 400.683 345.908L453.397 373.451C459.022 376.262 465.933 373.712 468.303 367.73C470.392 362.43 467.66 356.407 462.558 353.858L409.764 327.518C409.764 327.518 409.743 327.518 409.723 327.518L394.596 326.735C390.599 326.535 388.268 331.192 390.86 334.264L400.663 345.888H400.643Z" fill="#E681FF"/>
<path d="M318.703 283.372C318.703 283.372 318.683 283.352 318.663 283.352L265.969 255.809C260.625 253.139 254.137 255.307 251.465 260.647C248.793 265.987 250.963 272.471 256.306 275.141L309.944 300.878C309.944 300.878 309.964 300.878 309.984 300.878L324.187 302.685C328.285 303.207 330.917 298.469 328.326 295.257L318.703 283.352V283.372Z" fill="#E681FF"/>
<path d="M308.58 321.477H308.54L251.789 339.244C246.123 341.131 243.07 347.254 244.958 352.915C246.847 358.576 252.974 361.628 258.639 359.741L315.431 341.151C315.431 341.151 315.451 341.151 315.471 341.151L326.661 331.956C329.714 329.447 328.368 324.488 324.431 323.886L308.58 321.477Z" fill="#E681FF"/>
<path d="M328.386 355.564C328.386 355.564 328.366 355.584 328.346 355.604L300.784 408.283C298.112 413.623 300.282 420.107 305.625 422.778C310.969 425.448 317.458 423.279 320.13 417.939L345.964 364.357C345.964 364.357 345.964 364.337 345.964 364.317L347.39 350.726C347.812 346.731 343.232 344.181 340.038 346.631L328.366 355.584L328.386 355.564Z" fill="#E681FF"/>
<path d="M132.94 272.87C132.096 269.723 128.859 267.856 125.71 268.699C122.562 269.542 120.693 272.776 121.537 275.923L128.59 302.23L104.989 288.613C102.166 286.984 98.556 287.951 96.9261 290.772C95.2962 293.593 96.2634 297.201 99.0866 298.83L122.686 312.446L96.3612 319.495C93.2124 320.338 91.3437 323.572 92.1875 326.719C93.0312 329.866 96.2677 331.733 99.4166 330.89L125.744 323.84L112.116 347.428C110.486 350.249 111.454 353.856 114.277 355.485C117.1 357.114 120.71 356.147 122.34 353.326L135.967 329.74L143.02 356.046C143.864 359.193 147.1 361.06 150.249 360.217C153.398 359.374 155.267 356.14 154.423 352.993L147.37 326.687L170.971 340.305C173.794 341.933 177.404 340.967 179.034 338.146C180.664 335.324 179.697 331.717 176.874 330.088L153.27 316.469L179.593 309.421C182.742 308.578 184.611 305.343 183.767 302.197C182.923 299.05 179.687 297.182 176.538 298.026L150.217 305.074L163.842 281.49C165.472 278.668 164.505 275.061 161.682 273.432C158.859 271.803 155.249 272.77 153.619 275.591L139.993 299.176L132.94 272.87Z" fill="#E681FF"/>
<path d="M637.673 345.688L568.265 365.444C553.438 369.664 544.849 385.104 549.072 399.897C553.294 414.714 568.745 423.297 583.548 419.078L652.932 399.322L751.37 345.281C753.146 344.298 752.402 341.612 750.387 341.684L637.673 345.664V345.688Z" fill="#E681FF"/>
<path d="M1060.65 283.231L1130.01 263.475C1145 259.208 1153.62 243.48 1149.06 228.519C1144.5 213.558 1128.62 205.886 1113.84 210.105L1045.34 229.598L946.28 284.046C944.504 285.029 945.248 287.715 947.287 287.643L1060.67 283.231H1060.65Z" fill="#E681FF"/>
<path d="M880.398 525.818L900.168 595.132C904.39 609.949 919.841 618.532 934.644 614.312C949.471 610.092 958.06 594.652 953.837 579.859L934.068 510.497L879.127 411.693C878.143 409.919 875.456 410.686 875.528 412.7L880.422 525.842L880.398 525.818Z" fill="#E681FF"/>
<path d="M721.696 485.995L687.052 548.188C679.59 561.614 683.669 578.948 696.96 586.669C710.252 594.389 727.79 589.737 735.371 576.119L770.447 513.135L801.372 404.285C801.924 402.343 799.477 400.977 798.109 402.463L721.696 485.995Z" fill="#E681FF"/>
<path d="M976.608 142.924L1011.68 79.9402C1019.17 66.4898 1014.32 49.4911 1000.86 42.0106C987.404 34.5302 970.394 39.3493 962.909 52.8237L927.833 115.832L897.075 224.754C896.523 226.696 898.971 228.062 900.338 226.576L976.608 142.924Z" fill="#E681FF"/>
<path d="M817.902 103.126L798.373 34.6755C794.175 19.9065 778.988 10.532 764.137 14.464C748.998 18.4679 740.169 34.0761 744.44 49.061L764.209 118.351L819.222 217.227C820.206 219.001 822.917 218.234 822.821 216.22L817.902 103.126Z" fill="#E681FF"/>
<path d="M677.501 187.089L615.267 152.492C601.831 145.036 584.485 149.112 576.76 162.394C569.035 175.677 573.689 193.203 587.316 200.779L650.367 235.856L758.545 266.281C760.489 266.832 761.856 264.387 760.369 263.02L677.477 187.113L677.501 187.089Z" fill="#E681FF"/>
<path d="M1020.77 441.831L1083.82 476.883C1097.45 484.46 1114.68 479.425 1122.02 465.615C1129.36 451.805 1123.58 435.165 1110.14 427.685L1047.93 393.088L939.153 361.896C937.21 361.344 935.842 363.79 937.33 365.156L1020.77 441.831Z" fill="#E681FF"/>
<path d="M927.831 115.833L945.417 45.896C949.208 30.7913 939.899 15.4708 924.64 11.9464C909.669 8.46989 894.794 18.3239 891.052 33.2128L873.706 102.239L872.194 215.404C872.17 217.418 874.881 218.113 875.817 216.315L927.831 115.833Z" fill="#E681FF"/>
<path d="M1045.34 229.598L1107.24 192.579C1120.46 184.667 1124.75 167.548 1116.86 154.338C1108.94 141.127 1091.81 136.812 1078.59 144.724L1016.72 181.742L935.388 260.454C933.924 261.869 935.388 264.266 937.307 263.667L1045.37 229.622L1045.34 229.598Z" fill="#E681FF"/>
<path d="M650.392 235.832L580.408 218.258C565.293 214.47 549.962 223.772 546.435 239.021C542.957 253.982 552.817 268.846 567.716 272.563L636.74 289.873L749.166 291.36C751.181 291.384 751.877 288.674 750.077 287.739L650.416 235.808L650.392 235.832Z" fill="#E681FF"/>
<path d="M770.443 513.111L752.881 583.024C749.138 597.961 758.207 613.114 773.154 616.854C788.101 620.594 803.263 611.531 807.006 596.594L824.568 526.681L825.96 413.492C825.983 411.478 823.272 410.783 822.337 412.581L770.443 513.111Z" fill="#E681FF"/>
<path d="M652.932 399.322L591.825 435.885C578.653 443.773 573.495 460.844 581.148 474.151C588.802 487.457 606.316 492.204 619.679 484.196L681.602 447.154L762.766 368.298C764.229 366.883 762.766 364.486 760.846 365.085L652.908 399.298L652.932 399.322Z" fill="#E681FF"/>
<path d="M934.041 510.497L970.629 571.587C978.522 584.774 995.604 589.905 1008.92 582.256C1022.24 574.608 1026.99 557.106 1018.97 543.751L981.929 481.894L903.62 401.336C902.204 399.897 899.805 401.336 900.405 403.254L934.017 510.521L934.041 510.497Z" fill="#E681FF"/>
<path d="M1047.96 393.112L1117.89 410.663C1133.01 414.451 1148.34 405.124 1151.86 389.9C1155.39 374.675 1145.48 360.074 1130.58 356.358L1061.46 339.023L948.27 337.489C946.255 337.465 945.559 340.174 947.359 341.109L1047.93 393.136L1047.96 393.112Z" fill="#E681FF"/>
<path d="M764.209 118.351L727.189 56.5175C719.271 43.3068 702.141 39.0152 688.922 46.9032C675.702 54.8152 671.408 71.9338 679.301 85.1444L716.368 147.002L794.869 228.375C796.285 229.838 798.684 228.399 798.084 226.481L764.232 118.327L764.209 118.351Z" fill="#E681FF"/>
<path d="M716.341 147.05L664.519 96.8689C653.315 86.0319 635.393 86.4395 624.693 97.8759C613.992 109.312 615.312 126.887 626.348 137.58L677.499 187.114L774.689 245.159C776.416 246.19 778.384 244.176 777.28 242.473L716.341 147.074V147.05Z" fill="#E681FF"/>
<path d="M873.703 102.239L872.576 30.1436C872.336 14.7512 859.644 2.45168 844.242 2.69143C828.839 2.93119 816.531 15.6143 816.771 31.0068L817.899 103.102L845.489 212.791C845.993 214.757 848.776 214.709 849.232 212.743L873.703 102.215V102.239Z" fill="#E681FF"/>
<path d="M1016.7 181.719L1066.89 129.955C1077.73 118.759 1077.33 100.849 1065.88 90.1557C1054.44 79.4625 1036.85 80.7812 1026.15 91.81L976.608 142.926L918.716 240.268C917.684 242.018 919.7 243.96 921.403 242.857L1016.7 181.719Z" fill="#E681FF"/>
<path d="M824.593 526.705L825.721 597.865C825.961 613.209 838.196 626.204 853.551 626.228C868.906 626.252 881.789 613.473 881.525 597.913L880.398 525.842L852.735 416.129C852.232 414.163 849.424 414.211 848.993 416.177L824.593 526.705Z" fill="#E681FF"/>
<path d="M981.955 481.894L1033.75 532.051C1044.81 542.769 1062.5 542.481 1073.22 531.428C1083.94 520.375 1083.66 502.705 1072.6 491.988L1020.77 441.831L923.655 383.714C921.927 382.683 919.96 384.673 921.04 386.399L981.931 481.894H981.955Z" fill="#E681FF"/>
<path d="M636.714 289.921L564.618 291.048C549.216 291.288 536.908 303.971 537.148 319.363C537.388 334.756 550.079 347.055 565.482 346.815L637.625 345.689L747.364 318.092C749.331 317.589 749.283 314.808 747.316 314.352L636.666 289.921H636.714Z" fill="#E681FF"/>
<path d="M681.626 447.178L632.059 498.294C621.359 509.323 620.831 527.137 631.676 538.022C642.712 549.122 660.658 548.955 671.502 537.758L721.717 485.971L779.801 388.869C780.832 387.143 778.817 385.177 777.114 386.28L681.626 447.154V447.178Z" fill="#E681FF"/>
<path d="M1161.1 309.005C1160.57 293.661 1147.21 281.865 1131.86 282.104L1060.67 283.231L950.838 310.492C948.871 310.971 948.895 313.776 950.886 314.232L1061.49 338.999L1133.68 337.848C1149.27 337.608 1161.65 324.637 1161.13 309.005H1161.1Z" fill="#E681FF"/>
<path d="M939.996 309.053L920.827 304.234L937.789 294.093C941.795 291.695 940.044 285.557 935.366 285.629L915.621 285.941L929.368 271.771C932.607 268.415 929.32 262.948 924.833 264.219L905.832 269.637L915.453 252.375C917.732 248.299 913.125 243.864 909.119 246.261L892.156 256.403L896.979 237.246C898.106 232.715 892.54 229.622 889.277 232.979L875.53 247.172L875.218 227.44C875.146 222.789 868.957 221.23 866.677 225.306L857.057 242.569L851.634 223.58C850.363 219.097 843.957 219.193 842.829 223.724L838.031 242.857L827.883 225.906C825.483 221.902 819.342 223.652 819.414 228.327L819.725 248.083L805.522 234.345C802.164 231.108 796.693 234.393 797.965 238.877L803.387 257.865L786.137 248.275C782.058 245.997 777.62 250.601 780.019 254.605L790.168 271.555L770.998 266.736C766.464 265.609 763.369 271.172 766.728 274.433L780.907 288.171L761.138 288.482C756.483 288.554 754.924 294.74 759.002 297.018L776.276 306.632L757.251 312.05C752.764 313.321 752.86 319.723 757.395 320.85L776.564 325.669L759.626 335.81C755.62 338.208 757.371 344.346 762.049 344.274L781.818 343.962L768.071 358.156C764.832 361.512 768.119 366.979 772.606 365.708L791.607 360.29L781.986 377.552C779.707 381.628 784.314 386.063 788.32 383.666L805.282 373.524L800.46 392.681C799.333 397.212 804.898 400.305 808.161 396.948L821.909 382.755L822.221 402.511C822.292 407.162 828.482 408.72 830.762 404.645L840.382 387.382L845.804 406.371C847.076 410.854 853.482 410.758 854.609 406.227L859.432 387.046L869.58 403.997C871.98 408.001 878.121 406.251 878.049 401.576L877.737 381.844L891.917 395.582C895.275 398.819 900.746 395.534 899.474 391.05L894.052 372.062L911.326 381.676C915.404 383.954 919.843 379.35 917.444 375.346L907.295 358.419L926.465 363.239C930.999 364.365 934.094 358.803 930.735 355.542L916.532 341.78L936.301 341.469C940.956 341.397 942.515 335.211 938.437 332.933L921.186 323.343L940.188 317.924C944.674 316.654 944.579 310.252 940.044 309.125L939.996 309.053ZM910.054 316.894L900.816 319.519C899.524 319.886 899.322 321.631 900.495 322.284L908.903 326.963C911.638 328.474 910.582 332.646 907.463 332.694L897.83 332.85C896.488 332.872 895.841 334.504 896.805 335.438L903.721 342.14C905.976 344.322 903.888 348.062 900.841 347.295L891.517 344.948C890.214 344.62 889.165 346.031 889.855 347.183L894.796 355.423C896.403 358.108 893.428 361.177 890.693 359.666L882.284 354.986C881.11 354.333 879.733 355.423 880.1 356.714L882.728 365.948C883.591 368.945 879.897 371.151 877.666 368.969L870.755 362.289C869.79 361.356 868.178 362.055 868.2 363.397L868.357 372.997C868.405 376.114 864.278 377.288 862.671 374.603L857.724 366.353C857.035 365.203 855.297 365.459 854.97 366.76L852.618 376.09C851.85 379.135 847.556 379.182 846.716 376.185L844.089 366.953C843.722 365.662 841.976 365.46 841.322 366.632L836.64 375.035C835.128 377.768 830.954 376.713 830.906 373.596L830.749 363.969C830.727 362.628 829.094 361.982 828.159 362.945L821.453 369.856C819.27 372.11 815.527 370.024 816.295 366.979L818.643 357.66C818.971 356.358 817.559 355.31 816.407 356L808.161 360.937C805.474 362.543 802.403 359.57 803.915 356.837L808.599 348.433C809.252 347.261 808.161 345.884 806.869 346.251L797.629 348.877C794.63 349.74 792.423 346.048 794.606 343.818L801.306 336.914C802.241 335.95 801.543 334.337 800.199 334.359L790.576 334.516C787.457 334.564 786.281 330.44 788.968 328.833L797.223 323.891C798.375 323.201 798.118 321.465 796.817 321.138L787.481 318.788C784.434 318.02 784.386 313.729 787.385 312.89L796.654 310.243C797.945 309.874 798.146 308.131 796.974 307.478L788.56 302.796C785.825 301.285 786.881 297.114 790 297.066L799.626 296.909C800.97 296.887 801.615 295.253 800.65 294.32L793.742 287.643C791.487 285.461 793.574 281.721 796.621 282.488L805.946 284.835C807.249 285.163 808.298 283.752 807.608 282.6L802.667 274.361C801.06 271.675 804.035 268.606 806.77 270.117L815.182 274.799C816.354 275.451 817.732 274.362 817.365 273.071L814.735 263.811C813.871 260.814 817.566 258.609 819.797 260.79L826.706 267.486C827.671 268.421 829.285 267.723 829.263 266.38L829.106 256.762C829.058 253.646 833.185 252.471 834.792 255.156L839.734 263.398C840.424 264.55 842.163 264.292 842.489 262.989L844.821 253.67C845.589 250.625 849.883 250.577 850.723 253.574L853.351 262.827C853.718 264.118 855.464 264.321 856.118 263.148L860.799 254.748C862.311 252.015 866.485 253.07 866.533 256.187L866.69 265.79C866.712 267.131 868.345 267.777 869.279 266.814L875.986 259.903C878.169 257.65 881.912 259.735 881.144 262.78L878.796 272.099C878.467 273.401 879.879 274.449 881.032 273.759L889.277 268.822C891.965 267.216 895.036 270.189 893.524 272.922L888.839 281.328C888.186 282.5 889.276 283.877 890.568 283.51L899.834 280.882C902.833 280.019 905.04 283.711 902.857 285.941L896.173 292.847C895.239 293.811 895.938 295.422 897.281 295.4L906.911 295.243C910.03 295.196 911.206 299.319 908.519 300.926L900.245 305.869C899.093 306.558 899.349 308.295 900.651 308.623L909.982 310.972C913.029 311.739 913.077 316.03 910.078 316.87L910.054 316.894Z" fill="#E681FF"/>
</svg>
