<svg width="144" height="293" viewBox="0 0 144 293" fill="none" xmlns="http://www.w3.org/2000/svg">
<ellipse cx="72.0001" cy="4.26879" rx="4.25383" ry="4.26929" transform="rotate(-180 72.0001 4.26879)" fill="#FBFF3E"/>
<path fill-rule="evenodd" clip-rule="evenodd" d="M87.0549 67.3846C91.4673 67.3711 95.0477 70.9645 95.0343 75.393C95.0278 77.5274 95.8731 79.5755 97.3814 81.0801C100.511 84.202 100.511 89.2839 97.3814 92.4057C95.8731 93.9104 95.0278 95.9585 95.0343 98.0929C95.0477 102.521 91.4673 106.115 87.0549 106.101C84.9282 106.095 82.8875 106.943 81.3884 108.457C78.2778 111.598 73.2143 111.598 70.1038 108.457C68.6046 106.943 66.5639 106.095 64.4372 106.101C60.0248 106.115 56.4444 102.521 56.4578 98.0929C56.4586 97.8357 56.447 97.5797 56.4234 97.3258C56.4919 97.3274 56.5605 97.3281 56.6294 97.3279C58.7031 97.3215 60.6929 98.1488 62.1548 99.6249C65.1879 102.688 70.1252 102.688 73.1583 99.6249C74.6202 98.1488 76.61 97.3215 78.6837 97.3279C82.9863 97.341 86.4775 93.8371 86.4644 89.5189C86.4581 87.4377 87.2823 85.4406 88.7531 83.9735C91.8047 80.9293 91.8047 75.9741 88.7531 72.9299C87.2823 71.4628 86.4581 69.4657 86.4644 67.3845L86.4644 67.3644C86.6602 67.3784 86.8572 67.3852 87.0549 67.3846ZM86.4644 67.3644C86.4666 63.0554 82.9796 59.5624 78.6837 59.5755C76.61 59.5818 74.6202 58.7546 73.1583 57.2785C70.1252 54.2158 65.1879 54.2158 62.1548 57.2785C60.6929 58.7546 58.7031 59.5818 56.6294 59.5755C52.3268 59.5623 48.8356 63.0663 48.8487 67.3845C48.855 69.4657 48.0308 71.4628 46.56 72.9299C43.5084 75.9741 43.5084 80.9293 46.56 83.9735C48.0308 85.4406 48.855 87.4377 48.8487 89.5189C48.8358 93.768 52.216 97.2286 56.4234 97.3258C56.251 95.4728 55.4373 93.7291 54.1107 92.4057C50.9811 89.2838 50.9811 84.202 54.1107 81.0801C55.619 79.5755 56.4643 77.5274 56.4578 75.393C56.4444 70.9645 60.0248 67.3711 64.4372 67.3846C66.5639 67.3911 68.6046 66.5427 70.1038 65.0289C73.2144 61.8879 78.2778 61.8879 81.3884 65.0289C82.7482 66.402 84.5535 67.2276 86.4644 67.3644ZM77.1134 91.9225C79.1884 91.9289 80.8721 90.2391 80.8657 88.1565C80.8627 87.1529 81.2602 86.1897 81.9695 85.4822C83.4412 84.0141 83.4412 81.6243 81.9695 80.1563C81.2602 79.4487 80.8627 78.4856 80.8657 77.4819C80.8721 75.3994 79.1884 73.7096 77.1134 73.7159C76.1133 73.719 75.1537 73.32 74.4487 72.6081C72.986 71.1311 70.6049 71.1311 69.1421 72.6081C68.4371 73.32 67.4775 73.719 66.4774 73.7159C64.4024 73.7096 62.7188 75.3994 62.7251 77.4819C62.7281 78.4856 62.3306 79.4487 61.6213 80.1563C60.1496 81.6243 60.1496 84.0141 61.6213 85.4822C62.3306 86.1897 62.7281 87.1528 62.7251 88.1565C62.7188 90.2391 64.4024 91.9289 66.4774 91.9225C67.4775 91.9195 68.4371 92.3184 69.1421 93.0303C70.6049 94.5073 72.986 94.5073 74.4487 93.0303C75.1537 92.3184 76.1133 91.9195 77.1134 91.9225Z" fill="#FBFF3E"/>
<ellipse cx="72.0759" cy="31.8576" rx="6.24981" ry="6.22717" transform="rotate(-90 72.0759 31.8576)" fill="#FBFF3E"/>
<ellipse cx="72.0759" cy="31.8576" rx="6.24981" ry="6.22717" transform="rotate(-90 72.0759 31.8576)" fill="#FBFF3E"/>
<ellipse cx="72.0767" cy="31.8572" rx="6.24981" ry="6.22717" transform="rotate(90 72.0767 31.8572)" fill="#FBFF3E"/>
<ellipse cx="72.0767" cy="31.8572" rx="6.24981" ry="6.22717" transform="rotate(90 72.0767 31.8572)" fill="#FBFF3E"/>
<ellipse cx="72.0769" cy="31.7053" rx="6.22717" ry="6.24981" transform="rotate(-180 72.0769 31.7053)" fill="#FBFF3E"/>
<ellipse cx="72.0008" cy="31.7821" rx="5.08805" ry="5.10655" transform="rotate(-180 72.0008 31.7821)" fill="#FBFF3E"/>
<ellipse cx="72.0008" cy="31.7821" rx="5.08805" ry="5.10655" transform="rotate(-180 72.0008 31.7821)" fill="#FBFF3E"/>
<ellipse cx="72.0008" cy="31.7823" rx="5.10655" ry="5.08805" transform="rotate(90 72.0008 31.7823)" fill="#FBFF3E"/>
<ellipse cx="72.0008" cy="31.7821" rx="5.08805" ry="5.10655" transform="rotate(-180 72.0008 31.7821)" fill="#FBFF3E"/>
<path d="M81.5227 29.3654C82.9002 30.7395 82.9002 32.9763 81.5227 34.3504C80.8588 35.0126 80.4867 35.9141 80.4896 36.8535C80.4955 38.8027 78.9196 40.3843 76.9775 40.3784C76.0414 40.3755 75.1432 40.7489 74.4834 41.4152C73.1143 42.7977 70.8856 42.7977 69.5165 41.4152C68.8566 40.7489 67.9584 40.3755 67.0224 40.3784C65.0803 40.3843 63.5044 38.8027 63.5103 36.8535C63.5131 35.9141 63.1411 35.0126 62.4772 34.3504C61.0997 32.9763 61.0997 30.7395 62.4772 29.3654C63.1411 28.7032 63.5131 27.8017 63.5103 26.8623C63.5044 24.9131 65.0803 23.3314 67.0224 23.3374C67.9584 23.3402 68.8566 22.9668 69.5165 22.3005C70.8856 20.9181 73.1143 20.9181 74.4834 22.3005C75.1432 22.9668 76.0414 23.3402 76.9775 23.3374C78.9196 23.3314 80.4955 24.9131 80.4896 26.8623C80.4867 27.8017 80.8588 28.7032 81.5227 29.3654Z" fill="#FBFF3E"/>
<path fill-rule="evenodd" clip-rule="evenodd" d="M137.681 193.557C145.501 201.358 145.501 214.058 137.681 221.859C133.911 225.619 131.799 230.737 131.815 236.071C131.849 247.137 122.902 256.117 111.875 256.083C106.561 256.067 101.461 258.187 97.7148 261.97C90.7241 269.029 79.7864 269.74 72.001 264.102C72.8717 263.471 73.703 262.761 74.4849 261.972C78.2312 258.189 83.3308 256.069 88.6452 256.085C99.6717 256.119 108.619 247.139 108.585 236.072C108.581 234.631 108.732 233.206 109.029 231.819C119.437 231.162 127.673 222.464 127.641 211.846C127.625 206.512 129.737 201.394 133.506 197.634C134.948 196.196 136.124 194.591 137.034 192.881C137.244 193.111 137.459 193.336 137.681 193.557ZM109.148 159.153C110.047 159.275 110.958 159.335 111.875 159.333C122.902 159.299 131.849 168.279 131.815 179.345C131.8 184.366 133.671 189.196 137.034 192.881C141.061 185.317 139.885 175.695 133.506 169.332C129.737 165.572 127.625 160.454 127.641 155.12C127.675 144.054 118.727 135.074 107.701 135.108C102.387 135.124 97.287 133.004 93.5406 129.221C86.392 122.002 75.1159 121.422 67.3041 127.481C60.351 125.125 52.3564 126.738 46.8292 132.319C43.0829 136.102 37.9833 138.222 32.6689 138.206C21.6424 138.172 12.6953 147.152 12.7288 158.218C12.745 163.552 10.6327 168.67 6.86342 172.43C0.277625 179 -0.762247 189.042 3.74383 196.709C-1.3779 204.471 -0.519343 215.038 6.31949 221.861C10.0887 225.621 12.2011 230.739 12.1849 236.072C12.1513 247.139 21.0985 256.119 32.125 256.085C37.4393 256.069 42.5389 258.189 46.2853 261.972C53.2766 269.031 64.2156 269.741 72.001 264.102C71.1296 263.471 70.2977 262.76 69.5153 261.97C65.7689 258.187 60.6693 256.067 55.355 256.083C44.3285 256.117 35.3813 247.137 35.4148 236.071C35.4158 235.759 35.4094 235.447 35.3959 235.136C39.7035 235.722 43.7295 237.713 46.8292 240.843C53.9779 248.062 65.254 248.642 73.0658 242.583C80.0189 244.939 88.0135 243.326 93.5406 237.745C97.287 233.962 102.387 231.842 107.701 231.858C108.147 231.86 108.59 231.846 109.029 231.819C109.832 228.072 111.7 224.605 114.451 221.861C121.036 215.291 122.076 205.248 117.57 197.582C122.692 189.819 121.833 179.252 114.995 172.43C111.446 168.89 109.366 164.146 109.148 159.153ZM71.9991 151.316C79.7846 145.676 90.7235 146.386 97.7148 153.446C100.815 156.576 104.841 158.567 109.148 159.153C109.135 158.842 109.128 158.53 109.129 158.218C109.163 147.152 100.216 138.172 89.1891 138.206C83.8748 138.222 78.7752 136.102 75.0288 132.319C72.7828 130.051 70.1294 128.438 67.3041 127.481C66.6216 128.01 65.9656 128.59 65.3411 129.221C61.5947 133.004 56.4951 135.124 51.1808 135.108C40.1543 135.074 31.2071 144.054 31.2407 155.12C31.245 156.561 31.094 157.987 30.7969 159.374C20.389 160.031 12.1527 168.728 12.1849 179.347C12.2011 184.68 10.0887 189.798 6.31949 193.558C5.33768 194.538 4.47912 195.594 3.74383 196.709C4.58872 198.146 5.62858 199.5 6.86342 200.732C10.6327 204.492 12.745 209.61 12.7288 214.944C12.6952 226.01 21.6424 234.99 32.6689 234.956C33.5863 234.954 34.4972 235.014 35.3959 235.136C35.178 230.143 33.098 225.399 29.5495 221.859C23.1706 215.496 21.9946 205.874 26.0216 198.31C29.3851 201.995 31.2559 206.825 31.2407 211.846C31.2071 222.912 40.1543 231.892 51.1808 231.858C56.4951 231.842 61.5947 233.962 65.3411 237.745C67.587 240.013 70.2404 241.626 73.0658 242.583C73.7483 242.054 74.4043 241.474 75.0288 240.843C78.7752 237.06 83.8748 234.94 89.1891 234.956C100.216 234.99 109.163 226.01 109.129 214.944C109.113 209.61 111.225 204.492 114.995 200.732C115.976 199.753 116.835 198.696 117.57 197.582C116.725 196.144 115.686 194.79 114.451 193.558C110.681 189.798 108.569 184.68 108.585 179.347C108.619 168.28 99.6717 159.3 88.6452 159.334C83.3308 159.35 78.2312 157.23 74.4849 153.447C73.7024 152.657 72.8705 151.947 71.9991 151.316ZM71.9991 151.316C71.1284 151.946 70.2971 152.656 69.5153 153.446C65.7689 157.229 60.6693 159.349 55.355 159.333C44.3285 159.299 35.3813 168.279 35.4149 179.345C35.431 184.679 33.3187 189.797 29.5495 193.557C28.1077 194.995 26.9317 196.6 26.0216 198.31C25.8119 198.08 25.5964 197.855 25.3753 197.634C17.5546 189.833 17.5546 177.133 25.3753 169.332C28.1261 166.588 29.9944 163.12 30.7969 159.374C31.2359 159.346 31.6787 159.333 32.125 159.334C37.4393 159.35 42.5389 157.23 46.2853 153.447C53.276 146.388 64.2138 145.678 71.9991 151.316ZM100.163 202.925C104.396 198.703 104.396 191.83 100.163 187.608C98.1237 185.573 96.9805 182.804 96.9893 179.917C97.0074 173.928 92.1655 169.069 86.1982 169.087C83.3222 169.096 80.5624 167.948 78.535 165.901C74.3283 161.653 67.4807 161.653 63.2741 165.901C61.2466 167.948 58.4869 169.096 55.6109 169.087C49.6436 169.069 44.8016 173.928 44.8198 179.917C44.8286 182.804 43.6854 185.573 41.6456 187.608C37.4133 191.83 37.4133 198.703 41.6456 202.925C43.6854 204.959 44.8286 207.729 44.8198 210.616C44.8016 216.605 49.6436 221.464 55.6109 221.446C58.4869 221.437 61.2466 222.585 63.2741 224.632C67.4807 228.879 74.3283 228.879 78.535 224.632C80.5624 222.585 83.3222 221.437 86.1982 221.446C92.1655 221.464 97.0074 216.605 96.9893 210.616C96.9805 207.729 98.1237 204.959 100.163 202.925Z" fill="#FBFF3E"/>
</svg>
