<svg width="147" height="297" viewBox="0 0 147 297" fill="none" xmlns="http://www.w3.org/2000/svg">
<ellipse cx="73.4453" cy="4.3264" rx="4.31176" ry="4.32692" transform="rotate(-180 73.4453 4.3264)" fill="#E681FF"/>
<path d="M76.6019 72.3677C76.6019 72.3677 76.6019 72.363 76.6019 72.3583L77.9104 58.5325C78.0226 57.0692 76.8682 55.7983 75.3727 55.8077C74.0455 55.817 72.9846 56.9379 72.8818 58.2652L71.8069 72.0253C71.8069 72.0253 71.8069 72.03 71.8069 72.0347L72.7977 75.3317C73.0687 76.2275 74.2698 76.3682 74.7371 75.5615L76.5925 72.363L76.6019 72.3677Z" fill="#E681FF"/>
<path d="M83.8129 77.9906C83.8129 77.9906 83.8175 77.9906 83.8222 77.9859L94.5151 69.183C95.6274 68.2262 95.7068 66.5097 94.6413 65.4592C93.6926 64.5259 92.155 64.5634 91.1455 65.4311L80.6863 74.4028C80.6863 74.4028 80.6863 74.4028 80.6816 74.4122L79.0179 77.5685C78.5739 78.408 79.3637 79.3694 80.2704 79.0927L83.8129 78L83.8129 77.9906Z" fill="#E681FF"/>
<path d="M67.2314 73.648C67.2314 73.648 67.2314 73.6433 67.2314 73.6386L58.6743 62.7815C57.7209 61.6653 56.0104 61.5855 54.9636 62.6548C54.0336 63.6069 54.071 65.1499 54.9355 66.1629L63.8759 76.6589C63.8759 76.6589 63.8759 76.6589 63.8852 76.6636L66.6098 78.1878C67.437 78.6521 68.4091 77.8829 68.1568 76.9684L67.2408 73.648L67.2314 73.648Z" fill="#E681FF"/>
<path d="M61.8382 80.7769C61.8382 80.7769 61.8335 80.7769 61.8288 80.7769L48.0562 79.445C46.6681 79.3372 45.4577 80.3736 45.3502 81.7665C45.2427 83.1547 46.2756 84.3741 47.6636 84.482L61.5017 85.5184L61.511 85.5184L64.7124 84.3178C65.5723 83.9942 65.6517 82.803 64.8386 82.3715L61.8429 80.7816L61.8382 80.7769Z" fill="#E681FF"/>
<path d="M84.9953 87.0518C84.9953 87.0518 84.9999 87.0518 85.0046 87.0518L98.7493 88.4916C100.207 88.6041 101.474 87.4457 101.465 85.945C101.455 84.613 100.338 83.5484 99.0157 83.4452L85.3037 82.3666C85.3037 82.3666 85.299 82.3666 85.2944 82.3666L81.8687 83.4452C80.9527 83.736 80.8546 84.9976 81.7192 85.4244L85.0046 87.0471L84.9953 87.0518Z" fill="#E681FF"/>
<path d="M73.924 109.667L74.9989 95.9021C74.9989 95.9021 74.9989 95.8974 74.9989 95.8927L73.938 92.6332C73.6436 91.7234 72.3957 91.6343 71.9705 92.4878L70.4048 95.6488C70.4048 95.6488 70.4048 95.6535 70.4048 95.6582L68.9 109.4C68.7878 110.863 69.9422 112.134 71.4377 112.124C72.7649 112.115 73.8258 110.994 73.9286 109.667L73.924 109.667Z" fill="#E681FF"/>
<path d="M79.3452 94.4245C79.3452 94.4245 79.3452 94.4292 79.3452 94.4339L88.136 105.155C89.0894 106.271 90.7999 106.351 91.8467 105.282C92.7768 104.33 92.7394 102.787 91.8748 101.774L82.9344 91.2823C82.9344 91.2823 82.9298 91.2776 82.9251 91.2776L79.635 89.6502C78.7844 89.2281 77.8497 90.0535 78.1535 90.954L79.3312 94.4292L79.3452 94.4245Z" fill="#E681FF"/>
<path d="M63.0439 90.0342C63.0439 90.0342 63.0392 90.0342 63.0345 90.0342L52.2902 98.748C51.234 99.6532 51.1079 101.248 52.0145 102.308C52.9165 103.368 54.5055 103.494 55.5617 102.584L66.119 93.5282C66.119 93.5282 66.119 93.5235 66.1237 93.5188L67.6706 90.5314C68.1052 89.6919 67.3201 88.7445 66.4228 89.0165L63.0485 90.0248L63.0439 90.0342Z" fill="#E681FF"/>
<path d="M85.2895 82.367C85.2895 82.367 85.2942 82.367 85.2989 82.367L98.5014 78.2164C99.8193 77.7755 100.53 76.3451 100.09 75.0226C99.6511 73.7 98.2257 72.9872 96.9077 73.428L83.8221 77.9913C83.8221 77.9913 83.8174 77.9913 83.8127 77.9913L81.0928 80.2284C80.345 80.8427 80.7329 82.0574 81.6956 82.1231L85.2895 82.367Z" fill="#E681FF"/>
<path d="M82.9342 91.2448C82.9342 91.2448 82.9342 91.2448 82.9435 91.2495L95.1085 97.6371C96.2862 98.228 97.7631 97.8904 98.4594 96.7695C99.2586 95.4844 98.7678 93.8242 97.4546 93.1676L85.0092 87.0286C85.0092 87.0286 85.0045 87.0286 84.9998 87.0286L81.4293 86.7096C80.4712 86.6252 79.9011 87.7508 80.532 88.4777L82.9388 91.2448L82.9342 91.2448Z" fill="#E681FF"/>
<path d="M74.9988 95.8964C74.9988 95.8964 74.9988 95.9011 74.9988 95.9058L79.1348 109.155C79.5741 110.477 80.9995 111.19 82.3175 110.749C83.6354 110.308 84.3457 108.878 83.9064 107.556L79.3451 94.4332C79.3451 94.4332 79.3451 94.4285 79.3451 94.4238L77.0972 91.7552C76.4756 91.0189 75.2792 91.4176 75.2185 92.379L74.9988 95.8964Z" fill="#E681FF"/>
<path d="M61.5111 85.5137C61.5111 85.5137 61.5065 85.5137 61.5018 85.5137L48.3039 89.7159C46.986 90.1567 46.2757 91.5871 46.715 92.9097C47.1543 94.2322 48.5797 94.9451 49.8976 94.5042L63.0347 90.0348C63.0347 90.0348 63.044 90.0348 63.044 90.0301L65.5303 87.4694C66.1753 86.8081 65.7313 85.6919 64.8106 85.6544L61.5065 85.5137L61.5111 85.5137Z" fill="#E681FF"/>
<path d="M66.1286 93.5326C66.1286 93.5326 66.124 93.5373 66.124 93.542L59.712 105.848C59.0577 107.161 59.6512 108.775 61.0439 109.328C62.2777 109.816 63.6797 109.178 64.2733 107.987L70.4049 95.6618C70.4049 95.6618 70.4049 95.6571 70.4049 95.6524L70.5871 92.1209C70.6339 91.1876 69.5496 90.6436 68.8346 91.2486L66.1286 93.5373L66.1286 93.5326Z" fill="#E681FF"/>
<path d="M80.6817 74.4032C80.6817 74.4032 80.6864 74.3985 80.6864 74.3938L87.0983 62.0922C87.7199 60.8447 87.2152 59.3299 85.972 58.7061C84.7289 58.0824 83.2194 58.5889 82.5978 59.8364L76.6064 72.3584C76.6064 72.3584 76.6064 72.3631 76.6064 72.3678L76.1858 75.6836C76.0643 76.6403 77.1672 77.2547 77.915 76.6497L80.6864 74.4032L80.6817 74.4032Z" fill="#E681FF"/>
<path d="M71.8113 72.0401L71.8113 72.0307L67.6753 58.7817C67.236 57.4592 65.8106 56.7463 64.4927 57.1871C63.1748 57.628 62.4644 59.0584 62.9037 60.381L67.2313 73.6393C67.2313 73.6393 67.2313 73.644 67.2313 73.6487L69.3718 76.261C69.9559 76.9738 71.1103 76.6596 71.2505 75.7404L71.8113 72.0401Z" fill="#E681FF"/>
<path d="M63.876 76.6638C63.876 76.6638 63.8713 76.6591 63.8666 76.6545L51.6034 70.2199C50.3603 69.5962 48.8508 70.1027 48.2292 71.3502C47.6076 72.5977 48.1124 74.1125 49.3555 74.7363L61.829 80.7675C61.829 80.7675 61.8336 80.7675 61.8383 80.7675L65.0023 81.1005C65.9323 81.199 66.5258 80.1297 65.9556 79.384L63.8713 76.6591L63.876 76.6638Z" fill="#E681FF"/>
<path d="M83.1267 31.0357C83.8592 30.8387 84.2939 30.0831 84.0976 29.348C83.9014 28.6129 83.1484 28.1767 82.4159 28.3737L76.2918 30.0204L79.4617 24.5105C79.8409 23.8514 79.6159 23.0087 78.9591 22.6282C78.3024 22.2476 77.4626 22.4735 77.0834 23.1325L73.9137 28.6419L72.2728 22.4963C72.0765 21.7612 71.3235 21.3249 70.591 21.5219C69.8585 21.7189 69.4238 22.4745 69.62 23.2096L71.2611 29.3558L65.7702 26.1744C65.1134 25.7939 64.2736 26.0197 63.8944 26.6788C63.5152 27.3379 63.7403 28.1806 64.397 28.5611L69.8878 31.7424L63.7638 33.3891C63.0312 33.586 62.5965 34.3416 62.7928 35.0767C62.9891 35.8118 63.742 36.2481 64.4746 36.0511L70.5983 34.4045L67.4283 39.9144C67.0491 40.5735 67.2742 41.4162 67.9309 41.7967C68.5877 42.1773 69.4275 41.9514 69.8067 41.2924L72.977 35.7819L74.6179 41.9273C74.8141 42.6624 75.5671 43.0986 76.2996 42.9017C77.0321 42.7047 77.4669 41.9491 77.2706 41.214L75.6299 35.0692L81.12 38.2501C81.7768 38.6307 82.6166 38.4048 82.9958 37.7458C83.375 37.0867 83.15 36.2439 82.4932 35.8634L77.0028 32.6824L83.1267 31.0357Z" fill="#E681FF"/>
<path d="M66.175 148.868L61.576 132.665C60.5937 129.203 56.9993 127.198 53.5556 128.184C50.1063 129.17 48.1082 132.777 49.0905 136.233L53.6895 152.431L66.2699 175.412C66.4988 175.826 67.1239 175.652 67.1071 175.182L66.1806 148.868L66.175 148.868Z" fill="#E681FF"/>
<path d="M80.7145 247.614L85.3136 263.807C86.3071 267.307 89.9684 269.318 93.4512 268.254C96.934 267.19 98.72 263.482 97.7377 260.032L93.2001 244.041L80.5248 220.914C80.2959 220.5 79.6708 220.673 79.6876 221.149L80.7145 247.62L80.7145 247.614Z" fill="#E681FF"/>
<path d="M24.2422 205.534L8.10644 210.149C4.65716 211.135 2.65903 214.742 3.64135 218.198C4.62367 221.659 8.21808 223.664 11.6618 222.679L27.8087 218.063L50.8095 205.237C51.2225 205.007 51.0439 204.38 50.5751 204.397L24.2366 205.539L24.2422 205.534Z" fill="#E681FF"/>
<path d="M33.5127 168.484L19.0347 160.396C15.9091 158.654 11.8738 159.606 10.0766 162.709C8.27936 165.812 9.36214 169.907 12.5324 171.676L27.1946 179.865L52.534 187.085C52.9861 187.214 53.3043 186.642 52.9582 186.323L33.5127 168.484Z" fill="#E681FF"/>
<path d="M113.377 227.994L128.039 236.183C131.17 237.931 135.128 236.799 136.869 233.657C138.61 230.515 137.488 226.544 134.352 224.796L119.684 216.608L94.3277 209.427C93.8756 209.298 93.5575 209.87 93.9035 210.189L113.377 227.994Z" fill="#E681FF"/>
<path d="M122.642 190.944L138.576 186.385C142.015 185.404 144.197 181.859 143.282 178.392C142.349 174.858 138.716 172.797 135.228 173.794L119.098 178.409L96.0799 191.252C95.6669 191.482 95.8455 192.114 96.3144 192.092L122.642 190.944Z" fill="#E681FF"/>
<path d="M103.096 158.166L111.15 143.637C112.885 140.501 111.937 136.451 108.845 134.648C105.752 132.844 101.672 133.931 99.9088 137.112L91.7432 151.832L84.6605 177.087C84.5321 177.54 85.1014 177.86 85.4195 177.512L103.09 158.161L103.096 158.166Z" fill="#E681FF"/>
<path d="M43.7937 238.305L35.6338 253.025C33.8701 256.206 35.0422 260.227 38.257 261.941C41.4719 263.655 45.3454 262.305 47.0868 259.169L55.1407 244.645L62.402 219.25C62.5304 218.797 61.9611 218.478 61.643 218.825L43.7937 238.305Z" fill="#E681FF"/>
<path d="M119.684 216.607L135.964 220.713C139.481 221.598 143.047 219.425 143.868 215.862C144.677 212.367 142.383 208.895 138.917 208.021L122.848 203.971L96.5042 203.619C96.0353 203.613 95.8735 204.246 96.2921 204.464L119.684 216.607Z" fill="#E681FF"/>
<path d="M93.2001 244.041L101.818 258.491C103.66 261.578 107.645 262.58 110.72 260.737C113.795 258.889 114.8 254.89 112.958 251.804L104.34 237.359L86.0168 218.371C85.6875 218.03 85.1294 218.371 85.2689 218.819L93.1945 244.046L93.2001 244.041Z" fill="#E681FF"/>
<path d="M91.7488 151.838L95.8399 135.499C96.7218 131.971 94.5562 128.392 91.0064 127.568C87.5237 126.756 84.0632 129.058 83.1981 132.537L79.1684 148.651L78.8223 174.897C78.8167 175.367 79.4474 175.53 79.6651 175.11L91.7543 151.843L91.7488 151.838Z" fill="#E681FF"/>
<path d="M27.2002 179.864L10.9249 175.764C7.44775 174.89 3.92032 177.008 3.04963 180.497C2.17894 183.986 4.2887 187.526 7.76589 188.4L24.0412 192.5L50.3908 192.825C50.8596 192.83 51.0215 192.198 50.6029 191.979L27.2002 179.864Z" fill="#E681FF"/>
<path d="M53.6895 152.431L45.1778 138.165C43.3415 135.09 39.3676 133.886 36.2699 135.672C33.1723 137.459 32.0672 141.548 33.9313 144.668L42.5546 159.124L60.9117 178.072C61.241 178.414 61.7991 178.072 61.6596 177.624L53.695 152.425L53.6895 152.431Z" fill="#E681FF"/>
<path d="M27.8087 218.057L13.5874 226.599C10.5176 228.441 9.32322 232.429 11.1037 235.538C12.8841 238.646 16.9585 239.755 20.0674 237.885L34.4673 229.237L53.2207 210.955C53.5556 210.625 53.2207 210.064 52.7742 210.205L27.8031 218.052L27.8087 218.057Z" fill="#E681FF"/>
<path d="M55.135 244.651L51.0494 260.978C50.1676 264.507 52.3387 268.086 55.8829 268.909C59.4271 269.732 62.8261 267.419 63.6912 263.941L67.7266 247.804L68.0838 221.379C68.0894 220.908 67.4587 220.746 67.241 221.166L55.1294 244.645L55.135 244.651Z" fill="#E681FF"/>
<path d="M119.098 178.409L133.492 169.766C136.567 167.918 137.566 163.919 135.73 160.833C133.888 157.747 129.903 156.744 126.828 158.587L112.428 167.24L93.4846 185.567C93.1441 185.897 93.479 186.457 93.9255 186.317L119.103 178.414L119.098 178.409Z" fill="#E681FF"/>
<path d="M112.417 167.234L124.098 155.136C126.621 152.52 126.526 148.336 123.864 145.838C121.202 143.34 117.11 143.648 114.621 146.224L103.09 158.166L89.5775 180.855C89.3375 181.259 89.8064 181.718 90.2027 181.46L112.411 167.234L112.417 167.234Z" fill="#E681FF"/>
<path d="M122.848 203.971L139.631 203.708C143.215 203.652 146.078 200.689 146.022 197.093C145.966 193.497 143.014 190.624 139.431 190.68L122.647 190.943L97.1126 197.384C96.6549 197.502 96.6661 198.151 97.1238 198.258L122.854 203.971L122.848 203.971Z" fill="#E681FF"/>
<path d="M104.346 237.354L116.396 249.071C119.003 251.603 123.172 251.508 125.661 248.836C128.15 246.164 127.843 242.059 125.276 239.561L113.377 227.995L90.7162 214.479C90.3087 214.238 89.8566 214.709 90.1134 215.107L104.346 237.354Z" fill="#E681FF"/>
<path d="M24.0357 192.506L7.47017 192.769C3.89809 192.825 0.87299 195.682 0.867409 199.266C0.861827 202.851 3.8367 205.859 7.45901 205.797L24.2366 205.534L49.7769 199.076C50.2346 198.958 50.2234 198.303 49.7658 198.202L24.0357 192.506Z" fill="#E681FF"/>
<path d="M34.4672 229.243L22.791 241.335C20.2962 243.917 20.3631 248.045 22.9361 250.549C25.5091 253.053 29.6226 252.985 32.1175 250.403L43.7937 238.305L57.3229 215.632C57.5629 215.229 57.0997 214.77 56.6978 215.022L34.4672 229.237L34.4672 229.243Z" fill="#E681FF"/>
<path d="M79.1572 148.644L78.8949 131.813C78.8391 128.218 75.8865 125.344 72.3033 125.4C68.7201 125.456 65.8568 128.419 65.9126 132.015L66.175 148.857L72.5991 174.476C72.7163 174.935 73.3638 174.924 73.4698 174.465L79.1572 148.633L79.1572 148.644Z" fill="#E681FF"/>
<path d="M42.549 159.13L30.6495 147.558C28.0821 145.06 23.9351 144.937 21.4012 147.468C18.817 150.045 18.8561 154.234 21.4626 156.766L33.5183 168.489L56.1229 182.049C56.5247 182.29 56.9824 181.819 56.7257 181.421L42.5546 159.13L42.549 159.13Z" fill="#E681FF"/>
<path d="M74.7146 271.066C78.2867 270.942 81.0327 267.823 80.9769 264.238L80.7145 247.62L74.3685 221.978C74.2569 221.519 73.6039 221.525 73.4978 221.99L67.7323 247.81L68.0002 264.664C68.056 268.304 71.0755 271.194 74.7146 271.071L74.7146 271.066Z" fill="#E681FF"/>
<path d="M74.7033 219.447L75.8252 214.972L78.1861 218.932C78.7442 219.867 80.1731 219.458 80.1563 218.366L80.0838 213.757L83.3823 216.966C84.1637 217.722 85.4363 216.955 85.1405 215.907L83.8791 211.471L87.8977 213.717C88.8465 214.25 89.8791 213.174 89.3209 212.239L86.96 208.279L91.4195 209.405C92.4744 209.668 93.1944 208.368 92.413 207.607L89.1088 204.397L93.7023 204.325C94.7851 204.308 95.1479 202.863 94.199 202.331L90.1804 200.085L94.6009 198.819C95.6446 198.522 95.6223 197.026 94.5674 196.763L90.1135 195.643L94.0595 193.274C94.9916 192.714 94.5841 191.28 93.4958 191.297L88.8967 191.369L92.0949 188.054C92.8483 187.27 92.0837 185.992 91.04 186.289L86.6195 187.555L88.8521 183.528C89.3823 182.576 88.3107 181.54 87.3786 182.1L83.4326 184.469L84.5544 179.994C84.8168 178.935 83.5219 178.213 82.7628 178.997L79.5647 182.307L79.4921 177.692C79.4754 176.605 78.0354 176.241 77.5052 177.193L75.267 181.226L74.0056 176.784C73.7098 175.737 72.2196 175.759 71.9573 176.818L70.8354 181.293L68.4745 177.339C67.9164 176.404 66.4875 176.812 66.5043 177.905L66.5768 182.52L63.2727 179.311C62.4913 178.554 61.2187 179.322 61.5145 180.369L62.7759 184.805L58.7573 182.559C57.8085 182.027 56.776 183.102 57.3341 184.038L59.695 187.998L55.2355 186.872C54.1806 186.609 53.4606 187.908 54.242 188.67L57.5462 191.879L52.9471 191.952C51.8644 191.969 51.5016 193.414 52.4504 193.946L56.469 196.192L52.0485 197.458C51.0048 197.755 51.0271 199.25 52.082 199.513L56.5471 200.639L52.6011 203.008C51.669 203.568 52.0764 205.002 53.1648 204.985L57.7583 204.913L54.5602 208.223C53.8067 209.007 54.5713 210.284 55.615 209.987L60.0355 208.721L57.7973 212.754C57.2671 213.706 58.3387 214.742 59.2708 214.182L63.2113 211.813L62.0894 216.288C61.8271 217.347 63.122 218.069 63.881 217.285L67.0848 213.969L67.1573 218.585C67.174 219.671 68.614 220.035 69.1443 219.083L71.3768 215.056L72.6382 219.492C72.934 220.539 74.4242 220.517 74.6866 219.458L74.7033 219.447ZM72.8782 212.457L72.2671 210.3C72.1816 209.999 71.7754 209.952 71.6234 210.226L70.534 212.188C70.1824 212.827 69.2112 212.58 69.2001 211.852L69.1636 209.603C69.1585 209.29 68.7786 209.139 68.5612 209.364L67.001 210.979C66.4931 211.505 65.6224 211.018 65.801 210.306L66.3474 208.129C66.4238 207.825 66.0953 207.58 65.8271 207.742L63.9089 208.895C63.2838 209.27 62.5694 208.576 62.921 207.937L64.0106 205.974C64.1626 205.7 63.9088 205.378 63.6083 205.464L61.4587 206.078C60.7611 206.279 60.2476 205.417 60.7555 204.896L62.3104 203.283C62.5276 203.057 62.3649 202.681 62.0526 202.686L59.8178 202.723C59.0922 202.734 58.8187 201.771 59.4439 201.395L61.3644 200.241C61.6322 200.079 61.5725 199.674 61.2698 199.597L59.0978 199.048C58.389 198.869 58.3778 197.867 59.0755 197.671L61.2246 197.057C61.5252 196.971 61.5723 196.564 61.2994 196.411L59.3434 195.318C58.7071 194.965 58.9527 193.991 59.6783 193.98L61.9194 193.943C62.2316 193.938 62.382 193.557 62.1578 193.338L60.549 191.773C60.0243 191.263 60.5099 190.389 61.2187 190.568L63.3881 191.117C63.6912 191.193 63.9352 190.864 63.7745 190.595L62.6252 188.67C62.2513 188.042 62.9434 187.326 63.5796 187.678L65.536 188.772C65.8089 188.924 66.1294 188.67 66.0439 188.368L65.4327 186.211C65.2317 185.511 66.0913 184.996 66.6103 185.505L68.2176 187.069C68.442 187.288 68.8174 187.125 68.8123 186.811L68.7759 184.564C68.7647 183.836 69.7247 183.562 70.0987 184.189L71.2494 186.116C71.4098 186.385 71.814 186.325 71.8902 186.021L72.4373 183.842C72.6159 183.13 73.6149 183.119 73.8103 183.819L74.4264 185.983C74.5122 186.285 74.9181 186.332 75.07 186.058L76.1601 184.094C76.5117 183.455 77.4828 183.702 77.494 184.43L77.5304 186.677C77.5355 186.991 77.9159 187.142 78.1331 186.916L79.6875 185.304C80.1954 184.777 81.0661 185.264 80.8875 185.976L80.3411 188.153C80.2647 188.457 80.5932 188.702 80.8614 188.54L82.7796 187.387C83.4047 187.012 84.1191 187.706 83.7675 188.345L82.6776 190.309C82.5256 190.582 82.7793 190.904 83.0797 190.818L85.2354 190.204C85.933 190.003 86.4465 190.865 85.9386 191.386L84.3799 192.999C84.1623 193.224 84.3249 193.601 84.6374 193.596L86.8763 193.559C87.6019 193.548 87.8753 194.512 87.2502 194.887L85.3315 196.041C85.0634 196.202 85.1235 196.608 85.4267 196.684L87.5963 197.228C88.3051 197.407 88.3163 198.41 87.6186 198.606L85.4645 199.219C85.1639 199.305 85.1166 199.713 85.3897 199.865L87.3451 200.958C87.9814 201.311 87.7358 202.286 87.0102 202.297L84.7747 202.334C84.4625 202.339 84.3121 202.72 84.5363 202.938L86.1451 204.504C86.6698 205.013 86.1842 205.887 85.4754 205.708L83.306 205.16C83.0029 205.083 82.7589 205.413 82.9196 205.682L84.0689 207.607C84.4428 208.234 83.7507 208.951 83.1144 208.598L81.1576 207.504C80.8847 207.352 80.5643 207.606 80.6496 207.908L81.2614 210.071C81.4624 210.771 80.6028 211.287 80.0838 210.777L78.4762 209.216C78.2516 208.999 77.8766 209.162 77.8817 209.475L77.9182 211.723C77.9293 212.452 76.9693 212.726 76.5954 212.099L75.4446 210.167C75.2843 209.898 74.8799 209.958 74.8036 210.262L74.2568 212.44C74.0782 213.152 73.0791 213.163 72.8838 212.463L72.8782 212.457Z" fill="#E681FF"/>
</svg>
